SplineFontDB: 3.2
FontName: IRBadr-Bold
FullName: IRBadr-Bold
FamilyName: IRBadr
Weight: Bold
Copyright: Copyright (c) 2022, Information Technology Organization of Iran (ito.gov.ir)
Version: 1.000
ItalicAngle: 0
UnderlinePosition: -100
UnderlineWidth: 60
Ascent: 1638
Descent: 410
InvalidEm: 0
sfntRevision: 0x00010000
LayerCount: 2
Layer: 0 1 "Back" 1
Layer: 1 1 "Fore" 0
XUID: [1021 420 722297922 3623170]
StyleMap: 0x0020
FSType: 0
OS2Version: 3
OS2_WeightWidthSlopeOnly: 0
OS2_UseTypoMetrics: 0
CreationTime: 1354763488
ModificationTime: 1662560681
PfmFamily: 17
TTFWeight: 700
TTFWidth: 5
LineGap: 100
VLineGap: 0
Panose: 2 0 8 6 0 0 0 2 0 2
OS2TypoAscent: 2100
OS2TypoAOffset: 0
OS2TypoDescent: -1300
OS2TypoDOffset: 0
OS2TypoLinegap: 300
OS2WinAscent: 2100
OS2WinAOffset: 0
OS2WinDescent: 1300
OS2WinDOffset: 0
HheadAscent: 2100
HheadAOffset: 0
HheadDescent: -1300
HheadDOffset: 0
OS2SubXSize: 1434
OS2SubYSize: 1331
OS2SubXOff: 0
OS2SubYOff: 293
OS2SupXSize: 1434
OS2SupYSize: 1331
OS2SupXOff: 0
OS2SupYOff: 928
OS2StrikeYSize: 50
OS2StrikeYPos: 250
OS2CapHeight: 2108
OS2XHeight: 707
OS2FamilyClass: 2048
OS2Vendor: 'PARS'
OS2CodePages: 20000041.00000000
OS2UnicodeRanges: 00002003.00000000.00000000.00000000
Lookup: 1 1 0 "'init' Initial Forms in Arabic lookup 0" { "'init' Initial Forms in Arabic lookup 0 subtable"  } ['init' ('arab' <'dflt' > ) ]
Lookup: 1 1 0 "'isol' Isolated Forms in Arabic lookup 1" { "'isol' Isolated Forms in Arabic lookup 1 subtable"  } ['isol' ('arab' <'dflt' > ) ]
Lookup: 1 1 0 "'medi' Medial Forms in Arabic lookup 2" { "'medi' Medial Forms in Arabic lookup 2 subtable"  } ['medi' ('arab' <'dflt' > ) ]
Lookup: 1 1 0 "'fina' Terminal Forms in Arabic lookup 3" { "'fina' Terminal Forms in Arabic lookup 3 subtable"  } ['fina' ('arab' <'dflt' > ) ]
Lookup: 4 1 0 "'ccmp' Glyph Composition/Decomposition in Arabic lookup 4" { "'ccmp' Glyph Composition/Decomposition in Arabic lookup 4 subtable"  } ['ccmp' ('arab' <'dflt' > ) ]

StartChar: quotedbl
Encoding: 34 34 1
Width: 480
Flags: W
LayerCount: 2
Fore
SplineSet
78 1325 m 1,0,-1
 180 1325 l 1,1,-1
 158 1003 l 1,2,-1
 90 1003 l 1,3,-1
 78 1325 l 1,0,-1
291 1325 m 1,4,-1
 392 1325 l 1,5,-1
 370 1003 l 1,6,-1
 303 1003 l 1,7,-1
 291 1325 l 1,4,-1
EndSplineSet
EndChar

StartChar: numbersign
Encoding: 35 35 2
Width: 819
Flags: W
LayerCount: 2
Fore
SplineSet
72 -22 m 1,0,-1
 141 317 l 1,1,-1
 32 317 l 1,2,-1
 32 423 l 1,3,-1
 162 423 l 1,4,-1
 209 657 l 1,5,-1
 32 657 l 1,6,-1
 32 761 l 1,7,-1
 230 761 l 1,8,-1
 299 1107 l 1,9,-1
 405 1107 l 1,10,-1
 334 761 l 1,11,-1
 570 761 l 1,12,-1
 639 1107 l 1,13,-1
 745 1107 l 1,14,-1
 674 761 l 1,15,-1
 786 761 l 1,16,-1
 786 657 l 1,17,-1
 654 657 l 1,18,-1
 606 423 l 1,19,-1
 786 423 l 1,20,-1
 786 317 l 1,21,-1
 586 317 l 1,22,-1
 518 -22 l 1,23,-1
 411 -22 l 1,24,-1
 480 317 l 1,25,-1
 247 317 l 1,26,-1
 175 -22 l 1,27,-1
 72 -22 l 1,0,-1
268 423 m 1,28,-1
 503 423 l 1,29,-1
 550 657 l 1,30,-1
 314 657 l 1,31,-1
 268 423 l 1,28,-1
EndSplineSet
EndChar

StartChar: dollar
Encoding: 36 36 3
Width: 819
Flags: W
LayerCount: 2
Fore
SplineSet
453 668 m 1,0,1
 644 547 644 547 697 486 c 0,2,3
 767 402 767 402 767 290 c 0,4,5
 767 166 767 166 684 81 c 128,-1,6
 601 -4 601 -4 453 -17 c 1,7,-1
 453 -110 l 1,8,-1
 383 -110 l 1,9,-1
 383 -22 l 1,10,11
 298 -21 298 -21 232.5 -8.5 c 128,-1,12
 167 4 167 4 82 37 c 1,13,-1
 82 295 l 1,14,-1
 116 295 l 1,15,16
 132 207 132 207 166.5 152.5 c 128,-1,17
 201 98 201 98 253.5 70.5 c 128,-1,18
 306 43 306 43 383 37 c 1,19,-1
 383 432 l 1,20,21
 190 553 190 553 126.5 625.5 c 128,-1,22
 63 698 63 698 63 794 c 0,23,24
 63 898 63 898 143 977.5 c 128,-1,25
 223 1057 223 1057 383 1077 c 1,26,-1
 383 1114 l 1,27,-1
 453 1114 l 1,28,-1
 453 1077 l 1,29,30
 589 1067 589 1067 726 993 c 1,31,-1
 726 762 l 1,32,-1
 695 762 l 1,33,34
 672 840 672 840 639.5 890.5 c 128,-1,35
 607 941 607 941 556 977 c 0,36,37
 517 1003 517 1003 453 1021 c 1,38,-1
 453 668 l 1,0,1
383 1023 m 1,39,40
 325 1018 325 1018 290 991 c 0,41,42
 234 949 234 949 234 889 c 0,43,44
 234 852 234 852 260 814.5 c 128,-1,45
 286 777 286 777 383 712 c 1,46,-1
 383 1023 l 1,39,40
453 37 m 1,47,48
 522 53 522 53 554 91.5 c 128,-1,49
 586 130 586 130 586 189 c 0,50,51
 586 239 586 239 557.5 283 c 128,-1,52
 529 327 529 327 453 383 c 1,53,-1
 453 37 l 1,47,48
EndSplineSet
EndChar

StartChar: percent
Encoding: 37 37 4
Width: 1638
Flags: W
LayerCount: 2
Fore
SplineSet
1258 1110 m 1,0,-1
 488 -46 l 1,1,-1
 381 -46 l 1,2,-1
 1150 1110 l 1,3,-1
 1258 1110 l 1,0,-1
382 1110 m 0,4,5
 496 1110 496 1110 574 1029.5 c 128,-1,6
 652 949 652 949 652 822 c 0,7,8
 652 691 652 691 573.5 610 c 128,-1,9
 495 529 495 529 379 529 c 0,10,11
 265 529 265 529 189.5 607.5 c 128,-1,12
 114 686 114 686 114 814 c 0,13,14
 114 946 114 946 191.5 1028 c 128,-1,15
 269 1110 269 1110 382 1110 c 0,4,5
382 1067 m 0,16,17
 365 1067 365 1067 354 1057 c 0,18,19
 334 1038 334 1038 324 993 c 128,-1,20
 314 948 314 948 314 806 c 0,21,22
 314 694 314 694 327 632 c 0,23,24
 335 597 335 597 354 579 c 0,25,26
 366 569 366 569 382 569 c 0,27,28
 400 569 400 569 410 578 c 0,29,30
 429 595 429 595 438 633 c 0,31,32
 451 694 451 694 451 803 c 0,33,34
 451 938 451 938 438 998 c 0,35,36
 430 1039 430 1039 410 1058 c 0,37,38
 400 1067 400 1067 382 1067 c 0,16,17
1253 537 m 0,39,40
 1369 537 1369 537 1447 457.5 c 128,-1,41
 1525 378 1525 378 1525 249 c 0,42,43
 1525 118 1525 118 1445.5 36.5 c 128,-1,44
 1366 -45 1366 -45 1254 -45 c 0,45,46
 1143 -45 1143 -45 1065 36.5 c 128,-1,47
 987 118 987 118 987 246 c 0,48,49
 987 375 987 375 1063 456 c 128,-1,50
 1139 537 1139 537 1253 537 c 0,39,40
1255 495 m 0,51,52
 1239 495 1239 495 1228 486 c 0,53,54
 1209 468 1209 468 1198.5 424.5 c 128,-1,55
 1188 381 1188 381 1188 258 c 0,56,57
 1188 126 1188 126 1200 69 c 0,58,59
 1209 28 1209 28 1230 10 c 0,60,61
 1240 0 1240 0 1257 0 c 0,62,63
 1272 0 1272 0 1282 9 c 0,64,65
 1302 27 1302 27 1311 69 c 0,66,67
 1325 127 1325 127 1325 246 c 0,68,69
 1325 370 1325 370 1312 428 c 0,70,71
 1302 470 1302 470 1283 486 c 0,72,73
 1274 495 1274 495 1255 495 c 0,51,52
EndSplineSet
EndChar

StartChar: ampersand
Encoding: 38 38 5
Width: 1365
Flags: W
LayerCount: 2
Fore
SplineSet
933 649 m 1,0,-1
 1266 649 l 1,1,-1
 1266 618 l 1,2,3
 1210 610 1210 610 1178 584.5 c 128,-1,4
 1146 559 1146 559 1094.5 467 c 128,-1,5
 1043 375 1043 375 950 262 c 1,6,7
 1032 188 1032 188 1083 159 c 0,8,9
 1119 139 1119 139 1154 139 c 0,10,11
 1213 139 1213 139 1261 217 c 1,12,-1
 1294 199 l 1,13,14
 1228 70 1228 70 1154 16 c 0,15,16
 1097 -25 1097 -25 1024 -25 c 0,17,18
 962 -25 962 -25 905.5 2 c 128,-1,19
 849 29 849 29 768 102 c 1,20,21
 668 35 668 35 580 5 c 128,-1,22
 492 -25 492 -25 397 -25 c 0,23,24
 245 -25 245 -25 155.5 57.5 c 128,-1,25
 66 140 66 140 66 251 c 0,26,27
 66 371 66 371 151.5 460 c 128,-1,28
 237 549 237 549 400 614 c 1,29,30
 379 666 379 666 368.5 715.5 c 128,-1,31
 358 765 358 765 358 811 c 0,32,33
 358 939 358 939 448 1024.5 c 128,-1,34
 538 1110 538 1110 678 1110 c 0,35,36
 791 1110 791 1110 857 1053.5 c 128,-1,37
 923 997 923 997 923 922 c 0,38,39
 923 831 923 831 855.5 766.5 c 128,-1,40
 788 702 788 702 642 649 c 1,41,42
 732 490 732 490 906 306 c 1,43,44
 1024 438 1024 438 1024 532 c 0,45,46
 1024 566 1024 566 1001 589.5 c 128,-1,47
 978 613 978 613 933 618 c 1,48,-1
 933 649 l 1,0,-1
614 697 m 1,49,50
 698 728 698 728 727 763.5 c 128,-1,51
 756 799 756 799 756 850 c 0,52,53
 756 939 756 939 709 1001 c 0,54,55
 678 1042 678 1042 632 1042 c 0,56,57
 594 1042 594 1042 567.5 1012 c 128,-1,58
 541 982 541 982 541 932 c 0,59,60
 541 893 541 893 553.5 848 c 128,-1,61
 566 803 566 803 614 697 c 1,49,50
422 562 m 1,62,63
 358 535 358 535 332 505 c 0,64,65
 294 460 294 460 294 405 c 0,66,67
 294 330 294 330 338 255.5 c 128,-1,68
 382 181 382 181 443.5 140 c 128,-1,69
 505 99 505 99 566 99 c 0,70,71
 597 99 597 99 635 112.5 c 128,-1,72
 673 126 673 126 718 152 c 1,73,74
 525 350 525 350 422 562 c 1,62,63
EndSplineSet
EndChar

StartChar: quotesingle
Encoding: 39 39 6
Width: 384
Flags: W
LayerCount: 2
Fore
SplineSet
142 1325 m 1,0,-1
 243 1325 l 1,1,-1
 221 1003 l 1,2,-1
 154 1003 l 1,3,-1
 142 1325 l 1,0,-1
EndSplineSet
EndChar

StartChar: asterisk
Encoding: 42 42 7
Width: 774
Flags: W
LayerCount: 2
Fore
SplineSet
430 713 m 1,0,-1
 430 569 l 2,1,2
 430 555 430 555 422 545 c 128,-1,3
 414 535 414 535 399 535 c 2,4,-1
 348 535 l 2,5,6
 340 535 340 535 329.5 545 c 128,-1,7
 319 555 319 555 319 569 c 2,8,-1
 319 713 l 1,9,-1
 221 612 l 1,10,11
 193 594 193 594 164 612 c 1,12,-1
 133 645 l 2,13,14
 115 668 115 668 139 694 c 2,15,-1
 240 797 l 1,16,-1
 96 797 l 2,17,18
 82 797 82 797 69.5 806 c 128,-1,19
 57 815 57 815 57 831 c 2,20,-1
 57 881 l 2,21,22
 57 891 57 891 69.5 900 c 128,-1,23
 82 909 82 909 96 909 c 2,24,-1
 231 909 l 1,25,-1
 133 1010 l 2,26,27
 119 1022 119 1022 118 1036.5 c 128,-1,28
 117 1051 117 1051 127 1065 c 1,29,-1
 164 1096 l 2,30,31
 174 1106 174 1106 186.5 1105 c 128,-1,32
 199 1104 199 1104 211 1090 c 2,33,-1
 319 985 l 1,34,-1
 319 1141 l 2,35,36
 319 1153 319 1153 329.5 1164.5 c 128,-1,37
 340 1176 340 1176 348 1176 c 2,38,-1
 399 1176 l 2,39,40
 414 1176 414 1176 422 1164.5 c 128,-1,41
 430 1153 430 1153 430 1141 c 2,42,-1
 430 991 l 1,43,-1
 537 1096 l 2,44,45
 549 1110 549 1110 561 1111 c 128,-1,46
 573 1112 573 1112 592 1104 c 1,47,-1
 618 1065 l 1,48,49
 629 1057 629 1057 629 1044.5 c 128,-1,50
 629 1032 629 1032 616 1016 c 2,51,-1
 512 909 l 1,52,-1
 668 909 l 2,53,54
 678 909 678 909 690 900 c 128,-1,55
 702 891 702 891 702 881 c 2,56,-1
 702 831 l 2,57,58
 702 815 702 815 690 806 c 128,-1,59
 678 797 678 797 668 797 c 2,60,-1
 504 797 l 1,61,-1
 616 694 l 1,62,63
 635 668 635 668 616 637 c 1,64,-1
 586 606 l 1,65,66
 563 588 563 588 537 612 c 2,67,-1
 430 713 l 1,0,-1
EndSplineSet
EndChar

StartChar: plus
Encoding: 43 43 8
Width: 864
Flags: W
LayerCount: 2
Fore
SplineSet
356 366 m 1,0,-1
 96 366 l 1,1,-1
 96 499 l 1,2,-1
 356 499 l 1,3,-1
 356 763 l 1,4,-1
 489 763 l 1,5,-1
 489 499 l 1,6,-1
 762 499 l 1,7,-1
 762 366 l 1,8,-1
 489 366 l 1,9,-1
 489 103 l 1,10,-1
 356 103 l 1,11,-1
 356 366 l 1,0,-1
EndSplineSet
EndChar

StartChar: hyphen
Encoding: 45 45 9
Width: 721
Flags: W
LayerCount: 2
Fore
SplineSet
624 332 m 1,0,-1
 89 332 l 1,1,-1
 89 474 l 1,2,-1
 624 474 l 1,3,-1
 624 332 l 1,0,-1
EndSplineSet
EndChar

StartChar: period
Encoding: 46 46 10
Width: 589
Flags: W
LayerCount: 2
Fore
SplineSet
532 103 m 0,0,1
 532 60 532 60 501 29.5 c 128,-1,2
 470 -1 470 -1 427 -1 c 256,3,4
 384 -1 384 -1 353.5 30 c 128,-1,5
 323 61 323 61 323 104 c 256,6,7
 323 147 323 147 353.5 177.5 c 128,-1,8
 384 208 384 208 427 208 c 0,9,10
 471 208 471 208 501.5 177.5 c 128,-1,11
 532 147 532 147 532 103 c 0,0,1
EndSplineSet
EndChar

StartChar: slash
Encoding: 47 47 11
Width: 868
Flags: W
LayerCount: 2
Fore
SplineSet
681 1188 m 1,0,-1
 240 -171 l 1,1,-1
 126 -171 l 1,2,-1
 567 1188 l 1,3,-1
 681 1188 l 1,0,-1
EndSplineSet
EndChar

StartChar: zero
Encoding: 48 48 12
Width: 819
Flags: W
LayerCount: 2
Fore
SplineSet
759 542 m 0,0,1
 759 380 759 380 714 239 c 0,2,3
 686 153 686 153 640 97.5 c 128,-1,4
 594 42 594 42 536 10 c 128,-1,5
 478 -22 478 -22 409 -22 c 0,6,7
 330 -22 330 -22 267 18 c 128,-1,8
 204 58 204 58 155 132 c 0,9,10
 120 186 120 186 94 277 c 0,11,12
 59 399 59 399 59 530 c 0,13,14
 59 706 59 706 109 854 c 0,15,16
 150 977 150 977 233 1042 c 128,-1,17
 316 1107 316 1107 409 1107 c 0,18,19
 503 1107 503 1107 585 1042.5 c 128,-1,20
 667 978 667 978 706 870 c 0,21,22
 759 720 759 720 759 542 c 0,0,1
513 544 m 2,23,24
 513 829 513 829 510 876 c 0,25,26
 502 987 502 987 471 1026 c 0,27,28
 451 1052 451 1052 406 1052 c 0,29,30
 372 1052 372 1052 352 1033 c 0,31,32
 322 1005 322 1005 312 934 c 128,-1,33
 302 863 302 863 302 440 c 0,34,35
 302 210 302 210 318 131 c 0,36,37
 330 74 330 74 352 55 c 128,-1,38
 374 36 374 36 411 36 c 0,39,40
 451 36 451 36 471 62 c 0,41,42
 505 106 505 106 510 200 c 1,43,-1
 513 544 l 2,23,24
EndSplineSet
EndChar

StartChar: one
Encoding: 49 49 13
Width: 819
Flags: W
LayerCount: 2
Fore
SplineSet
534 1107 m 1,0,-1
 534 220 l 2,1,2
 534 120 534 120 542.5 92.5 c 128,-1,3
 551 65 551 65 579 47.5 c 128,-1,4
 607 30 607 30 669 30 c 2,5,-1
 694 30 l 1,6,-1
 694 0 l 1,7,-1
 122 0 l 1,8,-1
 122 30 l 1,9,-1
 151 30 l 2,10,11
 221 30 221 30 250.5 46 c 128,-1,12
 280 62 280 62 290.5 90 c 128,-1,13
 301 118 301 118 301 220 c 2,14,-1
 301 782 l 2,15,16
 301 858 301 858 293.5 876.5 c 128,-1,17
 286 895 286 895 266.5 908.5 c 128,-1,18
 247 922 247 922 222 922 c 0,19,20
 181 922 181 922 122 896 c 1,21,-1
 108 925 l 1,22,-1
 507 1107 l 1,23,-1
 534 1107 l 1,0,-1
EndSplineSet
EndChar

StartChar: two
Encoding: 50 50 14
Width: 819
Flags: W
LayerCount: 2
Fore
SplineSet
678 0 m 1,0,-1
 40 0 l 1,1,-1
 40 18 l 1,2,3
 334 367 334 367 396.5 488 c 128,-1,4
 459 609 459 609 459 724 c 0,5,6
 459 808 459 808 407 863.5 c 128,-1,7
 355 919 355 919 280 919 c 0,8,9
 157 919 157 919 89 796 c 1,10,-1
 59 806 l 1,11,12
 102 960 102 960 190 1033.5 c 128,-1,13
 278 1107 278 1107 394 1107 c 0,14,15
 476 1107 476 1107 544 1068.5 c 128,-1,16
 612 1030 612 1030 650.5 963.5 c 128,-1,17
 689 897 689 897 689 838 c 0,18,19
 689 732 689 732 630 622 c 0,20,21
 549 474 549 474 277 210 c 1,22,-1
 511 210 l 2,23,24
 598 210 598 210 624 217 c 128,-1,25
 650 224 650 224 666.5 241 c 128,-1,26
 683 258 683 258 710 314 c 1,27,-1
 739 314 l 1,28,-1
 678 0 l 1,0,-1
EndSplineSet
EndChar

StartChar: three
Encoding: 51 51 15
Width: 819
Flags: W
LayerCount: 2
Fore
SplineSet
242 544 m 1,0,-1
 242 572 l 1,1,2
 334 598 334 598 369 621 c 128,-1,3
 404 644 404 644 429.5 691 c 128,-1,4
 455 738 455 738 455 786 c 0,5,6
 455 852 455 852 406.5 899.5 c 128,-1,7
 358 947 358 947 286 947 c 0,8,9
 174 947 174 947 96 829 c 1,10,-1
 66 839 l 1,11,12
 124 973 124 973 214 1040 c 128,-1,13
 304 1107 304 1107 414 1107 c 0,14,15
 527 1107 527 1107 600.5 1038.5 c 128,-1,16
 674 970 674 970 674 878 c 0,17,18
 674 818 674 818 640 762 c 128,-1,19
 606 706 606 706 533 664 c 1,20,21
 626 618 626 618 675.5 551.5 c 128,-1,22
 725 485 725 485 725 384 c 0,23,24
 725 214 725 214 602 95.5 c 128,-1,25
 479 -23 479 -23 273 -23 c 0,26,27
 135 -23 135 -23 72 22 c 0,28,29
 26 54 26 54 26 105 c 0,30,31
 26 142 26 142 52.5 168 c 128,-1,32
 79 194 79 194 114 194 c 0,33,34
 140 194 140 194 163 182 c 0,35,36
 176 176 176 176 254 112.5 c 128,-1,37
 332 49 332 49 400 49 c 0,38,39
 459 49 459 49 501.5 95.5 c 128,-1,40
 544 142 544 142 544 214 c 0,41,42
 544 324 544 324 467 416.5 c 128,-1,43
 390 509 390 509 242 544 c 1,0,-1
EndSplineSet
EndChar

StartChar: four
Encoding: 52 52 16
Width: 819
Flags: W
LayerCount: 2
Fore
SplineSet
41 409 m 1,0,-1
 556 1107 l 1,1,-1
 654 1107 l 1,2,-1
 654 409 l 1,3,-1
 753 409 l 1,4,-1
 753 243 l 1,5,-1
 654 243 l 1,6,-1
 654 0 l 1,7,-1
 434 0 l 1,8,-1
 434 243 l 1,9,-1
 41 243 l 1,10,-1
 41 409 l 1,0,-1
118 409 m 1,11,-1
 434 409 l 1,12,-1
 434 837 l 1,13,-1
 118 409 l 1,11,-1
EndSplineSet
EndChar

StartChar: five
Encoding: 53 53 17
Width: 819
Flags: W
LayerCount: 2
Fore
SplineSet
250 1085 m 1,0,-1
 758 1085 l 1,1,-1
 677 878 l 1,2,-1
 250 878 l 1,3,-1
 209 770 l 1,4,5
 485 760 485 760 634 633 c 0,6,7
 756 528 756 528 756 372 c 0,8,9
 756 272 756 272 699 176.5 c 128,-1,10
 642 81 642 81 539 29.5 c 128,-1,11
 436 -22 436 -22 313 -22 c 0,12,13
 180 -22 180 -22 109 27 c 0,14,15
 59 62 59 62 59 107 c 0,16,17
 59 142 59 142 85 168 c 128,-1,18
 111 194 111 194 146 194 c 0,19,20
 177 194 177 194 209 181.5 c 128,-1,21
 241 169 241 169 318 114 c 0,22,23
 367 81 367 81 402 68 c 0,24,25
 427 58 427 58 458 58 c 0,26,27
 524 58 524 58 570 106 c 128,-1,28
 616 154 616 154 616 222 c 0,29,30
 616 362 616 362 475 450 c 128,-1,31
 334 538 334 538 120 538 c 0,32,33
 98 538 98 538 55 538 c 1,34,-1
 250 1085 l 1,0,-1
EndSplineSet
EndChar

StartChar: six
Encoding: 54 54 18
Width: 819
Flags: W
LayerCount: 2
Fore
SplineSet
770 1085 m 1,0,1
 625 1048 625 1048 537.5 990 c 128,-1,2
 450 932 450 932 399 849 c 128,-1,3
 348 766 348 766 320 644 c 1,4,5
 355 668 355 668 378 675 c 0,6,7
 430 691 430 691 483 691 c 0,8,9
 605 691 605 691 686 602.5 c 128,-1,10
 767 514 767 514 767 362 c 0,11,12
 767 254 767 254 723 164.5 c 128,-1,13
 679 75 679 75 598.5 26.5 c 128,-1,14
 518 -22 518 -22 426 -22 c 0,15,16
 326 -22 326 -22 241 32.5 c 128,-1,17
 156 87 156 87 108.5 192.5 c 128,-1,18
 61 298 61 298 61 422 c 0,19,20
 61 605 61 605 148.5 762 c 128,-1,21
 236 919 236 919 397 1012.5 c 128,-1,22
 558 1106 558 1106 770 1107 c 1,23,-1
 770 1085 l 1,0,1
310 579 m 1,24,25
 303 469 303 469 303 418 c 0,26,27
 303 307 303 307 324.5 204 c 128,-1,28
 346 101 346 101 382 59 c 0,29,30
 409 30 409 30 445 30 c 0,31,32
 482 30 482 30 510.5 72.5 c 128,-1,33
 539 115 539 115 539 246 c 0,34,35
 539 467 539 467 486 551 c 0,36,37
 451 606 451 606 393 606 c 0,38,39
 361 606 361 606 310 579 c 1,24,25
EndSplineSet
EndChar

StartChar: seven
Encoding: 55 55 19
Width: 819
Flags: W
LayerCount: 2
Fore
SplineSet
290 -22 m 1,0,-1
 586 873 l 1,1,-1
 361 873 l 2,2,3
 229 873 229 873 162 838 c 0,4,5
 116 814 116 814 86 748 c 1,6,-1
 55 748 l 1,7,-1
 134 1085 l 1,8,-1
 780 1085 l 1,9,-1
 416 -22 l 1,10,-1
 290 -22 l 1,0,-1
EndSplineSet
EndChar

StartChar: eight
Encoding: 56 56 20
Width: 819
Flags: W
LayerCount: 2
Fore
SplineSet
558 613 m 1,0,1
 673 529 673 529 717.5 456.5 c 128,-1,2
 762 384 762 384 762 290 c 0,3,4
 762 159 762 159 663 68.5 c 128,-1,5
 564 -22 564 -22 394 -22 c 0,6,7
 234 -22 234 -22 146 57 c 128,-1,8
 58 136 58 136 58 250 c 0,9,10
 58 338 58 338 108.5 403.5 c 128,-1,11
 159 469 159 469 278 523 c 1,12,13
 149 622 149 622 112.5 684 c 128,-1,14
 76 746 76 746 76 829 c 0,15,16
 76 938 76 938 168.5 1020.5 c 128,-1,17
 261 1103 261 1103 422 1103 c 0,18,19
 577 1103 577 1103 660.5 1030 c 128,-1,20
 744 957 744 957 744 854 c 0,21,22
 744 778 744 778 699 719 c 128,-1,23
 654 660 654 660 558 613 c 1,0,1
498 654 m 1,24,25
 527 694 527 694 541.5 743.5 c 128,-1,26
 556 793 556 793 556 852 c 0,27,28
 556 956 556 956 511 1011 c 0,29,30
 478 1054 478 1054 418 1054 c 0,31,32
 365 1054 365 1054 327.5 1015 c 128,-1,33
 290 976 290 976 290 918 c 256,34,35
 290 860 290 860 332 797 c 128,-1,36
 374 734 374 734 498 654 c 1,24,25
338 485 m 1,37,38
 313 462 313 462 302 444 c 0,39,40
 286 416 286 416 273.5 362.5 c 128,-1,41
 261 309 261 309 261 250 c 0,42,43
 261 175 261 175 280 124.5 c 128,-1,44
 299 74 299 74 334.5 51.5 c 128,-1,45
 370 29 370 29 408 29 c 0,46,47
 466 29 466 29 506 71.5 c 128,-1,48
 546 114 546 114 546 189 c 0,49,50
 546 344 546 344 338 485 c 1,37,38
EndSplineSet
EndChar

StartChar: nine
Encoding: 57 57 21
Width: 819
Flags: W
LayerCount: 2
Fore
SplineSet
50 0 m 1,0,1
 183 30 183 30 275.5 89.5 c 128,-1,2
 368 149 368 149 422 236 c 128,-1,3
 476 323 476 323 498 437 c 1,4,5
 448 411 448 411 413 401 c 128,-1,6
 378 391 378 391 340 391 c 0,7,8
 217 391 217 391 135 480 c 128,-1,9
 53 569 53 569 53 723 c 0,10,11
 53 830 53 830 97.5 919.5 c 128,-1,12
 142 1009 142 1009 224 1058 c 128,-1,13
 306 1107 306 1107 395 1107 c 0,14,15
 490 1107 490 1107 575 1052.5 c 128,-1,16
 660 998 660 998 710.5 895 c 128,-1,17
 761 792 761 792 761 660 c 0,18,19
 761 489 761 489 679 332 c 128,-1,20
 597 175 597 175 434.5 80.5 c 128,-1,21
 272 -14 272 -14 50 -22 c 1,22,-1
 50 0 l 1,0,1
510 504 m 1,23,24
 518 594 518 594 518 662 c 0,25,26
 518 807 518 807 484 933 c 0,27,28
 465 1002 465 1002 427 1035 c 0,29,30
 407 1053 407 1053 375 1053 c 0,31,32
 335 1053 335 1053 313 1018 c 0,33,34
 282 971 282 971 282 838 c 0,35,36
 282 617 282 617 334 533 c 0,37,38
 369 478 369 478 427 478 c 0,39,40
 458 478 458 478 510 504 c 1,23,24
EndSplineSet
EndChar

StartChar: less
Encoding: 60 60 22
Width: 1117
Flags: W
LayerCount: 2
Fore
SplineSet
955 58 m 1,0,-1
 150 444 l 1,1,-1
 150 534 l 1,2,-1
 955 918 l 1,3,-1
 955 784 l 1,4,-1
 331 489 l 1,5,-1
 955 192 l 1,6,-1
 955 58 l 1,0,-1
EndSplineSet
EndChar

StartChar: equal
Encoding: 61 61 23
Width: 995
Flags: W
LayerCount: 2
Fore
SplineSet
863 556 m 1,0,-1
 144 556 l 1,1,-1
 144 676 l 1,2,-1
 863 676 l 1,3,-1
 863 556 l 1,0,-1
863 291 m 1,4,-1
 144 291 l 1,5,-1
 144 411 l 1,6,-1
 863 411 l 1,7,-1
 863 291 l 1,4,-1
EndSplineSet
EndChar

StartChar: greater
Encoding: 62 62 24
Width: 1117
Flags: W
LayerCount: 2
Fore
SplineSet
966 444 m 1,0,-1
 160 58 l 1,1,-1
 160 192 l 1,2,-1
 786 489 l 1,3,-1
 160 784 l 1,4,-1
 160 918 l 1,5,-1
 966 534 l 1,6,-1
 966 444 l 1,0,-1
EndSplineSet
EndChar

StartChar: question
Encoding: 63 63 25
Width: 819
Flags: W
LayerCount: 2
Fore
SplineSet
389 354 m 1,0,-1
 356 354 l 1,1,2
 354 442 354 442 364 486 c 128,-1,3
 374 530 374 530 416 607.5 c 128,-1,4
 458 685 458 685 471.5 731.5 c 128,-1,5
 485 778 485 778 485 847 c 0,6,7
 485 954 485 954 443.5 1004 c 128,-1,8
 402 1054 402 1054 345 1054 c 0,9,10
 302 1054 302 1054 272 1031 c 0,11,12
 250 1014 250 1014 250 994 c 0,13,14
 250 982 250 982 265 954 c 0,15,16
 299 893 299 893 299 850 c 0,17,18
 299 810 299 810 272.5 784 c 128,-1,19
 246 758 246 758 206 758 c 0,20,21
 161 758 161 758 130.5 789.5 c 128,-1,22
 100 821 100 821 100 873 c 0,23,24
 100 967 100 967 181.5 1038.5 c 128,-1,25
 263 1110 263 1110 410 1110 c 0,26,27
 565 1110 565 1110 646 1036 c 128,-1,28
 727 962 727 962 727 857 c 0,29,30
 727 781 727 781 685.5 716.5 c 128,-1,31
 644 652 644 652 525 574 c 0,32,33
 445 521 445 521 419.5 479.5 c 128,-1,34
 394 438 394 438 389 354 c 1,0,-1
380 237 m 256,35,36
 434 237 434 237 471.5 199.5 c 128,-1,37
 509 162 509 162 509 108 c 256,38,39
 509 54 509 54 471.5 16 c 128,-1,40
 434 -22 434 -22 380 -22 c 256,41,42
 326 -22 326 -22 288.5 16 c 128,-1,43
 251 54 251 54 251 108 c 256,44,45
 251 162 251 162 288.5 199.5 c 128,-1,46
 326 237 326 237 380 237 c 256,35,36
EndSplineSet
EndChar

StartChar: at
Encoding: 64 64 26
Width: 1524
Flags: W
LayerCount: 2
Fore
SplineSet
943 740 m 1,0,-1
 1138 748 l 1,1,-1
 992 246 l 2,2,3
 967 162 967 162 967 121 c 0,4,5
 967 95 967 95 986 76.5 c 128,-1,6
 1005 58 1005 58 1032 58 c 0,7,8
 1087 58 1087 58 1174.5 121.5 c 128,-1,9
 1262 185 1262 185 1319.5 303 c 128,-1,10
 1377 421 1377 421 1377 554 c 0,11,12
 1377 775 1377 775 1235 917 c 128,-1,13
 1093 1059 1093 1059 865 1059 c 0,14,15
 668 1059 668 1059 507 966.5 c 128,-1,16
 346 874 346 874 252 698 c 128,-1,17
 158 522 158 522 158 321 c 0,18,19
 158 44 158 44 334 -132.5 c 128,-1,20
 510 -309 510 -309 783 -309 c 0,21,22
 1008 -309 1008 -309 1186.5 -188 c 128,-1,23
 1365 -67 1365 -67 1439 132 c 1,24,-1
 1488 132 l 1,25,26
 1392 -103 1392 -103 1208.5 -228.5 c 128,-1,27
 1025 -354 1025 -354 782 -354 c 0,28,29
 474 -354 474 -354 274 -155 c 128,-1,30
 74 44 74 44 74 349 c 0,31,32
 74 558 74 558 173 737 c 128,-1,33
 272 916 272 916 451 1013 c 128,-1,34
 630 1110 630 1110 848 1110 c 0,35,36
 1025 1110 1025 1110 1157.5 1039 c 128,-1,37
 1290 968 1290 968 1356 840 c 128,-1,38
 1422 712 1422 712 1422 570 c 0,39,40
 1422 404 1422 404 1350.5 267 c 128,-1,41
 1279 130 1279 130 1172.5 65 c 128,-1,42
 1066 0 1066 0 942 0 c 0,43,44
 863 0 863 0 821.5 39 c 128,-1,45
 780 78 780 78 780 140 c 0,46,47
 780 183 780 183 799 253 c 1,48,49
 733 142 733 142 696 100 c 0,50,51
 646 43 646 43 596 17 c 0,52,53
 564 0 564 0 523 0 c 0,54,55
 466 0 466 0 427.5 45 c 128,-1,56
 389 90 389 90 389 178 c 0,57,58
 389 267 389 267 415 353 c 128,-1,59
 441 439 441 439 485.5 514.5 c 128,-1,60
 530 590 530 590 589 650 c 128,-1,61
 648 710 648 710 722 750 c 0,62,63
 759 770 759 770 802 770 c 0,64,65
 847 770 847 770 876.5 742 c 128,-1,66
 906 714 906 714 916 645 c 1,67,-1
 943 740 l 1,0,-1
822 713 m 0,68,69
 792 713 792 713 762 679 c 0,70,71
 722 634 722 634 677 527 c 0,72,73
 595 336 595 336 595 220 c 0,74,75
 595 185 595 185 610 165.5 c 128,-1,76
 625 146 625 146 642 146 c 0,77,78
 658 146 658 146 686 169 c 0,79,80
 727 200 727 200 773.5 274.5 c 128,-1,81
 820 349 820 349 849.5 439.5 c 128,-1,82
 879 530 879 530 879 607 c 0,83,84
 879 662 879 662 858 691 c 0,85,86
 843 713 843 713 822 713 c 0,68,69
EndSplineSet
EndChar

StartChar: A
Encoding: 65 65 27
Width: 1183
Flags: W
LayerCount: 2
Fore
SplineSet
682 309 m 1,0,-1
 298 309 l 1,1,-1
 253 203 l 2,2,3
 230 150 230 150 230 116 c 0,4,5
 230 70 230 70 267 49 c 0,6,7
 289 36 289 36 374 30 c 1,8,-1
 374 0 l 1,9,-1
 13 0 l 1,10,-1
 13 30 l 1,11,12
 71 38 71 38 108.5 78 c 128,-1,13
 146 118 146 118 202 242 c 2,14,-1
 590 1107 l 1,15,-1
 605 1107 l 1,16,-1
 996 218 l 2,17,18
 1052 91 1052 91 1088 58 c 0,19,20
 1115 34 1115 34 1165 30 c 1,21,-1
 1165 0 l 1,22,-1
 640 0 l 1,23,-1
 640 30 l 1,24,-1
 662 30 l 2,25,26
 725 30 725 30 750 47 c 0,27,28
 768 60 768 60 768 84 c 0,29,30
 768 98 768 98 763 114 c 0,31,32
 762 121 762 121 739 174 c 2,33,-1
 682 309 l 1,0,-1
654 368 m 1,34,-1
 493 742 l 1,35,-1
 326 368 l 1,36,-1
 654 368 l 1,34,-1
EndSplineSet
EndChar

StartChar: B
Encoding: 66 66 28
Width: 1093
Flags: W
LayerCount: 2
Fore
SplineSet
729 575 m 1,0,1
 883 539 883 539 946 488 c 0,2,3
 1035 415 1035 415 1035 299 c 0,4,5
 1035 177 1035 177 937 97 c 0,6,7
 816 0 816 0 586 0 c 2,8,-1
 34 0 l 1,9,-1
 34 30 l 1,10,11
 110 30 110 30 136.5 44 c 128,-1,12
 163 58 163 58 174 80 c 128,-1,13
 185 102 185 102 185 190 c 2,14,-1
 185 894 l 2,15,16
 185 982 185 982 174 1005 c 128,-1,17
 163 1028 163 1028 136 1041.5 c 128,-1,18
 109 1055 109 1055 34 1055 c 1,19,-1
 34 1085 l 1,20,-1
 554 1085 l 2,21,22
 741 1085 741 1085 818.5 1051.5 c 128,-1,23
 896 1018 896 1018 941 952 c 128,-1,24
 986 886 986 886 986 812 c 0,25,26
 986 734 986 734 929 672.5 c 128,-1,27
 872 611 872 611 729 575 c 1,0,1
438 597 m 1,28,29
 551 597 551 597 605 622.5 c 128,-1,30
 659 648 659 648 688 694.5 c 128,-1,31
 717 741 717 741 717 813 c 256,32,33
 717 885 717 885 688.5 931 c 128,-1,34
 660 977 660 977 607 1001 c 128,-1,35
 554 1025 554 1025 438 1024 c 1,36,-1
 438 597 l 1,28,29
438 534 m 1,37,-1
 438 186 l 1,38,-1
 437 146 l 2,39,40
 437 103 437 103 459 81 c 128,-1,41
 481 59 481 59 524 59 c 0,42,43
 588 59 588 59 642 87.5 c 128,-1,44
 696 116 696 116 725 170 c 128,-1,45
 754 224 754 224 754 290 c 0,46,47
 754 366 754 366 718.5 426.5 c 128,-1,48
 683 487 683 487 621.5 511 c 128,-1,49
 560 535 560 535 438 534 c 1,37,-1
EndSplineSet
EndChar

StartChar: C
Encoding: 67 67 29
Width: 1183
Flags: W
LayerCount: 2
Fore
SplineSet
1094 1110 m 1,0,-1
 1094 734 l 1,1,-1
 1062 734 l 1,2,3
 1027 881 1027 881 931 959.5 c 128,-1,4
 835 1038 835 1038 714 1038 c 0,5,6
 612 1038 612 1038 527 979.5 c 128,-1,7
 442 921 442 921 403 826 c 0,8,9
 353 706 353 706 353 558 c 0,10,11
 353 412 353 412 389.5 292.5 c 128,-1,12
 426 173 426 173 504.5 111.5 c 128,-1,13
 583 50 583 50 708 50 c 0,14,15
 810 50 810 50 895.5 95 c 128,-1,16
 981 140 981 140 1075 250 c 1,17,-1
 1075 156 l 1,18,19
 984 61 984 61 885 18 c 128,-1,20
 786 -25 786 -25 654 -25 c 0,21,22
 481 -25 481 -25 346 44.5 c 128,-1,23
 211 114 211 114 138 244.5 c 128,-1,24
 65 375 65 375 65 522 c 0,25,26
 65 678 65 678 146 817 c 128,-1,27
 227 956 227 956 365 1033 c 128,-1,28
 503 1110 503 1110 658 1110 c 0,29,30
 773 1110 773 1110 900 1060 c 0,31,32
 974 1031 974 1031 994 1031 c 0,33,34
 1019 1031 1019 1031 1038 1050 c 128,-1,35
 1057 1069 1057 1069 1062 1110 c 1,36,-1
 1094 1110 l 1,0,-1
EndSplineSet
EndChar

StartChar: D
Encoding: 68 68 30
Width: 1183
Flags: W
LayerCount: 2
Fore
SplineSet
22 0 m 1,0,-1
 22 30 l 1,1,-1
 58 30 l 2,2,3
 105 30 105 30 130 44.5 c 128,-1,4
 155 59 155 59 167 85 c 0,5,6
 174 102 174 102 174 186 c 2,7,-1
 174 899 l 2,8,9
 174 982 174 982 165.5 1003 c 128,-1,10
 157 1024 157 1024 130 1039.5 c 128,-1,11
 103 1055 103 1055 58 1055 c 2,12,-1
 22 1055 l 1,13,-1
 22 1085 l 1,14,-1
 507 1085 l 2,15,16
 702 1085 702 1085 820 1032 c 0,17,18
 965 967 965 967 1039.5 836 c 128,-1,19
 1114 705 1114 705 1114 539 c 0,20,21
 1114 425 1114 425 1077.5 328.5 c 128,-1,22
 1041 232 1041 232 982.5 169 c 128,-1,23
 924 106 924 106 847.5 68 c 128,-1,24
 771 30 771 30 661 10 c 0,25,26
 612 0 612 0 507 0 c 2,27,-1
 22 0 l 1,0,-1
435 1023 m 1,28,-1
 435 177 l 2,29,30
 435 110 435 110 441.5 94.5 c 128,-1,31
 448 79 448 79 463 71 c 0,32,33
 485 59 485 59 526 59 c 0,34,35
 659 59 659 59 730 150 c 0,36,37
 826 274 826 274 826 533 c 0,38,39
 826 742 826 742 760 866 c 0,40,41
 708 964 708 964 626 999 c 0,42,43
 569 1024 569 1024 435 1023 c 1,28,-1
EndSplineSet
EndChar

StartChar: E
Encoding: 69 69 31
Width: 1093
Flags: W
LayerCount: 2
Fore
SplineSet
446 1022 m 1,0,-1
 446 581 l 1,1,-1
 468 581 l 2,2,3
 571 581 571 581 617.5 645.5 c 128,-1,4
 664 710 664 710 677 837 c 1,5,-1
 707 837 l 1,6,-1
 707 269 l 1,7,-1
 677 269 l 1,8,9
 667 362 667 362 636.5 421 c 128,-1,10
 606 480 606 480 565 500.5 c 128,-1,11
 524 521 524 521 446 521 c 1,12,-1
 446 215 l 2,13,14
 446 126 446 126 454 106 c 128,-1,15
 462 86 462 86 482.5 73 c 128,-1,16
 503 60 503 60 550 60 c 2,17,-1
 614 60 l 2,18,19
 766 60 766 60 858 130.5 c 128,-1,20
 950 201 950 201 990 345 c 1,21,-1
 1019 345 l 1,22,-1
 970 0 l 1,23,-1
 33 0 l 1,24,-1
 33 30 l 1,25,-1
 69 30 l 2,26,27
 116 30 116 30 145 46 c 0,28,29
 166 58 166 58 177 85 c 0,30,31
 186 104 186 104 186 186 c 2,32,-1
 186 899 l 2,33,34
 186 973 186 973 182 990 c 0,35,36
 174 1018 174 1018 152 1033 c 0,37,38
 122 1055 122 1055 69 1055 c 2,39,-1
 33 1055 l 1,40,-1
 33 1085 l 1,41,-1
 941 1085 l 1,42,-1
 941 764 l 1,43,-1
 910 764 l 1,44,45
 887 882 887 882 845 933 c 128,-1,46
 803 984 803 984 726 1008 c 0,47,48
 682 1022 682 1022 558 1022 c 2,49,-1
 446 1022 l 1,0,-1
EndSplineSet
EndChar

StartChar: F
Encoding: 70 70 32
Width: 1001
Flags: W
LayerCount: 2
Fore
SplineSet
450 1022 m 1,0,-1
 450 577 l 1,1,-1
 482 577 l 2,2,3
 554 577 554 577 599.5 598.5 c 128,-1,4
 645 620 645 620 676.5 671 c 128,-1,5
 708 722 708 722 718 810 c 1,6,-1
 746 810 l 1,7,-1
 746 265 l 1,8,-1
 718 265 l 1,9,10
 702 419 702 419 634.5 468.5 c 128,-1,11
 567 518 567 518 482 518 c 2,12,-1
 450 518 l 1,13,-1
 450 186 l 2,14,15
 450 102 450 102 459.5 81.5 c 128,-1,16
 469 61 469 61 495.5 45.5 c 128,-1,17
 522 30 522 30 568 30 c 2,18,-1
 604 30 l 1,19,-1
 604 0 l 1,20,-1
 37 0 l 1,21,-1
 37 30 l 1,22,-1
 73 30 l 2,23,24
 120 30 120 30 149 46 c 0,25,26
 170 58 170 58 181 85 c 0,27,28
 190 104 190 104 190 186 c 2,29,-1
 190 899 l 2,30,31
 190 982 190 982 181 1003 c 128,-1,32
 172 1024 172 1024 145 1039.5 c 128,-1,33
 118 1055 118 1055 73 1055 c 2,34,-1
 37 1055 l 1,35,-1
 37 1085 l 1,36,-1
 952 1085 l 1,37,-1
 952 774 l 1,38,-1
 919 774 l 1,39,40
 908 883 908 883 862 936 c 128,-1,41
 816 989 816 989 729 1010 c 0,42,43
 681 1022 681 1022 551 1022 c 2,44,-1
 450 1022 l 1,0,-1
EndSplineSet
EndChar

StartChar: G
Encoding: 71 71 33
Width: 1274
Flags: W
LayerCount: 2
Fore
SplineSet
1130 1110 m 1,0,-1
 1130 727 l 1,1,-1
 1101 727 l 1,2,3
 1047 884 1047 884 940 965.5 c 128,-1,4
 833 1047 833 1047 706 1047 c 0,5,6
 584 1047 584 1047 503 978.5 c 128,-1,7
 422 910 422 910 388.5 788 c 128,-1,8
 355 666 355 666 355 537 c 0,9,10
 355 381 355 381 392 263.5 c 128,-1,11
 429 146 429 146 511 90.5 c 128,-1,12
 593 35 593 35 706 35 c 0,13,14
 745 35 745 35 786 43.5 c 128,-1,15
 827 52 827 52 870 68 c 1,16,-1
 870 294 l 2,17,18
 870 358 870 358 861.5 376.5 c 128,-1,19
 853 395 853 395 825.5 410.5 c 128,-1,20
 798 426 798 426 758 426 c 2,21,-1
 730 426 l 1,22,-1
 730 455 l 1,23,-1
 1258 455 l 1,24,-1
 1258 426 l 1,25,26
 1198 422 1198 422 1174 409.5 c 128,-1,27
 1150 397 1150 397 1138 368 c 0,28,29
 1130 353 1130 353 1130 294 c 2,30,-1
 1130 68 l 1,31,32
 1026 22 1026 22 914 -2 c 128,-1,33
 802 -26 802 -26 681 -26 c 0,34,35
 526 -26 526 -26 424 16 c 128,-1,36
 322 58 322 58 244 126.5 c 128,-1,37
 166 195 166 195 122 281 c 0,38,39
 66 391 66 391 66 528 c 0,40,41
 66 773 66 773 238 941.5 c 128,-1,42
 410 1110 410 1110 671 1110 c 0,43,44
 752 1110 752 1110 817 1098 c 0,45,46
 852 1091 852 1091 931 1061 c 128,-1,47
 1010 1031 1010 1031 1024 1031 c 0,48,49
 1046 1031 1046 1031 1065.5 1047.5 c 128,-1,50
 1085 1064 1085 1064 1101 1110 c 1,51,-1
 1130 1110 l 1,0,-1
EndSplineSet
EndChar

StartChar: H
Encoding: 72 72 34
Width: 1274
Flags: W
LayerCount: 2
Fore
SplineSet
448 522 m 1,0,-1
 448 186 l 2,1,2
 448 102 448 102 457 81.5 c 128,-1,3
 466 61 466 61 493 45.5 c 128,-1,4
 520 30 520 30 566 30 c 2,5,-1
 602 30 l 1,6,-1
 602 0 l 1,7,-1
 34 0 l 1,8,-1
 34 30 l 1,9,-1
 70 30 l 2,10,11
 118 30 118 30 146 46 c 0,12,13
 167 58 167 58 178 85 c 0,14,15
 187 104 187 104 187 186 c 2,16,-1
 187 899 l 2,17,18
 187 982 187 982 178.5 1003 c 128,-1,19
 170 1024 170 1024 143 1039.5 c 128,-1,20
 116 1055 116 1055 70 1055 c 2,21,-1
 34 1055 l 1,22,-1
 34 1085 l 1,23,-1
 602 1085 l 1,24,-1
 602 1055 l 1,25,-1
 566 1055 l 2,26,27
 518 1055 518 1055 490 1038 c 0,28,29
 469 1027 469 1027 457 1000 c 0,30,31
 448 981 448 981 448 899 c 2,32,-1
 448 592 l 1,33,-1
 831 592 l 1,34,-1
 831 899 l 2,35,36
 831 982 831 982 822.5 1003 c 128,-1,37
 814 1024 814 1024 786.5 1039.5 c 128,-1,38
 759 1055 759 1055 714 1055 c 2,39,-1
 678 1055 l 1,40,-1
 678 1085 l 1,41,-1
 1245 1085 l 1,42,-1
 1245 1055 l 1,43,-1
 1210 1055 l 2,44,45
 1162 1055 1162 1055 1134 1038 c 0,46,47
 1113 1027 1113 1027 1101 1000 c 0,48,49
 1092 981 1092 981 1092 899 c 2,50,-1
 1092 186 l 2,51,52
 1092 102 1092 102 1101 81.5 c 128,-1,53
 1110 61 1110 61 1137 45.5 c 128,-1,54
 1164 30 1164 30 1210 30 c 2,55,-1
 1245 30 l 1,56,-1
 1245 0 l 1,57,-1
 678 0 l 1,58,-1
 678 30 l 1,59,-1
 714 30 l 2,60,61
 762 30 762 30 790 46 c 0,62,63
 810 58 810 58 822 85 c 0,64,65
 831 104 831 104 831 186 c 2,66,-1
 831 522 l 1,67,-1
 448 522 l 1,0,-1
EndSplineSet
EndChar

StartChar: I
Encoding: 73 73 35
Width: 638
Flags: W
LayerCount: 2
Fore
SplineSet
600 30 m 1,0,-1
 600 0 l 1,1,-1
 33 0 l 1,2,-1
 33 30 l 1,3,-1
 69 30 l 2,4,5
 116 30 116 30 145 46 c 0,6,7
 166 58 166 58 177 85 c 0,8,9
 186 104 186 104 186 186 c 2,10,-1
 186 899 l 2,11,12
 186 982 186 982 177 1003 c 128,-1,13
 168 1024 168 1024 141 1039.5 c 128,-1,14
 114 1055 114 1055 69 1055 c 2,15,-1
 33 1055 l 1,16,-1
 33 1085 l 1,17,-1
 600 1085 l 1,18,-1
 600 1055 l 1,19,-1
 564 1055 l 2,20,21
 517 1055 517 1055 488 1038 c 0,22,23
 467 1027 467 1027 455 1000 c 0,24,25
 446 981 446 981 446 899 c 2,26,-1
 446 186 l 2,27,28
 446 102 446 102 455.5 81.5 c 128,-1,29
 465 61 465 61 491.5 45.5 c 128,-1,30
 518 30 518 30 564 30 c 2,31,-1
 600 30 l 1,0,-1
EndSplineSet
EndChar

StartChar: J
Encoding: 74 74 36
Width: 819
Flags: W
LayerCount: 2
Fore
SplineSet
233 1055 m 1,0,-1
 233 1085 l 1,1,-1
 810 1085 l 1,2,-1
 810 1055 l 1,3,-1
 774 1055 l 2,4,5
 726 1055 726 1055 698 1038 c 0,6,7
 678 1027 678 1027 666 1000 c 0,8,9
 657 981 657 981 657 899 c 2,10,-1
 657 368 l 2,11,12
 657 212 657 212 625.5 141 c 128,-1,13
 594 70 594 70 514.5 22.5 c 128,-1,14
 435 -25 435 -25 323 -25 c 0,15,16
 186 -25 186 -25 102 47 c 128,-1,17
 18 119 18 119 18 206 c 0,18,19
 18 262 18 262 52 297 c 128,-1,20
 86 332 86 332 136 332 c 0,21,22
 185 332 185 332 218 301 c 128,-1,23
 251 270 251 270 251 224 c 0,24,25
 251 202 251 202 246 185 c 0,26,27
 242 177 242 177 220 144.5 c 128,-1,28
 198 112 198 112 198 98 c 0,29,30
 198 78 198 78 219 62 c 0,31,32
 250 40 250 40 298 40 c 0,33,34
 333 40 333 40 355.5 57.5 c 128,-1,35
 378 75 378 75 387 112.5 c 128,-1,36
 396 150 396 150 396 319 c 2,37,-1
 396 899 l 2,38,39
 396 982 396 982 387 1003 c 128,-1,40
 378 1024 378 1024 351 1039.5 c 128,-1,41
 324 1055 324 1055 278 1055 c 2,42,-1
 233 1055 l 1,0,-1
EndSplineSet
EndChar

StartChar: K
Encoding: 75 75 37
Width: 1274
Flags: W
LayerCount: 2
Fore
SplineSet
682 670 m 1,0,-1
 1064 192 l 2,1,2
 1145 91 1145 91 1203 55 c 0,3,4
 1246 30 1246 30 1293 30 c 1,5,-1
 1293 0 l 1,6,-1
 728 0 l 1,7,-1
 728 30 l 1,8,9
 782 34 782 34 797.5 46 c 128,-1,10
 813 58 813 58 813 76 c 0,11,12
 813 110 813 110 739 202 c 2,13,-1
 490 515 l 1,14,-1
 450 482 l 1,15,-1
 450 186 l 2,16,17
 450 101 450 101 460 80 c 128,-1,18
 470 59 470 59 497 44.5 c 128,-1,19
 524 30 524 30 584 30 c 1,20,-1
 584 0 l 1,21,-1
 37 0 l 1,22,-1
 37 30 l 1,23,-1
 73 30 l 2,24,25
 120 30 120 30 149 46 c 0,26,27
 170 58 170 58 181 85 c 0,28,29
 190 104 190 104 190 186 c 2,30,-1
 190 899 l 2,31,32
 190 982 190 982 181 1003 c 128,-1,33
 172 1024 172 1024 145 1039.5 c 128,-1,34
 118 1055 118 1055 73 1055 c 2,35,-1
 37 1055 l 1,36,-1
 37 1085 l 1,37,-1
 577 1085 l 1,38,-1
 577 1055 l 1,39,40
 522 1055 522 1055 493 1039 c 0,41,42
 472 1028 472 1028 460 1002 c 0,43,44
 450 982 450 982 450 899 c 2,45,-1
 450 562 l 1,46,-1
 853 887 l 2,47,48
 937 955 937 955 937 996 c 0,49,50
 937 1026 937 1026 902 1044 c 0,51,52
 885 1053 885 1053 815 1055 c 1,53,-1
 815 1085 l 1,54,-1
 1238 1085 l 1,55,-1
 1238 1055 l 1,56,57
 1182 1051 1182 1051 1149.5 1034.5 c 128,-1,58
 1117 1018 1117 1018 1000 924 c 2,59,-1
 682 670 l 1,0,-1
EndSplineSet
EndChar

StartChar: L
Encoding: 76 76 38
Width: 1093
Flags: W
LayerCount: 2
Fore
SplineSet
1034 381 m 1,0,-1
 994 0 l 1,1,-1
 30 0 l 1,2,-1
 30 30 l 1,3,-1
 66 30 l 2,4,5
 114 30 114 30 142 46 c 0,6,7
 163 58 163 58 174 85 c 0,8,9
 183 104 183 104 183 186 c 2,10,-1
 183 899 l 2,11,12
 183 982 183 982 174.5 1003 c 128,-1,13
 166 1024 166 1024 139 1039.5 c 128,-1,14
 112 1055 112 1055 66 1055 c 2,15,-1
 30 1055 l 1,16,-1
 30 1085 l 1,17,-1
 609 1085 l 1,18,-1
 609 1055 l 1,19,-1
 562 1055 l 2,20,21
 514 1055 514 1055 486 1038 c 0,22,23
 465 1027 465 1027 453 1000 c 0,24,25
 444 981 444 981 444 899 c 2,26,-1
 444 208 l 2,27,28
 444 125 444 125 453.5 102 c 128,-1,29
 463 79 463 79 491 68 c 0,30,31
 511 61 511 61 588 61 c 2,32,-1
 678 61 l 2,33,34
 765 61 765 61 822.5 91.5 c 128,-1,35
 880 122 880 122 922 187.5 c 128,-1,36
 964 253 964 253 1002 381 c 1,37,-1
 1034 381 l 1,0,-1
EndSplineSet
EndChar

StartChar: M
Encoding: 77 77 39
Width: 1546
Flags: W
LayerCount: 2
Fore
SplineSet
781 370 m 1,0,-1
 1075 1085 l 1,1,-1
 1517 1085 l 1,2,-1
 1517 1055 l 1,3,-1
 1482 1055 l 2,4,5
 1434 1055 1434 1055 1405 1038 c 0,6,7
 1385 1027 1385 1027 1373 1001 c 0,8,9
 1364 982 1364 982 1364 901 c 2,10,-1
 1364 186 l 2,11,12
 1364 102 1364 102 1373 81.5 c 128,-1,13
 1382 61 1382 61 1409 45.5 c 128,-1,14
 1436 30 1436 30 1482 30 c 2,15,-1
 1517 30 l 1,16,-1
 1517 0 l 1,17,-1
 950 0 l 1,18,-1
 950 30 l 1,19,-1
 986 30 l 2,20,21
 1034 30 1034 30 1062 46 c 0,22,23
 1082 58 1082 58 1094 85 c 0,24,25
 1103 104 1103 104 1103 186 c 2,26,-1
 1103 990 l 1,27,-1
 687 0 l 1,28,-1
 668 0 l 1,29,-1
 246 982 l 1,30,-1
 246 218 l 2,31,32
 246 138 246 138 250 120 c 0,33,34
 260 80 260 80 295 55 c 128,-1,35
 330 30 330 30 404 30 c 1,36,-1
 404 0 l 1,37,-1
 33 0 l 1,38,-1
 33 30 l 1,39,-1
 44 30 l 2,40,41
 80 29 80 29 111 41.5 c 128,-1,42
 142 54 142 54 158 74.5 c 128,-1,43
 174 95 174 95 183 133 c 0,44,45
 185 142 185 142 185 214 c 2,46,-1
 185 901 l 2,47,48
 185 983 185 983 176 1003.5 c 128,-1,49
 167 1024 167 1024 140 1039.5 c 128,-1,50
 113 1055 113 1055 67 1055 c 2,51,-1
 33 1055 l 1,52,-1
 33 1085 l 1,53,-1
 476 1085 l 1,54,-1
 781 370 l 1,0,-1
EndSplineSet
EndChar

StartChar: N
Encoding: 78 78 40
Width: 1183
Flags: W
LayerCount: 2
Fore
SplineSet
408 1085 m 1,0,-1
 943 412 l 1,1,-1
 943 878 l 2,2,3
 943 976 943 976 915 1010 c 0,4,5
 877 1057 877 1057 786 1055 c 1,6,-1
 786 1085 l 1,7,-1
 1145 1085 l 1,8,-1
 1145 1055 l 1,9,10
 1076 1046 1076 1046 1052.5 1032 c 128,-1,11
 1029 1018 1029 1018 1015.5 986.5 c 128,-1,12
 1002 955 1002 955 1002 878 c 2,13,-1
 1002 -25 l 1,14,-1
 975 -25 l 1,15,-1
 242 878 l 1,16,-1
 242 189 l 2,17,18
 242 95 242 95 284.5 62.5 c 128,-1,19
 327 30 327 30 382 30 c 2,20,-1
 408 30 l 1,21,-1
 408 0 l 1,22,-1
 23 0 l 1,23,-1
 23 30 l 1,24,25
 113 30 113 30 148 66 c 128,-1,26
 183 102 183 102 183 189 c 2,27,-1
 183 954 l 1,28,-1
 160 983 l 2,29,30
 126 1026 126 1026 99.5 1040 c 128,-1,31
 73 1054 73 1054 23 1055 c 1,32,-1
 23 1085 l 1,33,-1
 408 1085 l 1,0,-1
EndSplineSet
EndChar

StartChar: O
Encoding: 79 79 41
Width: 1274
Flags: W
LayerCount: 2
Fore
SplineSet
633 1100 m 1,0,1
 892 1110 892 1110 1054 949 c 128,-1,2
 1216 788 1216 788 1216 546 c 0,3,4
 1216 340 1216 340 1095 183 c 0,5,6
 935 -25 935 -25 643 -25 c 0,7,8
 350 -25 350 -25 190 174 c 0,9,10
 64 330 64 330 64 546 c 0,11,12
 64 787 64 787 228.5 948.5 c 128,-1,13
 393 1110 393 1110 633 1100 c 1,0,1
642 1049 m 0,14,15
 494 1049 494 1049 416 897 c 0,16,17
 353 772 353 772 353 538 c 0,18,19
 353 261 353 261 450 128 c 0,20,21
 518 35 518 35 641 35 c 0,22,23
 723 35 723 35 778 75 c 0,24,25
 849 126 849 126 888 238.5 c 128,-1,26
 927 351 927 351 927 532 c 0,27,28
 927 747 927 747 887 854 c 128,-1,29
 847 961 847 961 785 1005 c 128,-1,30
 723 1049 723 1049 642 1049 c 0,14,15
EndSplineSet
EndChar

StartChar: P
Encoding: 80 80 42
Width: 1001
Flags: W
LayerCount: 2
Fore
SplineSet
442 491 m 1,0,-1
 442 190 l 2,1,2
 442 102 442 102 453 79.5 c 128,-1,3
 464 57 464 57 491.5 43.5 c 128,-1,4
 519 30 519 30 593 30 c 1,5,-1
 593 0 l 1,6,-1
 42 0 l 1,7,-1
 42 30 l 1,8,9
 117 30 117 30 143.5 44 c 128,-1,10
 170 58 170 58 181 80 c 128,-1,11
 192 102 192 102 192 190 c 2,12,-1
 192 894 l 2,13,14
 192 982 192 982 181 1005 c 128,-1,15
 170 1028 170 1028 143 1041.5 c 128,-1,16
 116 1055 116 1055 42 1055 c 1,17,-1
 42 1085 l 1,18,-1
 514 1085 l 2,19,20
 748 1085 748 1085 849.5 1001.5 c 128,-1,21
 951 918 951 918 951 794 c 0,22,23
 951 688 951 688 885.5 613 c 128,-1,24
 820 538 820 538 705 510 c 0,25,26
 627 491 627 491 442 491 c 1,0,-1
442 1022 m 1,27,-1
 442 554 l 1,28,29
 469 552 469 552 482 552 c 0,30,31
 580 552 580 552 633 610 c 128,-1,32
 686 668 686 668 686 790 c 0,33,34
 686 910 686 910 633 966 c 128,-1,35
 580 1022 580 1022 475 1022 c 2,36,-1
 442 1022 l 1,27,-1
EndSplineSet
EndChar

StartChar: Q
Encoding: 81 81 43
Width: 1274
Flags: W
LayerCount: 2
Fore
SplineSet
783 -10 m 1,0,1
 820 -116 820 -116 897.5 -169.5 c 128,-1,2
 975 -223 975 -223 1092 -223 c 0,3,4
 1124 -223 1124 -223 1160 -217 c 1,5,-1
 1160 -266 l 1,6,7
 1039 -296 1039 -296 944 -296 c 0,8,9
 795 -296 795 -296 678 -223 c 128,-1,10
 561 -150 561 -150 502 -10 c 1,11,12
 305 32 305 32 184.5 183 c 128,-1,13
 64 334 64 334 64 544 c 0,14,15
 64 787 64 787 227 948.5 c 128,-1,16
 390 1110 390 1110 642 1110 c 0,17,18
 892 1110 892 1110 1054.5 948 c 128,-1,19
 1217 786 1217 786 1217 544 c 0,20,21
 1217 333 1217 333 1089.5 177 c 128,-1,22
 962 21 962 21 783 -10 c 1,0,1
641 1049 m 0,23,24
 497 1049 497 1049 418 899 c 0,25,26
 353 774 353 774 353 542 c 0,27,28
 353 263 353 263 451 129 c 0,29,30
 520 35 520 35 641 35 c 256,31,32
 762 35 762 35 830 127 c 0,33,34
 929 259 929 259 929 524 c 0,35,36
 929 785 929 785 867 902 c 0,37,38
 790 1049 790 1049 641 1049 c 0,23,24
EndSplineSet
EndChar

StartChar: R
Encoding: 82 82 44
Width: 1183
Flags: W
LayerCount: 2
Fore
SplineSet
435 494 m 1,0,-1
 435 190 l 2,1,2
 435 102 435 102 446 79.5 c 128,-1,3
 457 57 457 57 484 43.5 c 128,-1,4
 511 30 511 30 586 30 c 1,5,-1
 586 0 l 1,6,-1
 30 0 l 1,7,-1
 30 30 l 1,8,9
 106 30 106 30 132.5 44 c 128,-1,10
 159 58 159 58 170 80 c 128,-1,11
 181 102 181 102 181 190 c 2,12,-1
 181 894 l 2,13,14
 181 982 181 982 170 1005 c 128,-1,15
 159 1028 159 1028 132 1041.5 c 128,-1,16
 105 1055 105 1055 30 1055 c 1,17,-1
 30 1085 l 1,18,-1
 534 1085 l 2,19,20
 731 1085 731 1085 822.5 1057.5 c 128,-1,21
 914 1030 914 1030 971.5 957 c 128,-1,22
 1029 884 1029 884 1029 786 c 0,23,24
 1029 666 1029 666 942 587 c 0,25,26
 887 538 887 538 788 513 c 1,27,-1
 1049 146 l 2,28,29
 1100 74 1100 74 1122 57 c 0,30,31
 1154 32 1154 32 1198 30 c 1,32,-1
 1198 0 l 1,33,-1
 856 0 l 1,34,-1
 506 494 l 1,35,-1
 435 494 l 1,0,-1
435 1026 m 1,36,-1
 435 551 l 1,37,-1
 481 551 l 2,38,39
 592 551 592 551 647 571.5 c 128,-1,40
 702 592 702 592 734 645 c 128,-1,41
 766 698 766 698 766 784 c 0,42,43
 766 908 766 908 708 967 c 128,-1,44
 650 1026 650 1026 521 1026 c 2,45,-1
 435 1026 l 1,36,-1
EndSplineSet
EndChar

StartChar: S
Encoding: 83 83 45
Width: 911
Flags: W
LayerCount: 2
Fore
SplineSet
770 1110 m 1,0,-1
 778 748 l 1,1,-1
 746 748 l 1,2,3
 722 884 722 884 631.5 967 c 128,-1,4
 541 1050 541 1050 435 1050 c 0,5,6
 354 1050 354 1050 306 1006 c 128,-1,7
 258 962 258 962 258 906 c 0,8,9
 258 870 258 870 275 842 c 0,10,11
 298 804 298 804 350 767 c 0,12,13
 387 741 387 741 523 674 c 0,14,15
 714 580 714 580 780 497 c 256,16,17
 846 414 846 414 846 306 c 0,18,19
 846 170 846 170 740 72 c 128,-1,20
 634 -26 634 -26 470 -26 c 0,21,22
 419 -26 419 -26 373.5 -15.5 c 128,-1,23
 328 -5 328 -5 259 24 c 0,24,25
 221 40 221 40 196 40 c 0,26,27
 175 40 175 40 152 24 c 128,-1,28
 129 8 129 8 114 -25 c 1,29,-1
 85 -25 l 1,30,-1
 85 385 l 1,31,-1
 114 385 l 1,32,33
 150 212 150 212 250 121 c 128,-1,34
 350 30 350 30 466 30 c 0,35,36
 556 30 556 30 609 79 c 128,-1,37
 662 128 662 128 662 193 c 0,38,39
 662 231 662 231 642 267 c 128,-1,40
 622 303 622 303 580 335.5 c 128,-1,41
 538 368 538 368 433 420 c 0,42,43
 285 493 285 493 220 544 c 128,-1,44
 155 595 155 595 120.5 658.5 c 128,-1,45
 86 722 86 722 86 798 c 0,46,47
 86 927 86 927 181 1018.5 c 128,-1,48
 276 1110 276 1110 421 1110 c 0,49,50
 474 1110 474 1110 523 1097 c 0,51,52
 561 1087 561 1087 615 1061 c 128,-1,53
 669 1035 669 1035 690 1035 c 256,54,55
 711 1035 711 1035 723 1048 c 128,-1,56
 735 1061 735 1061 746 1110 c 1,57,-1
 770 1110 l 1,0,-1
EndSplineSet
EndChar

StartChar: T
Encoding: 84 84 46
Width: 1093
Flags: W
LayerCount: 2
Fore
SplineSet
1034 1085 m 1,0,-1
 1034 791 l 1,1,-1
 1005 791 l 1,2,3
 979 893 979 893 948 937.5 c 128,-1,4
 917 982 917 982 862 1008 c 0,5,6
 832 1022 832 1022 756 1022 c 2,7,-1
 675 1022 l 1,8,-1
 675 186 l 2,9,10
 675 102 675 102 684.5 81.5 c 128,-1,11
 694 61 694 61 720.5 45.5 c 128,-1,12
 747 30 747 30 794 30 c 2,13,-1
 830 30 l 1,14,-1
 830 0 l 1,15,-1
 262 0 l 1,16,-1
 262 30 l 1,17,-1
 298 30 l 2,18,19
 345 30 345 30 374 46 c 0,20,21
 394 58 394 58 406 85 c 0,22,23
 415 104 415 104 415 186 c 2,24,-1
 415 1022 l 1,25,-1
 337 1022 l 2,26,27
 227 1022 227 1022 178 976 c 0,28,29
 108 911 108 911 90 791 c 1,30,-1
 59 791 l 1,31,-1
 59 1085 l 1,32,-1
 1034 1085 l 1,0,-1
EndSplineSet
EndChar

StartChar: U
Encoding: 85 85 47
Width: 1183
Flags: W
LayerCount: 2
Fore
SplineSet
38 1085 m 1,0,-1
 598 1085 l 1,1,-1
 598 1055 l 1,2,-1
 570 1055 l 2,3,4
 507 1055 507 1055 483.5 1042 c 128,-1,5
 460 1029 460 1029 450 1005.5 c 128,-1,6
 440 982 440 982 440 890 c 2,7,-1
 440 358 l 2,8,9
 440 213 440 213 462 165.5 c 128,-1,10
 484 118 484 118 534.5 87 c 128,-1,11
 585 56 585 56 662 56 c 0,12,13
 750 56 750 56 812 95.5 c 128,-1,14
 874 135 874 135 904.5 204.5 c 128,-1,15
 935 274 935 274 935 447 c 2,16,-1
 935 890 l 2,17,18
 935 962 935 962 920 993.5 c 128,-1,19
 905 1025 905 1025 882 1037 c 0,20,21
 846 1055 846 1055 780 1055 c 1,22,-1
 780 1085 l 1,23,-1
 1155 1085 l 1,24,-1
 1155 1055 l 1,25,-1
 1133 1055 l 2,26,27
 1087 1055 1087 1055 1056.5 1036.5 c 128,-1,28
 1026 1018 1026 1018 1013 982 c 0,29,30
 1002 956 1002 956 1002 890 c 2,31,-1
 1002 478 l 2,32,33
 1002 286 1002 286 977 201.5 c 128,-1,34
 952 117 952 117 854.5 45.5 c 128,-1,35
 757 -26 757 -26 588 -26 c 0,36,37
 447 -26 447 -26 370 12 c 0,38,39
 266 63 266 63 222.5 143 c 128,-1,40
 179 223 179 223 179 358 c 2,41,-1
 179 890 l 2,42,43
 179 983 179 983 168.5 1006 c 128,-1,44
 158 1029 158 1029 132.5 1042.5 c 128,-1,45
 107 1056 107 1056 38 1055 c 1,46,-1
 38 1085 l 1,0,-1
EndSplineSet
EndChar

StartChar: V
Encoding: 86 86 48
Width: 1183
Flags: W
LayerCount: 2
Fore
SplineSet
1166 1085 m 1,0,-1
 1166 1055 l 1,1,2
 1107 1046 1107 1046 1061 992 c 0,3,4
 1027 952 1027 952 961 804 c 2,5,-1
 587 -25 l 1,6,-1
 561 -25 l 1,7,-1
 189 838 l 2,8,9
 122 994 122 994 99 1021 c 128,-1,10
 76 1048 76 1048 13 1055 c 1,11,-1
 13 1085 l 1,12,-1
 533 1085 l 1,13,-1
 533 1055 l 1,14,-1
 515 1055 l 2,15,16
 445 1055 445 1055 419 1038 c 0,17,18
 401 1026 401 1026 401 1002 c 0,19,20
 401 988 401 988 407.5 968.5 c 128,-1,21
 414 949 414 949 450 863 c 2,22,-1
 682 323 l 1,23,-1
 896 804 l 2,24,25
 934 891 934 891 943 920.5 c 128,-1,26
 952 950 952 950 952 971 c 0,27,28
 952 995 952 995 939 1013.5 c 128,-1,29
 926 1032 926 1032 902 1042 c 0,30,31
 867 1055 867 1055 810 1055 c 1,32,-1
 810 1085 l 1,33,-1
 1166 1085 l 1,0,-1
EndSplineSet
EndChar

StartChar: W
Encoding: 87 87 49
Width: 1638
Flags: W
LayerCount: 2
Fore
SplineSet
1624 1085 m 1,0,-1
 1624 1055 l 1,1,2
 1594 1053 1594 1053 1573 1038.5 c 128,-1,3
 1552 1024 1552 1024 1536 994 c 0,4,5
 1531 985 1531 985 1486 870 c 2,6,-1
 1146 -25 l 1,7,-1
 1114 -25 l 1,8,-1
 846 674 l 1,9,-1
 550 -25 l 1,10,-1
 520 -25 l 1,11,-1
 163 861 l 2,12,13
 109 994 109 994 87.5 1022 c 128,-1,14
 66 1050 66 1050 14 1055 c 1,15,-1
 14 1085 l 1,16,-1
 485 1085 l 1,17,-1
 485 1055 l 1,18,19
 428 1054 428 1054 409 1038 c 128,-1,20
 390 1022 390 1022 390 999 c 0,21,22
 390 969 390 969 430 870 c 2,23,-1
 642 344 l 1,24,-1
 813 755 l 1,25,-1
 768 870 l 2,26,27
 731 965 731 965 711 996.5 c 128,-1,28
 691 1028 691 1028 665 1041.5 c 128,-1,29
 639 1055 639 1055 589 1055 c 1,30,-1
 589 1085 l 1,31,-1
 1114 1085 l 1,32,-1
 1114 1055 l 1,33,34
 1059 1054 1059 1054 1035 1046 c 0,35,36
 1018 1041 1018 1041 1008.5 1027.5 c 128,-1,37
 999 1014 999 1014 999 998 c 0,38,39
 999 979 999 979 1035 885 c 2,40,-1
 1233 371 l 1,41,-1
 1410 836 l 2,42,43
 1438 908 1438 908 1444 934.5 c 128,-1,44
 1450 961 1450 961 1450 983 c 0,45,46
 1450 1016 1450 1016 1428 1035 c 128,-1,47
 1406 1054 1406 1054 1342 1055 c 1,48,-1
 1342 1085 l 1,49,-1
 1624 1085 l 1,0,-1
EndSplineSet
EndChar

StartChar: X
Encoding: 88 88 50
Width: 1183
Flags: W
LayerCount: 2
Fore
SplineSet
692 636 m 1,0,-1
 991 192 l 2,1,2
 1066 82 1066 82 1097.5 58 c 128,-1,3
 1129 34 1129 34 1172 30 c 1,4,-1
 1172 0 l 1,5,-1
 643 0 l 1,6,-1
 643 30 l 1,7,8
 706 34 706 34 724.5 48.5 c 128,-1,9
 743 63 743 63 743 84 c 0,10,11
 743 98 743 98 738 110 c 0,12,13
 726 134 726 134 682 199 c 2,14,-1
 523 434 l 1,15,-1
 358 231 l 2,16,17
 283 139 283 139 283 106 c 0,18,19
 283 83 283 83 302.5 63 c 128,-1,20
 322 43 322 43 359 34 c 0,21,22
 376 30 376 30 428 30 c 1,23,-1
 428 0 l 1,24,-1
 11 0 l 1,25,-1
 11 30 l 1,26,27
 82 40 82 40 123 68 c 0,28,29
 177 105 177 105 273 222 c 2,30,-1
 488 484 l 1,31,-1
 212 890 l 2,32,33
 144 990 144 990 134 1001 c 0,34,35
 113 1027 113 1027 92 1038.5 c 128,-1,36
 71 1050 71 1050 34 1055 c 1,37,-1
 34 1085 l 1,38,-1
 573 1085 l 1,39,-1
 573 1055 l 1,40,-1
 546 1055 l 2,41,42
 499 1055 499 1055 480.5 1040.5 c 128,-1,43
 462 1026 462 1026 462 1003 c 0,44,45
 462 986 462 986 468 973 c 2,46,-1
 523 890 l 1,47,-1
 658 685 l 1,48,-1
 772 825 l 2,49,50
 860 933 860 933 860 976 c 0,51,52
 860 998 860 998 847.5 1016 c 128,-1,53
 835 1034 835 1034 812 1044.5 c 128,-1,54
 789 1055 789 1055 740 1055 c 1,55,-1
 740 1085 l 1,56,-1
 1139 1085 l 1,57,-1
 1139 1055 l 1,58,59
 1092 1054 1092 1054 1063 1043.5 c 128,-1,60
 1034 1033 1034 1033 1002 1003 c 0,61,62
 981 984 981 984 898 884 c 2,63,-1
 692 636 l 1,0,-1
EndSplineSet
EndChar

StartChar: Y
Encoding: 89 89 51
Width: 1183
Flags: W
LayerCount: 2
Fore
SplineSet
1165 1085 m 1,0,-1
 1165 1055 l 1,1,2
 1111 1048 1111 1048 1082 1024 c 0,3,4
 1042 990 1042 990 956 841 c 2,5,-1
 721 448 l 1,6,-1
 721 186 l 2,7,8
 721 102 721 102 729.5 81.5 c 128,-1,9
 738 61 738 61 764 45.5 c 128,-1,10
 790 30 790 30 834 30 c 2,11,-1
 894 30 l 1,12,-1
 894 0 l 1,13,-1
 286 0 l 1,14,-1
 286 30 l 1,15,-1
 342 30 l 2,16,17
 390 30 390 30 418 46 c 0,18,19
 439 58 439 58 451 85 c 0,20,21
 460 104 460 104 460 186 c 2,22,-1
 460 403 l 1,23,-1
 205 868 l 2,24,25
 129 1006 129 1006 97.5 1030 c 128,-1,26
 66 1054 66 1054 14 1055 c 1,27,-1
 14 1085 l 1,28,-1
 534 1085 l 1,29,-1
 534 1055 l 1,30,-1
 511 1055 l 2,31,32
 464 1055 464 1055 445 1041.5 c 128,-1,33
 426 1028 426 1028 426 1013 c 0,34,35
 426 984 426 984 490 868 c 2,36,-1
 686 509 l 1,37,-1
 882 836 l 2,38,39
 954 956 954 956 954 995 c 0,40,41
 954 1017 954 1017 934 1031 c 0,42,43
 906 1051 906 1051 834 1055 c 1,44,-1
 834 1085 l 1,45,-1
 1165 1085 l 1,0,-1
EndSplineSet
EndChar

StartChar: Z
Encoding: 90 90 52
Width: 1093
Flags: W
LayerCount: 2
Fore
SplineSet
1000 1085 m 1,0,-1
 362 61 l 1,1,-1
 569 61 l 2,2,3
 715 61 715 61 774 79 c 0,4,5
 869 108 869 108 937.5 185 c 128,-1,6
 1006 262 1006 262 1033 392 c 1,7,-1
 1064 392 l 1,8,-1
 1020 0 l 1,9,-1
 26 0 l 1,10,-1
 665 1026 l 1,11,-1
 504 1026 l 2,12,13
 410 1026 410 1026 381 1020 c 0,14,15
 325 1010 325 1010 275.5 979 c 128,-1,16
 226 948 226 948 194 897 c 128,-1,17
 162 846 162 846 143 767 c 1,18,-1
 114 767 l 1,19,-1
 143 1085 l 1,20,-1
 1000 1085 l 1,0,-1
EndSplineSet
EndChar

StartChar: bracketleft
Encoding: 91 91 53
Width: 546
Flags: W
LayerCount: 2
Fore
SplineSet
171 -299 m 1,0,-1
 171 1085 l 1,1,-1
 493 1085 l 1,2,-1
 493 1051 l 1,3,-1
 457 1051 l 2,4,5
 404 1051 404 1051 386 1040.5 c 128,-1,6
 368 1030 368 1030 359 1008.5 c 128,-1,7
 350 987 350 987 350 906 c 2,8,-1
 350 -126 l 2,9,10
 350 -203 350 -203 353 -214 c 0,11,12
 360 -243 360 -243 379.5 -256.5 c 128,-1,13
 399 -270 399 -270 457 -270 c 2,14,-1
 493 -270 l 1,15,-1
 493 -299 l 1,16,-1
 171 -299 l 1,0,-1
EndSplineSet
EndChar

StartChar: backslash
Encoding: 92 92 54
Width: 455
Flags: W
LayerCount: 2
Fore
SplineSet
2 1110 m 1,0,-1
 102 1110 l 1,1,-1
 460 -25 l 1,2,-1
 357 -25 l 1,3,-1
 2 1110 l 1,0,-1
EndSplineSet
EndChar

StartChar: bracketright
Encoding: 93 93 55
Width: 546
Flags: W
LayerCount: 2
Fore
SplineSet
375 1085 m 1,0,-1
 375 -299 l 1,1,-1
 54 -299 l 1,2,-1
 54 -269 l 1,3,-1
 90 -269 l 2,4,5
 142 -269 142 -269 160 -258.5 c 128,-1,6
 178 -248 178 -248 187.5 -226.5 c 128,-1,7
 197 -205 197 -205 197 -125 c 2,8,-1
 197 909 l 2,9,10
 197 986 197 986 194 997 c 0,11,12
 186 1025 186 1025 166.5 1039 c 128,-1,13
 147 1053 147 1053 90 1053 c 2,14,-1
 54 1053 l 1,15,-1
 54 1085 l 1,16,-1
 375 1085 l 1,0,-1
EndSplineSet
EndChar

StartChar: asciicircum
Encoding: 94 94 56
Width: 952
Flags: W
LayerCount: 2
Fore
SplineSet
118 533 m 1,0,-1
 446 1107 l 1,1,-1
 512 1107 l 1,2,-1
 835 533 l 1,3,-1
 708 533 l 1,4,-1
 472 942 l 1,5,-1
 240 533 l 1,6,-1
 118 533 l 1,0,-1
EndSplineSet
EndChar

StartChar: underscore
Encoding: 95 95 57
Width: 819
Flags: W
LayerCount: 2
Fore
SplineSet
-15 -249 m 1,0,-1
 834 -249 l 1,1,-1
 834 -354 l 1,2,-1
 -15 -354 l 1,3,-1
 -15 -249 l 1,0,-1
EndSplineSet
EndChar

StartChar: grave
Encoding: 96 96 58
Width: 212
Flags: W
LayerCount: 2
Fore
SplineSet
120 1002 m 1,0,1
 155 922 155 922 176 851 c 1,2,3
 183 799 183 799 172 805 c 1,4,5
 150 837 150 837 102.5 927 c 128,-1,6
 55 1017 55 1017 46 1049 c 1,7,8
 43 1086 43 1086 120 1002 c 1,0,1
EndSplineSet
EndChar

StartChar: a
Encoding: 97 97 59
Width: 819
Flags: W
LayerCount: 2
Fore
SplineSet
468 110 m 1,0,1
 331 -10 331 -10 222 -10 c 0,2,3
 158 -10 158 -10 116 32 c 128,-1,4
 74 74 74 74 74 137 c 0,5,6
 74 222 74 222 147.5 290.5 c 128,-1,7
 221 359 221 359 468 473 c 1,8,-1
 468 548 l 2,9,10
 468 633 468 633 459 655 c 128,-1,11
 450 677 450 677 424 693.5 c 128,-1,12
 398 710 398 710 366 710 c 0,13,14
 314 710 314 710 281 686 c 0,15,16
 260 672 260 672 260 653 c 0,17,18
 260 636 260 636 282 611 c 0,19,20
 313 577 313 577 313 545 c 0,21,22
 313 506 313 506 283.5 478 c 128,-1,23
 254 450 254 450 207 450 c 0,24,25
 157 450 157 450 123 480.5 c 128,-1,26
 89 511 89 511 89 552 c 0,27,28
 89 610 89 610 134.5 662 c 128,-1,29
 180 714 180 714 261.5 742 c 128,-1,30
 343 770 343 770 431 770 c 0,31,32
 538 770 538 770 600 725 c 128,-1,33
 662 680 662 680 680 627 c 0,34,35
 691 594 691 594 691 473 c 2,36,-1
 691 182 l 2,37,38
 691 131 691 131 695 118 c 128,-1,39
 699 105 699 105 707 98.5 c 128,-1,40
 715 92 715 92 726 92 c 0,41,42
 746 92 746 92 768 122 c 1,43,-1
 792 102 l 1,44,45
 752 43 752 43 709 16.5 c 128,-1,46
 666 -10 666 -10 612 -10 c 0,47,48
 548 -10 548 -10 512 20 c 128,-1,49
 476 50 476 50 468 110 c 1,0,1
468 169 m 1,50,-1
 468 419 l 1,51,52
 371 362 371 362 324 298 c 0,53,54
 293 254 293 254 293 210 c 0,55,56
 293 174 293 174 319 146 c 0,57,58
 339 124 339 124 375 124 c 0,59,60
 415 124 415 124 468 169 c 1,50,-1
EndSplineSet
EndChar

StartChar: b
Encoding: 98 98 60
Width: 911
Flags: W
LayerCount: 2
Fore
SplineSet
345 1085 m 1,0,-1
 345 673 l 1,1,2
 439 770 439 770 551 770 c 0,3,4
 628 770 628 770 696 725 c 128,-1,5
 764 680 764 680 802.5 597 c 128,-1,6
 841 514 841 514 841 405 c 0,7,8
 841 282 841 282 792 182 c 128,-1,9
 743 82 743 82 661.5 30 c 128,-1,10
 580 -22 580 -22 475 -22 c 0,11,12
 414 -22 414 -22 367 -3 c 128,-1,13
 320 16 320 16 274 59 c 1,14,-1
 150 -22 l 1,15,-1
 123 -22 l 1,16,-1
 123 930 l 2,17,18
 123 994 123 994 118 1010 c 0,19,20
 110 1032 110 1032 92.5 1043 c 128,-1,21
 75 1054 75 1054 34 1055 c 1,22,-1
 34 1085 l 1,23,-1
 345 1085 l 1,0,-1
345 602 m 1,24,-1
 345 269 l 2,25,26
 345 167 345 167 350 139 c 0,27,28
 358 92 358 92 388 63 c 128,-1,29
 418 34 418 34 466 34 c 0,30,31
 506 34 506 34 535.5 57 c 128,-1,32
 565 80 565 80 584.5 149 c 128,-1,33
 604 218 604 218 604 397 c 0,34,35
 604 569 604 569 561 633 c 0,36,37
 530 679 530 679 477 679 c 0,38,39
 408 679 408 679 345 602 c 1,24,-1
EndSplineSet
EndChar

StartChar: c
Encoding: 99 99 61
Width: 727
Flags: W
LayerCount: 2
Fore
SplineSet
666 193 m 1,0,-1
 690 174 l 1,1,2
 638 74 638 74 559 26 c 128,-1,3
 480 -22 480 -22 391 -22 c 0,4,5
 242 -22 242 -22 152 90.5 c 128,-1,6
 62 203 62 203 62 362 c 0,7,8
 62 514 62 514 144 630 c 0,9,10
 242 770 242 770 415 770 c 0,11,12
 531 770 531 770 599.5 712 c 128,-1,13
 668 654 668 654 668 582 c 0,14,15
 668 536 668 536 640.5 509 c 128,-1,16
 613 482 613 482 568 482 c 0,17,18
 521 482 521 482 490 513 c 128,-1,19
 459 544 459 544 452 624 c 0,20,21
 447 674 447 674 429 694 c 0,22,23
 410 714 410 714 386 714 c 0,24,25
 347 714 347 714 320 674 c 0,26,27
 278 612 278 612 278 485 c 0,28,29
 278 379 278 379 312 282.5 c 128,-1,30
 346 186 346 186 404 139 c 0,31,32
 448 105 448 105 508 105 c 0,33,34
 547 105 547 105 582.5 123.5 c 128,-1,35
 618 142 618 142 666 193 c 1,0,-1
EndSplineSet
EndChar

StartChar: d
Encoding: 100 100 62
Width: 911
Flags: W
LayerCount: 2
Fore
SplineSet
782 1085 m 1,0,-1
 782 224 l 2,1,2
 782 137 782 137 787 121 c 0,3,4
 794 94 794 94 812 81.5 c 128,-1,5
 830 69 830 69 874 66 c 1,6,-1
 874 39 l 1,7,-1
 558 -22 l 1,8,-1
 558 96 l 1,9,10
 502 27 502 27 457.5 2.5 c 128,-1,11
 413 -22 413 -22 357 -22 c 0,12,13
 214 -22 214 -22 130 106 c 0,14,15
 63 210 63 210 63 361 c 0,16,17
 63 482 63 482 104.5 577.5 c 128,-1,18
 146 673 146 673 218.5 721.5 c 128,-1,19
 291 770 291 770 374 770 c 0,20,21
 428 770 428 770 469.5 749.5 c 128,-1,22
 511 729 511 729 558 677 c 1,23,-1
 558 902 l 2,24,25
 558 988 558 988 551 1006 c 0,26,27
 542 1029 542 1029 522.5 1040 c 128,-1,28
 503 1051 503 1051 450 1051 c 1,29,-1
 450 1085 l 1,30,-1
 782 1085 l 1,0,-1
558 578 m 1,31,32
 499 691 499 691 414 691 c 0,33,34
 384 691 384 691 365 675 c 0,35,36
 335 650 335 650 316.5 588 c 128,-1,37
 298 526 298 526 298 397 c 0,38,39
 298 255 298 255 318.5 187 c 128,-1,40
 339 119 339 119 375 89 c 0,41,42
 394 74 394 74 426 74 c 0,43,44
 496 74 496 74 558 184 c 1,45,-1
 558 578 l 1,31,32
EndSplineSet
EndChar

StartChar: e
Encoding: 101 101 63
Width: 727
Flags: W
LayerCount: 2
Fore
SplineSet
689 401 m 1,0,-1
 278 401 l 1,1,2
 286 252 286 252 358 166 c 0,3,4
 413 99 413 99 490 99 c 0,5,6
 538 99 538 99 577.5 126 c 128,-1,7
 617 153 617 153 662 222 c 1,8,-1
 689 205 l 1,9,10
 628 81 628 81 554.5 29.5 c 128,-1,11
 481 -22 481 -22 384 -22 c 0,12,13
 218 -22 218 -22 132 106 c 0,14,15
 63 209 63 209 63 362 c 0,16,17
 63 549 63 549 164.5 659.5 c 128,-1,18
 266 770 266 770 402 770 c 0,19,20
 515 770 515 770 598.5 677 c 128,-1,21
 682 584 682 584 689 401 c 1,0,-1
492 454 m 1,22,23
 492 583 492 583 478 631 c 128,-1,24
 464 679 464 679 434 704 c 0,25,26
 418 718 418 718 390 718 c 0,27,28
 348 718 348 718 322 678 c 0,29,30
 274 606 274 606 274 482 c 2,31,-1
 274 454 l 1,32,-1
 492 454 l 1,22,23
EndSplineSet
EndChar

StartChar: f
Encoding: 102 102 64
Width: 546
Flags: W
LayerCount: 2
Fore
SplineSet
383 670 m 1,0,-1
 383 150 l 2,1,2
 383 75 383 75 399 56 c 0,3,4
 425 26 425 26 494 29 c 1,5,-1
 494 0 l 1,6,-1
 53 0 l 1,7,-1
 53 29 l 1,8,9
 103 30 103 30 124.5 40.5 c 128,-1,10
 146 51 146 51 154 70.5 c 128,-1,11
 162 90 162 90 162 150 c 2,12,-1
 162 670 l 1,13,-1
 53 670 l 1,14,-1
 53 748 l 1,15,-1
 162 748 l 1,16,-1
 162 803 l 1,17,-1
 161 841 l 2,18,19
 161 956 161 956 245.5 1033 c 128,-1,20
 330 1110 330 1110 474 1110 c 0,21,22
 572 1110 572 1110 619.5 1073 c 128,-1,23
 667 1036 667 1036 667 991 c 0,24,25
 667 955 667 955 637.5 928.5 c 128,-1,26
 608 902 608 902 559 902 c 0,27,28
 518 902 518 902 493.5 924 c 128,-1,29
 469 946 469 946 469 972 c 0,30,31
 469 979 469 979 474 1002 c 0,32,33
 477 1015 477 1015 477 1027 c 0,34,35
 477 1044 477 1044 467 1052 c 0,36,37
 454 1064 454 1064 436 1064 c 0,38,39
 413 1064 413 1064 397.5 1045 c 128,-1,40
 382 1026 382 1026 382 983 c 2,41,-1
 383 843 l 1,42,-1
 383 748 l 1,43,-1
 494 748 l 1,44,-1
 494 670 l 1,45,-1
 383 670 l 1,0,-1
EndSplineSet
EndChar

StartChar: g
Encoding: 103 103 65
Width: 819
Flags: W
LayerCount: 2
Fore
SplineSet
535 739 m 1,0,-1
 787 739 l 1,1,-1
 787 651 l 1,2,-1
 644 651 l 1,3,4
 683 612 683 612 698 580 c 0,5,6
 718 537 718 537 718 490 c 0,7,8
 718 410 718 410 673.5 351 c 128,-1,9
 629 292 629 292 552.5 259 c 128,-1,10
 476 226 476 226 417 226 c 0,11,12
 412 226 412 226 321 230 c 0,13,14
 285 230 285 230 260.5 206 c 128,-1,15
 236 182 236 182 236 150 c 0,16,17
 236 121 236 121 258 102.5 c 128,-1,18
 280 84 280 84 330 84 c 2,19,-1
 468 86 l 2,20,21
 636 86 636 86 699 49 c 0,22,23
 790 -2 790 -2 790 -109 c 0,24,25
 790 -177 790 -177 748 -232.5 c 128,-1,26
 706 -288 706 -288 638 -314 c 0,27,28
 535 -354 535 -354 401 -354 c 0,29,30
 300 -354 300 -354 217 -334 c 128,-1,31
 134 -314 134 -314 98 -279.5 c 128,-1,32
 62 -245 62 -245 62 -206 c 0,33,34
 62 -170 62 -170 89.5 -140.5 c 128,-1,35
 117 -111 117 -111 192 -91 c 1,36,37
 88 -40 88 -40 88 51 c 0,38,39
 88 106 88 106 130.5 158 c 128,-1,40
 173 210 173 210 265 249 c 1,41,42
 158 288 158 288 110 352 c 128,-1,43
 62 416 62 416 62 500 c 0,44,45
 62 610 62 610 151.5 690 c 128,-1,46
 241 770 241 770 382 770 c 0,47,48
 456 770 456 770 535 739 c 1,0,-1
397 721 m 0,49,50
 350 721 350 721 318 674 c 128,-1,51
 286 627 286 627 286 480 c 0,52,53
 286 361 286 361 318 316.5 c 128,-1,54
 350 272 350 272 393 272 c 0,55,56
 441 272 441 272 473 316 c 128,-1,57
 505 360 505 360 505 487 c 0,58,59
 505 630 505 630 469 682 c 0,60,61
 443 721 443 721 397 721 c 0,49,50
350 -110 m 0,62,63
 268 -110 268 -110 242 -124 c 0,64,65
 196 -149 196 -149 196 -191 c 0,66,67
 196 -232 196 -232 243 -265 c 128,-1,68
 290 -298 290 -298 421 -298 c 0,69,70
 532 -298 532 -298 595.5 -268.5 c 128,-1,71
 659 -239 659 -239 659 -186 c 0,72,73
 659 -166 659 -166 647 -152 c 0,74,75
 626 -128 626 -128 582 -119 c 128,-1,76
 538 -110 538 -110 350 -110 c 0,62,63
EndSplineSet
EndChar

StartChar: h
Encoding: 104 104 66
Width: 911
Flags: W
LayerCount: 2
Fore
SplineSet
361 1085 m 1,0,-1
 361 652 l 1,1,2
 422 717 422 717 473.5 743.5 c 128,-1,3
 525 770 525 770 580 770 c 0,4,5
 650 770 650 770 700 730 c 128,-1,6
 750 690 750 690 766.5 636 c 128,-1,7
 783 582 783 582 783 454 c 2,8,-1
 783 162 l 2,9,10
 783 77 783 77 799 55.5 c 128,-1,11
 815 34 815 34 864 29 c 1,12,-1
 864 0 l 1,13,-1
 485 0 l 1,14,-1
 485 29 l 1,15,16
 525 34 525 34 545 61 c 0,17,18
 559 82 559 82 559 162 c 2,19,-1
 559 496 l 2,20,21
 559 589 559 589 552 612.5 c 128,-1,22
 545 636 545 636 527.5 649 c 128,-1,23
 510 662 510 662 489 662 c 0,24,25
 457 662 457 662 426.5 640 c 128,-1,26
 396 618 396 618 361 563 c 1,27,-1
 361 162 l 2,28,29
 361 82 361 82 373 62 c 0,30,31
 388 35 388 35 435 29 c 1,32,-1
 435 0 l 1,33,-1
 56 0 l 1,34,-1
 56 29 l 1,35,36
 103 34 103 34 123 59 c 0,37,38
 137 77 137 77 137 162 c 2,39,-1
 137 922 l 2,40,41
 137 1007 137 1007 121.5 1028 c 128,-1,42
 106 1049 106 1049 56 1055 c 1,43,-1
 56 1085 l 1,44,-1
 361 1085 l 1,0,-1
EndSplineSet
EndChar

StartChar: i
Encoding: 105 105 67
Width: 455
Flags: W
LayerCount: 2
Fore
SplineSet
235 1110 m 0,0,1
 287 1110 287 1110 323 1074 c 128,-1,2
 359 1038 359 1038 359 986 c 0,3,4
 359 935 359 935 322.5 899 c 128,-1,5
 286 863 286 863 235 863 c 256,6,7
 184 863 184 863 148 899 c 128,-1,8
 112 935 112 935 112 986 c 0,9,10
 112 1038 112 1038 148 1074 c 128,-1,11
 184 1110 184 1110 235 1110 c 0,0,1
347 748 m 1,12,-1
 347 155 l 2,13,14
 347 76 347 76 365.5 54 c 128,-1,15
 384 32 384 32 438 29 c 1,16,-1
 438 0 l 1,17,-1
 34 0 l 1,18,-1
 34 29 l 1,19,20
 83 30 83 30 107 58 c 0,21,22
 123 76 123 76 123 155 c 2,23,-1
 123 592 l 2,24,25
 123 671 123 671 104.5 693 c 128,-1,26
 86 715 86 715 34 718 c 1,27,-1
 34 748 l 1,28,-1
 347 748 l 1,12,-1
EndSplineSet
EndChar

StartChar: j
Encoding: 106 106 68
Width: 546
Flags: W
LayerCount: 2
Fore
SplineSet
285 1110 m 256,0,1
 336 1110 336 1110 371.5 1074 c 128,-1,2
 407 1038 407 1038 407 988 c 0,3,4
 407 937 407 937 371 901 c 128,-1,5
 335 865 335 865 285 865 c 0,6,7
 234 865 234 865 198 901 c 128,-1,8
 162 937 162 937 162 988 c 0,9,10
 162 1038 162 1038 198 1074 c 128,-1,11
 234 1110 234 1110 285 1110 c 256,0,1
397 748 m 1,12,-1
 397 -26 l 2,13,14
 397 -135 397 -135 383 -187 c 0,15,16
 363 -262 363 -262 303.5 -308 c 128,-1,17
 244 -354 244 -354 146 -354 c 256,18,19
 48 -354 48 -354 1 -314 c 128,-1,20
 -46 -274 -46 -274 -46 -217 c 0,21,22
 -46 -182 -46 -182 -21.5 -156 c 128,-1,23
 3 -130 3 -130 36 -130 c 0,24,25
 66 -130 66 -130 84 -148 c 128,-1,26
 102 -166 102 -166 102 -202 c 0,27,28
 102 -211 102 -211 101 -224 c 0,29,30
 99 -241 99 -241 99 -247 c 0,31,32
 99 -275 99 -275 112 -289 c 0,33,34
 125 -302 125 -302 145 -302 c 0,35,36
 163 -302 163 -302 176.5 -286 c 128,-1,37
 190 -270 190 -270 190 -241 c 0,38,39
 190 -225 190 -225 185 -176 c 0,40,41
 177 -87 177 -87 176 -69 c 2,42,-1
 174 121 l 1,43,-1
 174 583 l 1,44,-1
 174 625 l 2,45,46
 174 675 174 675 157 694 c 128,-1,47
 140 713 140 713 85 718 c 1,48,-1
 85 748 l 1,49,-1
 397 748 l 1,12,-1
EndSplineSet
EndChar

StartChar: k
Encoding: 107 107 69
Width: 911
Flags: W
LayerCount: 2
Fore
SplineSet
359 1085 m 1,0,-1
 359 371 l 1,1,-1
 533 542 l 2,2,3
 586 594 586 594 599.5 617 c 128,-1,4
 613 640 613 640 613 662 c 0,5,6
 613 683 613 683 595.5 697.5 c 128,-1,7
 578 712 578 712 526 718 c 1,8,-1
 526 748 l 1,9,-1
 862 748 l 1,10,-1
 862 718 l 1,11,12
 814 716 814 716 778 695.5 c 128,-1,13
 742 675 742 675 637 573 c 2,14,-1
 555 493 l 1,15,-1
 731 235 l 2,16,17
 838 78 838 78 858 59 c 0,18,19
 885 32 885 32 926 29 c 1,20,-1
 926 0 l 1,21,-1
 540 0 l 1,22,-1
 540 29 l 1,23,24
 566 29 566 29 577.5 38.5 c 128,-1,25
 589 48 589 48 589 59 c 0,26,27
 589 78 589 78 555 127 c 2,28,-1
 407 344 l 1,29,-1
 359 297 l 1,30,-1
 359 162 l 2,31,32
 359 77 359 77 375 55.5 c 128,-1,33
 391 34 391 34 441 29 c 1,34,-1
 441 0 l 1,35,-1
 54 0 l 1,36,-1
 54 29 l 1,37,38
 102 34 102 34 122 59 c 0,39,40
 135 77 135 77 135 162 c 2,41,-1
 135 922 l 2,42,43
 135 1007 135 1007 119.5 1028 c 128,-1,44
 104 1049 104 1049 54 1055 c 1,45,-1
 54 1085 l 1,46,-1
 359 1085 l 1,0,-1
EndSplineSet
EndChar

StartChar: l
Encoding: 108 108 70
Width: 455
Flags: W
LayerCount: 2
Fore
SplineSet
348 1085 m 1,0,-1
 348 155 l 2,1,2
 348 76 348 76 366.5 54 c 128,-1,3
 385 32 385 32 438 29 c 1,4,-1
 438 0 l 1,5,-1
 34 0 l 1,6,-1
 34 29 l 1,7,8
 84 30 84 30 108 58 c 0,9,10
 124 76 124 76 124 155 c 2,11,-1
 124 930 l 2,12,13
 124 1008 124 1008 105.5 1030 c 128,-1,14
 87 1052 87 1052 34 1055 c 1,15,-1
 34 1085 l 1,16,-1
 348 1085 l 1,0,-1
EndSplineSet
EndChar

StartChar: m
Encoding: 109 109 71
Width: 1365
Flags: W
LayerCount: 2
Fore
SplineSet
366 748 m 1,0,-1
 366 650 l 1,1,2
 427 717 427 717 479.5 743.5 c 128,-1,3
 532 770 532 770 594 770 c 0,4,5
 666 770 666 770 715 736.5 c 128,-1,6
 764 703 764 703 790 634 c 1,7,8
 854 706 854 706 913 738 c 128,-1,9
 972 770 972 770 1036 770 c 0,10,11
 1114 770 1114 770 1160 734.5 c 128,-1,12
 1206 699 1206 699 1224 644.5 c 128,-1,13
 1242 590 1242 590 1242 470 c 2,14,-1
 1242 163 l 2,15,16
 1242 77 1242 77 1257.5 56 c 128,-1,17
 1273 35 1273 35 1322 29 c 1,18,-1
 1322 0 l 1,19,-1
 936 0 l 1,20,-1
 936 29 l 1,21,22
 982 33 982 33 1003 64 c 0,23,24
 1018 86 1018 86 1018 163 c 2,25,-1
 1018 485 l 2,26,27
 1018 585 1018 585 1010 612 c 128,-1,28
 1002 639 1002 639 984.5 652.5 c 128,-1,29
 967 666 967 666 944 666 c 0,30,31
 910 666 910 666 874.5 640.5 c 128,-1,32
 839 615 839 615 803 565 c 1,33,-1
 803 163 l 2,34,35
 803 82 803 82 817 62 c 0,36,37
 835 32 835 32 887 29 c 1,38,-1
 887 0 l 1,39,-1
 500 0 l 1,40,-1
 500 29 l 1,41,42
 531 30 531 30 549 44 c 128,-1,43
 567 58 567 58 573 78 c 128,-1,44
 579 98 579 98 579 163 c 2,45,-1
 579 485 l 2,46,47
 579 586 579 586 571 612 c 128,-1,48
 563 638 563 638 544.5 652 c 128,-1,49
 526 666 526 666 504 666 c 0,50,51
 472 666 472 666 446 650 c 0,52,53
 408 625 408 625 366 565 c 1,54,-1
 366 163 l 2,55,56
 366 84 366 84 381.5 59 c 128,-1,57
 397 34 397 34 446 29 c 1,58,-1
 446 0 l 1,59,-1
 61 0 l 1,60,-1
 61 29 l 1,61,62
 108 34 108 34 128 59 c 0,63,64
 142 77 142 77 142 163 c 2,65,-1
 142 586 l 2,66,67
 142 670 142 670 126 691 c 128,-1,68
 110 712 110 712 61 718 c 1,69,-1
 61 748 l 1,70,-1
 366 748 l 1,0,-1
EndSplineSet
EndChar

StartChar: n
Encoding: 110 110 72
Width: 911
Flags: W
LayerCount: 2
Fore
SplineSet
361 748 m 1,0,-1
 361 651 l 1,1,2
 418 714 418 714 471 742 c 128,-1,3
 524 770 524 770 585 770 c 0,4,5
 658 770 658 770 706 730 c 128,-1,6
 754 690 754 690 770 630 c 0,7,8
 782 584 782 584 782 454 c 2,9,-1
 782 163 l 2,10,11
 782 77 782 77 798 55.5 c 128,-1,12
 814 34 814 34 863 29 c 1,13,-1
 863 0 l 1,14,-1
 485 0 l 1,15,-1
 485 29 l 1,16,17
 527 34 527 34 546 64 c 0,18,19
 558 84 558 84 558 163 c 2,20,-1
 558 496 l 2,21,22
 558 588 558 588 551 612 c 128,-1,23
 544 636 544 636 527 649 c 128,-1,24
 510 662 510 662 489 662 c 0,25,26
 420 662 420 662 361 564 c 1,27,-1
 361 163 l 2,28,29
 361 79 361 79 376.5 56.5 c 128,-1,30
 392 34 392 34 434 29 c 1,31,-1
 434 0 l 1,32,-1
 56 0 l 1,33,-1
 56 29 l 1,34,35
 103 34 103 34 123 59 c 0,36,37
 137 77 137 77 137 163 c 2,38,-1
 137 586 l 2,39,40
 137 670 137 670 121.5 691 c 128,-1,41
 106 712 106 712 56 718 c 1,42,-1
 56 748 l 1,43,-1
 361 748 l 1,0,-1
EndSplineSet
EndChar

StartChar: o
Encoding: 111 111 73
Width: 819
Flags: W
LayerCount: 2
Fore
SplineSet
408 770 m 0,0,1
 506 770 506 770 590 720 c 128,-1,2
 674 670 674 670 717.5 577 c 128,-1,3
 761 484 761 484 761 374 c 0,4,5
 761 214 761 214 680 107 c 0,6,7
 582 -22 582 -22 410 -22 c 0,8,9
 242 -22 242 -22 150.5 96 c 128,-1,10
 59 214 59 214 59 370 c 0,11,12
 59 531 59 531 152.5 650.5 c 128,-1,13
 246 770 246 770 408 770 c 0,0,1
411 714 m 0,14,15
 370 714 370 714 341 683 c 128,-1,16
 312 652 312 652 303 561 c 128,-1,17
 294 470 294 470 294 309 c 0,18,19
 294 223 294 223 305 149 c 0,20,21
 314 92 314 92 342.5 62.5 c 128,-1,22
 371 33 371 33 408 33 c 0,23,24
 444 33 444 33 468 53 c 0,25,26
 499 80 499 80 510 129 c 0,27,28
 526 205 526 205 526 436 c 0,29,30
 526 572 526 572 510.5 623 c 128,-1,31
 495 674 495 674 466 697 c 0,32,33
 445 714 445 714 411 714 c 0,14,15
EndSplineSet
EndChar

StartChar: p
Encoding: 112 112 74
Width: 911
Flags: W
LayerCount: 2
Fore
SplineSet
345 76 m 1,0,-1
 345 -202 l 2,1,2
 345 -260 345 -260 354 -281 c 128,-1,3
 363 -302 363 -302 382.5 -311.5 c 128,-1,4
 402 -321 402 -321 458 -321 c 1,5,-1
 458 -350 l 1,6,-1
 31 -350 l 1,7,-1
 31 -321 l 1,8,9
 81 -319 81 -319 105 -293 c 0,10,11
 121 -274 121 -274 121 -198 c 2,12,-1
 121 592 l 2,13,14
 121 671 121 671 102.5 693 c 128,-1,15
 84 715 84 715 31 718 c 1,16,-1
 31 748 l 1,17,-1
 345 748 l 1,18,-1
 345 650 l 1,19,20
 384 707 384 707 425 733 c 0,21,22
 483 770 483 770 552 770 c 0,23,24
 634 770 634 770 702 718 c 128,-1,25
 770 666 770 666 805 574.5 c 128,-1,26
 840 483 840 483 840 378 c 0,27,28
 840 264 840 264 803.5 170 c 128,-1,29
 767 76 767 76 698 27 c 128,-1,30
 629 -22 629 -22 544 -22 c 0,31,32
 482 -22 482 -22 429 5 c 0,33,34
 389 26 389 26 345 76 c 1,0,-1
345 157 m 1,35,36
 414 59 414 59 492 59 c 0,37,38
 535 59 535 59 563 105 c 0,39,40
 605 172 605 172 605 361 c 0,41,42
 605 554 605 554 559 626 c 0,43,44
 529 673 529 673 478 673 c 0,45,46
 397 673 397 673 345 556 c 1,47,-1
 345 157 l 1,35,36
EndSplineSet
EndChar

StartChar: q
Encoding: 113 113 75
Width: 911
Flags: W
LayerCount: 2
Fore
SplineSet
558 78 m 1,0,1
 509 27 509 27 466 6 c 0,2,3
 410 -22 410 -22 350 -22 c 0,4,5
 209 -22 209 -22 127 103 c 0,6,7
 62 203 62 203 62 342 c 0,8,9
 62 458 62 458 111.5 560 c 128,-1,10
 161 662 161 662 247 716 c 128,-1,11
 333 770 333 770 429 770 c 0,12,13
 493 770 493 770 543 748.5 c 128,-1,14
 593 727 593 727 629 683 c 1,15,-1
 754 770 l 1,16,-1
 782 770 l 1,17,-1
 782 -198 l 2,18,19
 782 -272 782 -272 794 -290 c 0,20,21
 815 -320 815 -320 878 -321 c 1,22,-1
 878 -350 l 1,23,-1
 446 -350 l 1,24,-1
 446 -321 l 1,25,26
 496 -321 496 -321 518.5 -309.5 c 128,-1,27
 541 -298 541 -298 549.5 -280 c 128,-1,28
 558 -262 558 -262 558 -205 c 2,29,-1
 558 78 l 1,0,1
558 151 m 1,30,-1
 558 459 l 2,31,32
 558 588 558 588 544 629.5 c 128,-1,33
 530 671 530 671 492 702 c 0,34,35
 473 717 473 717 443 717 c 0,36,37
 382 717 382 717 349 663 c 0,38,39
 296 581 296 581 296 357 c 0,40,41
 296 185 296 185 342 115 c 0,42,43
 373 68 373 68 422 68 c 0,44,45
 451 68 451 68 487.5 88 c 128,-1,46
 524 108 524 108 558 151 c 1,30,-1
EndSplineSet
EndChar

StartChar: r
Encoding: 114 114 76
Width: 727
Flags: W
LayerCount: 2
Fore
SplineSet
366 748 m 1,0,-1
 366 578 l 1,1,2
 440 694 440 694 496 732 c 128,-1,3
 552 770 552 770 604 770 c 0,4,5
 649 770 649 770 675.5 742.5 c 128,-1,6
 702 715 702 715 702 665 c 0,7,8
 702 611 702 611 676 581.5 c 128,-1,9
 650 552 650 552 614 552 c 0,10,11
 571 552 571 552 540 579 c 128,-1,12
 509 606 509 606 503 610 c 0,13,14
 495 614 495 614 485 614 c 0,15,16
 462 614 462 614 441 597 c 0,17,18
 408 570 408 570 391 519 c 0,19,20
 366 442 366 442 366 348 c 2,21,-1
 366 176 l 1,22,-1
 366 131 l 2,23,24
 366 86 366 86 372 73 c 0,25,26
 382 51 382 51 400.5 41 c 128,-1,27
 419 31 419 31 464 29 c 1,28,-1
 464 0 l 1,29,-1
 60 0 l 1,30,-1
 60 29 l 1,31,32
 109 33 109 33 126 55.5 c 128,-1,33
 143 78 143 78 143 176 c 2,34,-1
 143 590 l 2,35,36
 143 654 143 654 137 671 c 0,37,38
 129 694 129 694 113.5 704 c 128,-1,39
 98 714 98 714 60 718 c 1,40,-1
 60 748 l 1,41,-1
 366 748 l 1,0,-1
EndSplineSet
EndChar

StartChar: s
Encoding: 115 115 77
Width: 638
Flags: W
LayerCount: 2
Fore
SplineSet
528 769 m 1,0,-1
 540 514 l 1,1,-1
 513 514 l 1,2,3
 464 627 464 627 411.5 668.5 c 128,-1,4
 359 710 359 710 307 710 c 0,5,6
 274 710 274 710 251 688 c 128,-1,7
 228 666 228 666 228 638 c 0,8,9
 228 616 228 616 244 596 c 0,10,11
 270 563 270 563 387.5 483.5 c 128,-1,12
 505 404 505 404 542 348.5 c 128,-1,13
 579 293 579 293 579 224 c 0,14,15
 579 162 579 162 548 102 c 128,-1,16
 517 42 517 42 460 10 c 128,-1,17
 403 -22 403 -22 334 -22 c 0,18,19
 281 -22 281 -22 191 11 c 0,20,21
 167 20 167 20 158 20 c 0,22,23
 132 20 132 20 114 -20 c 1,24,-1
 88 -20 l 1,25,-1
 75 249 l 1,26,-1
 102 249 l 1,27,28
 138 143 138 143 201 90.5 c 128,-1,29
 264 38 264 38 320 38 c 0,30,31
 358 38 358 38 382.5 61.5 c 128,-1,32
 407 85 407 85 407 118 c 0,33,34
 407 157 407 157 383 185 c 128,-1,35
 359 213 359 213 276 270 c 0,36,37
 154 354 154 354 118 399 c 0,38,39
 65 465 65 465 65 544 c 0,40,41
 65 630 65 630 124.5 700 c 128,-1,42
 184 770 184 770 297 770 c 0,43,44
 358 770 358 770 414 741 c 0,45,46
 436 729 436 729 450 729 c 256,47,48
 464 729 464 729 473 735 c 128,-1,49
 482 741 482 741 501 769 c 1,50,-1
 528 769 l 1,0,-1
EndSplineSet
EndChar

StartChar: t
Encoding: 116 116 78
Width: 546
Flags: W
LayerCount: 2
Fore
SplineSet
352 1022 m 1,0,-1
 352 748 l 1,1,-1
 530 748 l 1,2,-1
 530 669 l 1,3,-1
 352 669 l 1,4,-1
 352 207 l 2,5,6
 352 142 352 142 358 123.5 c 128,-1,7
 364 105 364 105 379 93.5 c 128,-1,8
 394 82 394 82 407 82 c 0,9,10
 459 82 459 82 506 161 c 1,11,-1
 530 143 l 1,12,13
 465 -10 465 -10 319 -10 c 0,14,15
 248 -10 248 -10 199 29.5 c 128,-1,16
 150 69 150 69 136 118 c 0,17,18
 128 145 128 145 128 265 c 2,19,-1
 128 669 l 1,20,-1
 30 669 l 1,21,-1
 30 697 l 1,22,23
 131 768 131 768 202 846.5 c 128,-1,24
 273 925 273 925 326 1022 c 1,25,-1
 352 1022 l 1,0,-1
EndSplineSet
EndChar

StartChar: u
Encoding: 117 117 79
Width: 911
Flags: W
LayerCount: 2
Fore
SplineSet
778 748 m 1,0,-1
 778 162 l 2,1,2
 778 77 778 77 794 55.5 c 128,-1,3
 810 34 810 34 858 29 c 1,4,-1
 858 0 l 1,5,-1
 554 0 l 1,6,-1
 554 100 l 1,7,8
 500 36 500 36 446.5 7 c 128,-1,9
 393 -22 393 -22 326 -22 c 0,10,11
 263 -22 263 -22 214 16.5 c 128,-1,12
 165 55 165 55 148 107 c 128,-1,13
 131 159 131 159 131 289 c 2,14,-1
 131 586 l 2,15,16
 131 670 131 670 115.5 691 c 128,-1,17
 100 712 100 712 50 718 c 1,18,-1
 50 748 l 1,19,-1
 355 748 l 1,20,-1
 355 237 l 2,21,22
 355 157 355 157 362.5 133.5 c 128,-1,23
 370 110 370 110 386.5 98 c 128,-1,24
 403 86 403 86 425 86 c 0,25,26
 454 86 454 86 477 102 c 0,27,28
 509 122 509 122 554 186 c 1,29,-1
 554 586 l 2,30,31
 554 670 554 670 538 691 c 128,-1,32
 522 712 522 712 473 718 c 1,33,-1
 473 748 l 1,34,-1
 778 748 l 1,0,-1
EndSplineSet
EndChar

StartChar: v
Encoding: 118 118 80
Width: 819
Flags: W
LayerCount: 2
Fore
SplineSet
393 -22 m 1,0,-1
 141 558 l 2,1,2
 95 662 95 662 70 690 c 0,3,4
 51 711 51 711 15 718 c 1,5,-1
 15 748 l 1,6,-1
 413 748 l 1,7,-1
 413 718 l 1,8,9
 375 718 375 718 362 705 c 0,10,11
 342 687 342 687 342 663 c 0,12,13
 342 634 342 634 378 552 c 2,14,-1
 501 271 l 1,15,-1
 599 514 l 2,16,17
 642 618 642 618 642 661 c 0,18,19
 642 686 642 686 624 701.5 c 128,-1,20
 606 717 606 717 560 718 c 1,21,-1
 560 748 l 1,22,-1
 805 748 l 1,23,-1
 805 718 l 1,24,25
 770 714 770 714 747.5 692 c 128,-1,26
 725 670 725 670 680 565 c 2,27,-1
 430 -22 l 1,28,-1
 393 -22 l 1,0,-1
EndSplineSet
EndChar

StartChar: w
Encoding: 119 119 81
Width: 1183
Flags: W
LayerCount: 2
Fore
SplineSet
797 -22 m 1,0,-1
 592 526 l 1,1,-1
 391 -22 l 1,2,-1
 350 -22 l 1,3,-1
 150 520 l 2,4,5
 106 644 106 644 74 682 c 0,6,7
 54 707 54 707 14 718 c 1,8,-1
 14 748 l 1,9,-1
 391 748 l 1,10,-1
 391 718 l 1,11,12
 353 718 353 718 338.5 707 c 128,-1,13
 324 696 324 696 324 682 c 256,14,15
 324 668 324 668 350 600 c 2,16,-1
 459 308 l 1,17,-1
 565 600 l 1,18,-1
 557 619 l 2,19,20
 533 679 533 679 515 695.5 c 128,-1,21
 497 712 497 712 459 718 c 1,22,-1
 459 748 l 1,23,-1
 842 748 l 1,24,-1
 842 718 l 1,25,26
 798 716 798 716 786 706 c 128,-1,27
 774 696 774 696 774 678 c 256,28,29
 774 660 774 660 797 600 c 2,30,-1
 902 308 l 1,31,-1
 998 577 l 2,32,33
 1019 634 1019 634 1019 655 c 0,34,35
 1019 686 1019 686 1004 700.5 c 128,-1,36
 989 715 989 715 945 718 c 1,37,-1
 945 748 l 1,38,-1
 1166 748 l 1,39,-1
 1166 718 l 1,40,41
 1130 714 1130 714 1108 692.5 c 128,-1,42
 1086 671 1086 671 1052 572 c 2,43,-1
 842 -22 l 1,44,-1
 797 -22 l 1,0,-1
EndSplineSet
EndChar

StartChar: x
Encoding: 120 120 82
Width: 819
Flags: W
LayerCount: 2
Fore
SplineSet
498 458 m 1,0,-1
 627 212 l 2,1,2
 694 83 694 83 734 49 c 0,3,4
 755 30 755 30 793 29 c 1,5,-1
 793 0 l 1,6,-1
 376 0 l 1,7,-1
 376 29 l 1,8,9
 425 33 425 33 436.5 41.5 c 128,-1,10
 448 50 448 50 448 66 c 0,11,12
 448 88 448 88 422 136 c 2,13,-1
 358 258 l 1,14,-1
 302 177 l 2,15,16
 265 122 265 122 260 111 c 0,17,18
 254 96 254 96 254 84 c 0,19,20
 254 66 254 66 261.5 53.5 c 128,-1,21
 269 41 269 41 282 35 c 128,-1,22
 295 29 295 29 330 29 c 1,23,-1
 330 0 l 1,24,-1
 38 0 l 1,25,-1
 38 29 l 1,26,27
 92 29 92 29 137 59 c 128,-1,28
 182 89 182 89 269 216 c 2,29,-1
 330 307 l 1,30,-1
 202 546 l 2,31,32
 138 662 138 662 107 688.5 c 128,-1,33
 76 715 76 715 38 718 c 1,34,-1
 38 748 l 1,35,-1
 452 748 l 1,36,-1
 452 718 l 1,37,-1
 430 718 l 1,38,-1
 389 703 l 2,39,40
 382 698 382 698 382 685 c 0,41,42
 382 673 382 673 386 660 c 0,43,44
 389 654 389 654 409 617 c 2,45,-1
 467 508 l 1,46,-1
 498 551 l 2,47,48
 562 639 562 639 562 674 c 0,49,50
 562 691 562 691 548 702.5 c 128,-1,51
 534 714 534 714 498 718 c 1,52,-1
 498 748 l 1,53,-1
 762 748 l 1,54,-1
 762 718 l 1,55,56
 714 717 714 717 671.5 688.5 c 128,-1,57
 629 660 629 660 576 578 c 2,58,-1
 498 458 l 1,0,-1
EndSplineSet
EndChar

StartChar: y
Encoding: 121 121 83
Width: 819
Flags: W
LayerCount: 2
Fore
SplineSet
398 -30 m 1,0,-1
 157 524 l 2,1,2
 102 650 102 650 76 678.5 c 128,-1,3
 50 707 50 707 14 718 c 1,4,-1
 14 748 l 1,5,-1
 411 748 l 1,6,-1
 411 718 l 1,7,8
 372 717 372 717 356 703.5 c 128,-1,9
 340 690 340 690 340 670 c 0,10,11
 340 640 340 640 380 550 c 2,12,-1
 508 258 l 1,13,-1
 595 484 l 2,14,15
 642 605 642 605 642 652 c 0,16,17
 642 682 642 682 622.5 699.5 c 128,-1,18
 603 717 603 717 554 718 c 1,19,-1
 554 748 l 1,20,-1
 804 748 l 1,21,-1
 804 718 l 1,22,23
 767 714 767 714 744 690 c 128,-1,24
 721 666 721 666 666 524 c 2,25,-1
 453 -30 l 2,26,27
 372 -238 372 -238 333 -286 c 0,28,29
 278 -354 278 -354 194 -354 c 0,30,31
 128 -354 128 -354 87 -316 c 128,-1,32
 46 -278 46 -278 46 -224 c 0,33,34
 46 -178 46 -178 74 -147.5 c 128,-1,35
 102 -117 102 -117 144 -117 c 0,36,37
 184 -117 184 -117 208.5 -142.5 c 128,-1,38
 233 -168 233 -168 234 -222 c 0,39,40
 234 -252 234 -252 241 -261 c 0,41,42
 247 -270 247 -270 259 -270 c 0,43,44
 278 -270 278 -270 300 -246 c 0,45,46
 332 -213 332 -213 375 -93 c 2,47,-1
 398 -30 l 1,0,-1
EndSplineSet
EndChar

StartChar: z
Encoding: 122 122 84
Width: 727
Flags: W
LayerCount: 2
Fore
SplineSet
668 0 m 1,0,-1
 17 0 l 1,1,-1
 17 18 l 1,2,-1
 428 699 l 1,3,-1
 308 699 l 2,4,5
 230 699 230 699 196.5 685 c 128,-1,6
 163 671 163 671 142.5 640.5 c 128,-1,7
 122 610 122 610 99 530 c 1,8,-1
 71 530 l 1,9,-1
 71 748 l 1,10,-1
 701 748 l 1,11,-1
 701 726 l 1,12,-1
 293 51 l 1,13,-1
 344 51 l 2,14,15
 498 51 498 51 566 95 c 128,-1,16
 634 139 634 139 668 256 c 1,17,-1
 690 256 l 1,18,-1
 668 0 l 1,0,-1
EndSplineSet
EndChar

StartChar: braceleft
Encoding: 123 123 85
Width: 646
Flags: W
LayerCount: 2
Fore
SplineSet
576 1110 m 1,0,-1
 576 1074 l 1,1,2
 496 1058 496 1058 458 1017 c 128,-1,3
 420 976 420 976 420 923 c 256,4,5
 420 870 420 870 439 790 c 128,-1,6
 458 710 458 710 458 651 c 0,7,8
 458 597 458 597 426 540.5 c 128,-1,9
 394 484 394 484 333 444 c 0,10,11
 290 416 290 416 198 391 c 1,12,13
 297 360 297 360 342 330 c 0,14,15
 401 289 401 289 430.5 233.5 c 128,-1,16
 460 178 460 178 460 129 c 0,17,18
 460 81 460 81 440.5 1 c 128,-1,19
 421 -79 421 -79 421 -138 c 0,20,21
 421 -195 421 -195 457.5 -236.5 c 128,-1,22
 494 -278 494 -278 576 -294 c 1,23,-1
 576 -331 l 1,24,-1
 548 -331 l 2,25,26
 466 -332 466 -332 393 -293.5 c 128,-1,27
 320 -255 320 -255 283 -194.5 c 128,-1,28
 246 -134 246 -134 246 -78 c 256,29,30
 246 -22 246 -22 270 74 c 0,31,32
 289 145 289 145 289 201 c 0,33,34
 289 264 289 264 249 308.5 c 128,-1,35
 209 353 209 353 132 366 c 1,36,-1
 132 414 l 1,37,38
 209 427 209 427 249 473.5 c 128,-1,39
 289 520 289 520 289 586 c 0,40,41
 289 641 289 641 271 709 c 0,42,43
 246 804 246 804 246 854 c 0,44,45
 246 906 246 906 277.5 959.5 c 128,-1,46
 309 1013 309 1013 356 1046.5 c 128,-1,47
 403 1080 403 1080 459 1095 c 0,48,49
 502 1107 502 1107 576 1110 c 1,0,-1
EndSplineSet
EndChar

StartChar: bar
Encoding: 124 124 86
Width: 361
Flags: W
LayerCount: 2
Fore
SplineSet
127 -354 m 1,0,-1
 127 1110 l 1,1,-1
 231 1110 l 1,2,-1
 231 -354 l 1,3,-1
 127 -354 l 1,0,-1
EndSplineSet
EndChar

StartChar: asciitilde
Encoding: 126 126 87
Width: 852
Flags: W
LayerCount: 2
Fore
SplineSet
835 567 m 1,0,-1
 881 567 l 1,1,2
 876 440 876 440 815 374.5 c 128,-1,3
 754 309 754 309 666 309 c 0,4,5
 623 309 623 309 575.5 322.5 c 128,-1,6
 528 336 528 336 366 404 c 0,7,8
 249 453 249 453 197 453 c 0,9,10
 142 453 142 453 106 419.5 c 128,-1,11
 70 386 70 386 56 310 c 1,12,-1
 10 310 l 1,13,14
 16 441 16 441 75 504.5 c 128,-1,15
 134 568 134 568 218 568 c 0,16,17
 260 568 260 568 301 557 c 0,18,19
 382 534 382 534 524 473 c 0,20,21
 601 439 601 439 642 428 c 0,22,23
 666 422 666 422 694 422 c 0,24,25
 750 422 750 422 789 459.5 c 128,-1,26
 828 497 828 497 835 567 c 1,0,-1
EndSplineSet
EndChar

StartChar: ccedilla
Encoding: 231 231 90
Width: 805
Flags: W
LayerCount: 2
Fore
SplineSet
775 198 m 1,0,-1
 764 142 l 1,1,2
 616 37 616 37 445 -9 c 1,3,-1
 408 -65 l 1,4,5
 481 -86 481 -86 481 -146 c 0,6,7
 481 -197 481 -197 424.5 -240.5 c 128,-1,8
 368 -284 368 -284 301 -284 c 0,9,10
 272 -284 272 -284 232 -277 c 1,11,-1
 287 -201 l 1,12,13
 322 -223 322 -223 348 -223 c 0,14,15
 412 -223 412 -223 412 -172 c 0,16,17
 412 -117 412 -117 311 -111 c 1,18,-1
 376 -19 l 1,19,20
 145 5 145 5 145 228 c 0,21,22
 145 445 145 445 302 622 c 128,-1,23
 459 799 459 799 652 799 c 0,24,25
 736 799 736 799 819 762 c 1,26,-1
 770 578 l 1,27,-1
 725 578 l 1,28,-1
 728 589 l 2,29,30
 735 622 735 622 735 638 c 0,31,32
 735 737 735 737 599 737 c 0,33,34
 475 737 475 737 382.5 595 c 128,-1,35
 290 453 290 453 290 263 c 0,36,37
 290 62 290 62 446 62 c 0,38,39
 563 62 563 62 775 198 c 1,0,-1
EndSplineSet
EndChar

StartChar: icircumflex
Encoding: 238 238 95
Width: 468
Flags: W
LayerCount: 2
Fore
SplineSet
328 0 m 1,0,-1
 140 0 l 1,1,-1
 140 1117 l 1,2,-1
 328 1117 l 1,3,-1
 328 0 l 1,0,-1
521 1297 m 1,4,-1
 370 1297 l 1,5,-1
 231 1560 l 1,6,-1
 93 1297 l 1,7,-1
 -54 1297 l 1,8,-1
 120 1676 l 1,9,-1
 347 1676 l 1,10,-1
 521 1297 l 1,4,-1
EndSplineSet
EndChar

StartChar: idieresis
Encoding: 239 239 96
Width: 468
Flags: W
LayerCount: 2
Fore
SplineSet
328 0 m 1,0,-1
 140 0 l 1,1,-1
 140 1117 l 1,2,-1
 328 1117 l 1,3,-1
 328 0 l 1,0,-1
506 1304 m 1,4,-1
 317 1304 l 1,5,-1
 317 1499 l 1,6,-1
 506 1499 l 1,7,-1
 506 1304 l 1,4,-1
151 1304 m 1,8,-1
 -38 1304 l 1,9,-1
 -38 1499 l 1,10,-1
 151 1499 l 1,11,-1
 151 1304 l 1,8,-1
EndSplineSet
EndChar

StartChar: dagger
Encoding: 8224 8224 101
Width: 932
Flags: W
LayerCount: 2
Fore
SplineSet
347 -231 m 1,0,-1
 567 622 l 1,1,-1
 248 592 l 1,2,-1
 297 700 l 1,3,-1
 576 668 l 1,4,-1
 607 1066 l 1,5,-1
 755 1093 l 1,6,-1
 621 668 l 1,7,-1
 941 700 l 1,8,-1
 895 592 l 1,9,-1
 612 622 l 1,10,-1
 496 -213 l 1,11,-1
 347 -231 l 1,0,-1
EndSplineSet
EndChar

StartChar: degree
Encoding: 176 176 102
Width: 409
Flags: W
LayerCount: 2
Fore
SplineSet
395 844 m 0,0,1
 344 844 344 844 307.5 880 c 128,-1,2
 271 916 271 916 271 968 c 0,3,4
 271 1021 271 1021 307.5 1057 c 128,-1,5
 344 1093 344 1093 395 1093 c 0,6,7
 447 1093 447 1093 483 1057 c 128,-1,8
 519 1021 519 1021 519 968 c 0,9,10
 519 916 519 916 483 880 c 128,-1,11
 447 844 447 844 395 844 c 0,0,1
395 888 m 256,12,13
 427 888 427 888 450.5 912 c 128,-1,14
 474 936 474 936 474 968 c 256,15,16
 474 1000 474 1000 450.5 1024 c 128,-1,17
 427 1048 427 1048 395 1048 c 256,18,19
 363 1048 363 1048 339 1024 c 128,-1,20
 315 1000 315 1000 315 968 c 256,21,22
 315 936 315 936 339 912 c 128,-1,23
 363 888 363 888 395 888 c 256,12,13
EndSplineSet
EndChar

StartChar: cent
Encoding: 162 162 103
Width: 693
Flags: W
LayerCount: 2
Fore
SplineSet
365 -18 m 1,0,-1
 404 176 l 1,1,2
 142 195 142 195 142 355 c 0,3,4
 142 459 142 459 242 534.5 c 128,-1,5
 342 610 342 610 492 622 c 1,6,-1
 527 799 l 1,7,-1
 572 799 l 1,8,-1
 537 622 l 1,9,10
 637 617 637 617 715 601 c 1,11,-1
 689 471 l 1,12,-1
 644 471 l 1,13,14
 644 477 644 477 645 488 c 0,15,16
 648 509 648 509 648 517 c 0,17,18
 648 572 648 572 528 578 c 1,19,-1
 459 229 l 1,20,21
 567 229 567 229 661 280 c 1,22,-1
 650 229 l 1,23,24
 544 176 544 176 448 176 c 1,25,-1
 409 -18 l 1,26,-1
 365 -18 l 1,0,-1
415 232 m 1,27,-1
 484 578 l 1,28,29
 272 547 272 547 272 383 c 0,30,31
 272 255 272 255 415 232 c 1,27,-1
EndSplineSet
EndChar

StartChar: sterling
Encoding: 163 163 104
Width: 874
Flags: W
LayerCount: 2
Fore
SplineSet
17 0 m 1,0,-1
 109 88 l 1,1,-1
 122 88 l 2,2,3
 229 88 229 88 272.5 136.5 c 128,-1,4
 316 185 316 185 347 343 c 2,5,-1
 356 391 l 1,6,-1
 196 391 l 1,7,-1
 205 436 l 1,8,-1
 365 436 l 1,9,-1
 378 499 l 2,10,11
 407 642 407 642 496.5 721 c 128,-1,12
 586 800 586 800 718 800 c 0,13,14
 797 800 797 800 892 765 c 1,15,-1
 858 586 l 1,16,-1
 808 586 l 1,17,-1
 810 598 l 2,18,19
 812 608 812 608 812 620 c 0,20,21
 812 746 812 746 679 746 c 0,22,23
 614 746 614 746 584.5 710 c 128,-1,24
 555 674 555 674 535 569 c 2,25,-1
 508 436 l 1,26,-1
 748 436 l 1,27,-1
 739 391 l 1,28,-1
 499 391 l 1,29,-1
 492 359 l 2,30,31
 473 265 473 265 427.5 208 c 128,-1,32
 382 151 382 151 275 88 c 1,33,-1
 480 88 l 2,34,35
 617 88 617 88 679 102.5 c 128,-1,36
 741 117 741 117 819 167 c 1,37,-1
 808 113 l 1,38,39
 735 35 735 35 665.5 7.5 c 128,-1,40
 596 -20 596 -20 470 -20 c 1,41,-1
 442 -19 l 1,42,-1
 17 0 l 1,0,-1
EndSplineSet
EndChar

StartChar: section
Encoding: 167 167 105
Width: 932
Flags: W
LayerCount: 2
Fore
SplineSet
107 -153 m 1,0,-1
 232 -80 l 1,1,2
 348 -178 348 -178 481 -178 c 0,3,4
 564 -178 564 -178 621.5 -127.5 c 128,-1,5
 679 -77 679 -77 679 -5 c 0,6,7
 679 48 679 48 645.5 80.5 c 128,-1,8
 612 113 612 113 513 160 c 2,9,-1
 440 193 l 2,10,11
 247 283 247 283 247 409 c 0,12,13
 247 528 247 528 409 652 c 1,14,15
 328 717 328 717 328 815 c 0,16,17
 328 938 328 938 440 1015.5 c 128,-1,18
 552 1093 552 1093 727 1093 c 0,19,20
 814 1093 814 1093 933 1060 c 1,21,-1
 897 879 l 1,22,-1
 853 879 l 1,23,24
 857 904 857 904 857 916 c 0,25,26
 857 1039 857 1039 652 1039 c 0,27,28
 560 1039 560 1039 500.5 987 c 128,-1,29
 441 935 441 935 441 853 c 0,30,31
 441 798 441 798 466 774.5 c 128,-1,32
 491 751 491 751 613 686 c 2,33,-1
 674 652 l 2,34,35
 854 553 854 553 854 444 c 0,36,37
 854 319 854 319 703 200 c 1,38,39
 801 136 801 136 801 40 c 0,40,41
 801 -75 801 -75 684.5 -153 c 128,-1,42
 568 -231 568 -231 397 -231 c 0,43,44
 244 -231 244 -231 107 -153 c 1,0,-1
667 229 m 1,45,46
 747 319 747 319 747 394 c 0,47,48
 747 470 747 470 628 527 c 2,49,-1
 558 562 l 2,50,51
 495 593 495 593 445 625 c 1,52,53
 355 545 355 545 355 456 c 0,54,55
 355 382 355 382 474 326 c 2,56,-1
 571 279 l 2,57,58
 607 263 607 263 667 229 c 1,45,46
EndSplineSet
EndChar

StartChar: bullet
Encoding: 8226 8226 106
Width: 931
Flags: W
LayerCount: 2
Fore
SplineSet
817 662 m 256,0,1
 817 517 817 517 713.5 414 c 128,-1,2
 610 311 610 311 465 311 c 256,3,4
 320 311 320 311 217 414 c 128,-1,5
 114 517 114 517 114 662 c 256,6,7
 114 807 114 807 217 910 c 128,-1,8
 320 1013 320 1013 465 1013 c 256,9,10
 610 1013 610 1013 713.5 910 c 128,-1,11
 817 807 817 807 817 662 c 256,0,1
EndSplineSet
EndChar

StartChar: paragraph
Encoding: 182 182 107
Width: 932
Flags: W
LayerCount: 2
Fore
SplineSet
365 -239 m 1,0,-1
 511 496 l 1,1,2
 241 542 241 542 241 747 c 0,3,4
 241 876 241 876 346.5 968 c 128,-1,5
 452 1060 452 1060 628 1085 c 1,6,-1
 660 1244 l 1,7,-1
 704 1244 l 1,8,-1
 673 1085 l 1,9,-1
 703 1086 l 2,10,11
 744 1086 744 1086 796 1080 c 1,12,-1
 828 1244 l 1,13,-1
 873 1244 l 1,14,-1
 839 1071 l 1,15,16
 891 1057 891 1057 948 1036 c 1,17,-1
 938 988 l 1,18,19
 898 1005 898 1005 830 1024 c 1,20,-1
 742 586 l 1,21,22
 794 603 794 603 869 643 c 1,23,-1
 859 586 l 1,24,25
 794 549 794 549 732 530 c 1,26,-1
 578 -239 l 1,27,-1
 534 -239 l 1,28,-1
 684 514 l 1,29,30
 597 496 597 496 556 496 c 1,31,-1
 409 -239 l 1,32,-1
 365 -239 l 1,0,-1
695 568 m 1,33,-1
 787 1031 l 1,34,35
 738 1040 738 1040 704 1040 c 0,36,37
 691 1040 691 1040 664 1039 c 1,38,-1
 567 553 l 1,39,40
 625 553 625 553 695 568 c 1,33,-1
EndSplineSet
EndChar

StartChar: registered
Encoding: 174 174 108
Width: 897
Flags: W
LayerCount: 2
Fore
SplineSet
580 445 m 0,0,1
 448 445 448 445 354.5 538.5 c 128,-1,2
 261 632 261 632 261 764 c 256,3,4
 261 896 261 896 354.5 990 c 128,-1,5
 448 1084 448 1084 580 1084 c 0,6,7
 714 1084 714 1084 807 990 c 128,-1,8
 900 896 900 896 900 764 c 256,9,10
 900 632 900 632 806.5 538.5 c 128,-1,11
 713 445 713 445 580 445 c 0,0,1
580 484 m 0,12,13
 695 484 695 484 777.5 567 c 128,-1,14
 860 650 860 650 860 764 c 256,15,16
 860 878 860 878 777.5 961 c 128,-1,17
 695 1044 695 1044 580 1044 c 0,18,19
 466 1044 466 1044 383.5 961 c 128,-1,20
 301 878 301 878 301 764 c 256,21,22
 301 650 301 650 383.5 567 c 128,-1,23
 466 484 466 484 580 484 c 0,12,13
529 737 m 1,24,-1
 501 596 l 1,25,-1
 394 596 l 1,26,-1
 403 639 l 1,27,-1
 456 639 l 1,28,-1
 511 915 l 1,29,-1
 458 915 l 1,30,-1
 466 959 l 1,31,-1
 598 959 l 2,32,33
 751 959 751 959 751 875 c 0,34,35
 751 800 751 800 650 750 c 1,36,-1
 685 639 l 1,37,-1
 747 639 l 1,38,-1
 738 596 l 1,39,-1
 641 596 l 1,40,-1
 591 737 l 1,41,-1
 529 737 l 1,24,-1
538 782 m 1,42,-1
 574 782 l 2,43,44
 697 782 697 782 697 866 c 0,45,46
 697 915 697 915 607 915 c 2,47,-1
 564 915 l 1,48,-1
 538 782 l 1,42,-1
EndSplineSet
EndChar

StartChar: copyright
Encoding: 169 169 109
Width: 1244
Flags: W
LayerCount: 2
Fore
SplineSet
725 -27 m 0,0,1
 495 -27 495 -27 330.5 137 c 128,-1,2
 166 301 166 301 166 533 c 256,3,4
 166 765 166 765 330.5 929 c 128,-1,5
 495 1093 495 1093 725 1093 c 0,6,7
 958 1093 958 1093 1122 929 c 128,-1,8
 1286 765 1286 765 1286 533 c 256,9,10
 1286 301 1286 301 1122 137 c 128,-1,11
 958 -27 958 -27 725 -27 c 0,0,1
725 18 m 0,12,13
 939 18 939 18 1090 169 c 128,-1,14
 1241 320 1241 320 1241 533 c 256,15,16
 1241 746 1241 746 1090 897 c 128,-1,17
 939 1048 939 1048 725 1048 c 0,18,19
 513 1048 513 1048 362 897 c 128,-1,20
 211 746 211 746 211 533 c 256,21,22
 211 320 211 320 362 169 c 128,-1,23
 513 18 513 18 725 18 c 0,12,13
890 246 m 1,24,25
 785 213 785 213 704 213 c 0,26,27
 580 213 580 213 508 279.5 c 128,-1,28
 436 346 436 346 436 462 c 0,29,30
 436 625 436 625 541 734.5 c 128,-1,31
 646 844 646 844 805 844 c 0,32,33
 896 844 896 844 1003 814 c 1,34,-1
 967 675 l 1,35,-1
 915 684 l 1,36,-1
 923 766 l 1,37,38
 854 798 854 798 792 798 c 0,39,40
 688 798 688 798 616 700 c 128,-1,41
 544 602 544 602 544 462 c 0,42,43
 544 271 544 271 722 271 c 0,44,45
 823 271 823 271 902 307 c 1,46,-1
 890 246 l 1,24,25
EndSplineSet
EndChar

StartChar: trademark
Encoding: 8482 8482 110
Width: 1333
Flags: W
LayerCount: 2
Fore
SplineSet
440 1021 m 1,0,-1
 307 1021 l 1,1,-1
 288 923 l 1,2,-1
 225 923 l 1,3,-1
 254 1066 l 1,4,-1
 751 1066 l 1,5,-1
 723 923 l 1,6,-1
 661 923 l 1,7,-1
 679 1021 l 1,8,-1
 546 1021 l 1,9,-1
 456 569 l 1,10,-1
 554 569 l 1,11,-1
 545 524 l 1,12,-1
 243 524 l 1,13,-1
 253 569 l 1,14,-1
 350 569 l 1,15,-1
 440 1021 l 1,0,-1
1011 569 m 1,16,-1
 942 956 l 1,17,-1
 857 524 l 1,18,-1
 688 524 l 1,19,-1
 697 569 l 1,20,-1
 794 569 l 1,21,-1
 884 1021 l 1,22,-1
 787 1021 l 1,23,-1
 796 1066 l 1,24,-1
 1036 1066 l 1,25,-1
 1092 747 l 1,26,-1
 1265 1066 l 1,27,-1
 1481 1066 l 1,28,-1
 1473 1021 l 1,29,-1
 1375 1021 l 1,30,-1
 1285 569 l 1,31,-1
 1383 569 l 1,32,-1
 1373 524 l 1,33,-1
 1178 524 l 1,34,-1
 1270 985 l 1,35,-1
 1041 569 l 1,36,-1
 1011 569 l 1,16,-1
EndSplineSet
EndChar

StartChar: acute
Encoding: 180 180 111
Width: 256
Flags: W
LayerCount: 2
Fore
SplineSet
118 999 m 1,0,1
 195 1083 195 1083 192 1046 c 1,2,3
 183 1014 183 1014 135.5 924 c 128,-1,4
 88 834 88 834 66 802 c 1,5,6
 55 796 55 796 62 848 c 1,7,8
 83 919 83 919 118 999 c 1,0,1
EndSplineSet
EndChar

StartChar: dieresis
Encoding: 168 168 112
Width: 862
Flags: W
LayerCount: 2
Fore
SplineSet
495 923 m 1,0,-1
 408 1033 l 1,1,-1
 520 1119 l 1,2,-1
 607 1003 l 1,3,-1
 495 923 l 1,0,-1
841 923 m 1,4,-1
 752 1035 l 1,5,-1
 866 1119 l 1,6,-1
 951 1004 l 1,7,-1
 841 923 l 1,4,-1
EndSplineSet
EndChar

StartChar: plusminus
Encoding: 177 177 113
Width: 932
Flags: W
LayerCount: 2
Fore
SplineSet
76 0 m 1,0,-1
 92 80 l 1,1,-1
 873 80 l 1,2,-1
 858 0 l 1,3,-1
 76 0 l 1,0,-1
469 213 m 1,4,-1
 525 493 l 1,5,-1
 174 493 l 1,6,-1
 189 573 l 1,7,-1
 541 573 l 1,8,-1
 596 852 l 1,9,-1
 676 852 l 1,10,-1
 621 573 l 1,11,-1
 971 573 l 1,12,-1
 956 493 l 1,13,-1
 605 493 l 1,14,-1
 549 213 l 1,15,-1
 469 213 l 1,4,-1
EndSplineSet
EndChar

StartChar: yen
Encoding: 165 165 114
Width: 965
Flags: W
LayerCount: 2
Fore
SplineSet
156 0 m 1,0,-1
 247 99 l 1,1,2
 269 97 269 97 279 97 c 0,3,4
 415 97 415 97 477 257 c 1,5,-1
 272 257 l 1,6,-1
 280 301 l 1,7,-1
 489 301 l 1,8,9
 495 346 495 346 499 409 c 1,10,-1
 301 409 l 1,11,-1
 310 453 l 1,12,-1
 499 453 l 1,13,14
 499 465 499 465 499 470 c 0,15,16
 499 567 499 567 463.5 631 c 128,-1,17
 428 695 428 695 375 695 c 256,18,19
 322 695 322 695 250 638 c 128,-1,20
 178 581 178 581 139 509 c 1,21,-1
 106 534 l 1,22,23
 172 650 172 650 268.5 724.5 c 128,-1,24
 365 799 365 799 452 799 c 0,25,26
 612 799 612 799 612 518 c 1,27,-1
 611 472 l 1,28,29
 736 799 736 799 971 799 c 0,30,31
 1045 799 1045 799 1100 765 c 1,32,-1
 1016 653 l 1,33,34
 967 684 967 684 915 684 c 0,35,36
 742 684 742 684 651 453 c 1,37,-1
 835 453 l 1,38,-1
 826 409 l 1,39,-1
 643 409 l 1,40,-1
 634 369 l 2,41,42
 627 335 627 335 609 301 c 1,43,-1
 805 301 l 1,44,-1
 796 257 l 1,45,-1
 585 257 l 1,46,47
 519 138 519 138 389 91 c 1,48,-1
 624 77 l 1,49,-1
 534 -18 l 1,50,-1
 156 0 l 1,0,-1
EndSplineSet
EndChar

StartChar: mu1
Encoding: 181 181 115
Width: 992
Flags: W
LayerCount: 2
Fore
SplineSet
100 -302 m 1,0,-1
 155 -76 l 1,1,-1
 270 500 l 2,2,3
 282 560 282 560 282 611 c 0,4,5
 282 693 282 693 206 782 c 1,6,-1
 368 790 l 1,7,8
 427 740 427 740 427 623 c 0,9,10
 427 576 427 576 409 481 c 2,11,-1
 355 213 l 2,12,13
 347 176 347 176 347 161 c 0,14,15
 347 106 347 106 391 106 c 0,16,17
 446 106 446 106 553.5 229 c 128,-1,18
 661 352 661 352 753 519 c 1,19,-1
 805 782 l 1,20,-1
 958 790 l 1,21,-1
 905 569 l 1,22,-1
 834 213 l 2,23,24
 818 132 818 132 818 106 c 0,25,26
 818 53 818 53 861 53 c 0,27,28
 931 53 931 53 1075 218 c 1,29,-1
 1062 151 l 1,30,31
 905 -18 905 -18 779 -18 c 0,32,33
 675 -18 675 -18 675 91 c 0,34,35
 675 128 675 128 692 213 c 2,36,-1
 727 391 l 1,37,-1
 717 391 l 1,38,39
 517 0 517 0 312 0 c 1,40,-1
 255 -284 l 1,41,-1
 100 -302 l 1,0,-1
EndSplineSet
EndChar

StartChar: logicalnot
Encoding: 172 172 116
Width: 932
Flags: W
LayerCount: 2
Fore
SplineSet
177 510 m 1,0,-1
 193 590 l 1,1,-1
 975 590 l 1,2,-1
 906 248 l 1,3,-1
 814 248 l 1,4,-1
 866 510 l 1,5,-1
 177 510 l 1,0,-1
EndSplineSet
EndChar

StartChar: florin
Encoding: 402 402 117
Width: 679
Flags: W
LayerCount: 2
Fore
SplineSet
158 -231 m 1,0,-1
 210 -18 l 1,1,-1
 286 364 l 1,2,-1
 108 364 l 1,3,-1
 117 409 l 1,4,-1
 294 409 l 1,5,-1
 298 427 l 2,6,7
 330 586 330 586 463 692.5 c 128,-1,8
 596 799 596 799 761 799 c 0,9,10
 818 799 818 799 860 784 c 1,11,-1
 764 678 l 1,12,13
 712 729 712 729 643 729 c 0,14,15
 500 729 500 729 457 512 c 2,16,-1
 436 409 l 1,17,-1
 623 409 l 1,18,-1
 614 364 l 1,19,-1
 427 364 l 1,20,-1
 313 -213 l 1,21,-1
 158 -231 l 1,0,-1
EndSplineSet
EndChar

StartChar: ellipsis
Encoding: 8230 8230 118
Width: 1474
Flags: W
LayerCount: 2
Fore
SplineSet
178 0 m 1,0,-1
 206 142 l 1,1,-1
 348 142 l 1,2,-1
 319 0 l 1,3,-1
 178 0 l 1,0,-1
667 0 m 1,4,-1
 695 142 l 1,5,-1
 837 142 l 1,6,-1
 808 0 l 1,7,-1
 667 0 l 1,4,-1
1155 0 m 1,8,-1
 1183 142 l 1,9,-1
 1326 142 l 1,10,-1
 1297 0 l 1,11,-1
 1155 0 l 1,8,-1
EndSplineSet
EndChar

StartChar: OE
Encoding: 338 338 119
Width: 1477
Flags: W
LayerCount: 2
Fore
SplineSet
816 0 m 1,0,-1
 831 70 l 1,1,2
 711 -27 711 -27 549 -27 c 0,3,4
 371 -27 371 -27 269 81 c 128,-1,5
 167 189 167 189 167 378 c 0,6,7
 167 661 167 661 358 877 c 128,-1,8
 549 1093 549 1093 799 1093 c 0,9,10
 931 1093 931 1093 1017 1007 c 1,11,-1
 1029 1066 l 1,12,-1
 1593 1066 l 1,13,-1
 1529 862 l 1,14,-1
 1484 862 l 1,15,16
 1490 891 1490 891 1490 913 c 0,17,18
 1490 969 1490 969 1424.5 990.5 c 128,-1,19
 1359 1012 1359 1012 1187 1012 c 2,20,-1
 1165 1012 l 1,21,-1
 1082 586 l 1,22,-1
 1402 586 l 1,23,-1
 1329 512 l 1,24,25
 1165 533 1165 533 1107 533 c 2,26,-1
 1071 533 l 1,27,-1
 1012 218 l 2,28,29
 1002 167 1002 167 1002 156 c 0,30,31
 1002 80 1002 80 1228 80 c 0,32,33
 1348 80 1348 80 1453 160 c 1,34,-1
 1442 103 l 1,35,36
 1318 -23 1318 -23 1203 -23 c 0,37,38
 1183 -23 1183 -23 1161 -21 c 2,39,-1
 816 0 l 1,0,-1
888 361 m 2,40,-1
 961 723 l 2,41,42
 974 786 974 786 974 841 c 0,43,44
 974 933 974 933 916.5 990.5 c 128,-1,45
 859 1048 859 1048 769 1048 c 0,46,47
 604 1048 604 1048 466.5 844 c 128,-1,48
 329 640 329 640 329 395 c 0,49,50
 329 218 329 218 396.5 117.5 c 128,-1,51
 464 17 464 17 585 17 c 0,52,53
 818 17 818 17 888 361 c 2,40,-1
EndSplineSet
EndChar

StartChar: oe
Encoding: 339 339 120
Width: 1350
Flags: W
LayerCount: 2
Fore
SplineSet
706 145 m 1,0,1
 535 -18 535 -18 370 -18 c 0,2,3
 273 -18 273 -18 209 55 c 128,-1,4
 145 128 145 128 145 237 c 0,5,6
 145 448 145 448 302.5 623.5 c 128,-1,7
 460 799 460 799 650 799 c 0,8,9
 794 799 794 799 859 630 c 1,10,11
 1025 799 1025 799 1183 799 c 0,12,13
 1246 799 1246 799 1286.5 758 c 128,-1,14
 1327 717 1327 717 1327 651 c 0,15,16
 1327 508 1327 508 1192.5 414 c 128,-1,17
 1058 320 1058 320 841 311 c 1,18,-1
 840 278 l 1,19,20
 840 66 840 66 998 66 c 0,21,22
 1113 66 1113 66 1327 200 c 1,23,-1
 1316 146 l 1,24,25
 1083 -18 1083 -18 917 -18 c 0,26,27
 758 -18 758 -18 706 145 c 1,0,1
431 35 m 0,28,29
 544 35 544 35 636 178.5 c 128,-1,30
 728 322 728 322 728 499 c 0,31,32
 728 607 728 607 689 672 c 128,-1,33
 650 737 650 737 584 737 c 0,34,35
 472 737 472 737 382 594 c 128,-1,36
 292 451 292 451 292 272 c 0,37,38
 292 35 292 35 431 35 c 0,28,29
844 355 m 1,39,40
 1004 368 1004 368 1097.5 438.5 c 128,-1,41
 1191 509 1191 509 1191 620 c 0,42,43
 1191 733 1191 733 1110 733 c 0,44,45
 1024 733 1024 733 941.5 616 c 128,-1,46
 859 499 859 499 844 355 c 1,39,40
EndSplineSet
EndChar

StartChar: endash
Encoding: 8211 8211 121
Width: 434
Flags: W
LayerCount: 2
Fore
SplineSet
434 154 m 1,0,-1
 0 154 l 1,1,-1
 0 234 l 1,2,-1
 434 234 l 1,3,-1
 434 154 l 1,0,-1
EndSplineSet
EndChar

StartChar: emdash
Encoding: 8212 8212 122
Width: 1862
Flags: W
LayerCount: 2
Fore
SplineSet
1866 572 m 1,0,-1
 -4 572 l 1,1,-1
 -4 732 l 1,2,-1
 1866 732 l 1,3,-1
 1866 572 l 1,0,-1
EndSplineSet
EndChar

StartChar: quotedblleft
Encoding: 8220 8220 123
Width: 662
Flags: W
LayerCount: 2
Fore
SplineSet
287 1182 m 1,0,1
 249 1151 249 1151 222 1115 c 128,-1,2
 195 1079 195 1079 195 1028 c 0,3,4
 195 999 195 999 204 965 c 128,-1,5
 213 931 213 931 213 893 c 0,6,7
 213 864 213 864 194.5 840.5 c 128,-1,8
 176 817 176 817 147 817 c 0,9,10
 123 817 123 817 107.5 825.5 c 128,-1,11
 92 834 92 834 83 848.5 c 128,-1,12
 74 863 74 863 70 882.5 c 128,-1,13
 66 902 66 902 66 924 c 0,14,15
 66 968 66 968 84 1009.5 c 128,-1,16
 102 1051 102 1051 130.5 1087 c 128,-1,17
 159 1123 159 1123 195.5 1152 c 128,-1,18
 232 1181 232 1181 270 1200 c 1,19,-1
 287 1182 l 1,0,1
569 1182 m 1,20,21
 532 1151 532 1151 506.5 1115 c 128,-1,22
 481 1079 481 1079 481 1028 c 0,23,24
 481 999 481 999 489.5 965 c 128,-1,25
 498 931 498 931 498 893 c 0,26,27
 498 864 498 864 479.5 840.5 c 128,-1,28
 461 817 461 817 432 817 c 0,29,30
 408 817 408 817 392 825.5 c 128,-1,31
 376 834 376 834 366.5 848.5 c 128,-1,32
 357 863 357 863 352.5 882.5 c 128,-1,33
 348 902 348 902 348 924 c 0,34,35
 348 967 348 967 366.5 1009 c 128,-1,36
 385 1051 385 1051 414 1087.5 c 128,-1,37
 443 1124 443 1124 480 1153 c 128,-1,38
 517 1182 517 1182 555 1200 c 1,39,-1
 569 1182 l 1,20,21
EndSplineSet
EndChar

StartChar: quotedblright
Encoding: 8221 8221 124
Width: 662
Flags: W
LayerCount: 2
Fore
SplineSet
377 819 m 1,0,1
 414 850 414 850 440.5 885 c 128,-1,2
 467 920 467 920 467 971 c 0,3,4
 467 1000 467 1000 458 1033.5 c 128,-1,5
 449 1067 449 1067 449 1108 c 0,6,7
 449 1137 449 1137 467.5 1160.5 c 128,-1,8
 486 1184 486 1184 512 1184 c 0,9,10
 537 1184 537 1184 553.5 1175.5 c 128,-1,11
 570 1167 570 1167 580 1152.5 c 128,-1,12
 590 1138 590 1138 594 1118.5 c 128,-1,13
 598 1099 598 1099 598 1077 c 0,14,15
 598 1032 598 1032 579.5 990.5 c 128,-1,16
 561 949 561 949 531.5 913 c 128,-1,17
 502 877 502 877 465 848 c 128,-1,18
 428 819 428 819 391 801 c 1,19,-1
 377 819 l 1,0,1
92 819 m 1,20,21
 129 850 129 850 154.5 885 c 128,-1,22
 180 920 180 920 180 971 c 0,23,24
 180 1000 180 1000 172 1033 c 128,-1,25
 164 1066 164 1066 164 1108 c 0,26,27
 164 1137 164 1137 182 1160.5 c 128,-1,28
 200 1184 200 1184 229 1184 c 0,29,30
 254 1184 254 1184 270 1175.5 c 128,-1,31
 286 1167 286 1167 295.5 1152.5 c 128,-1,32
 305 1138 305 1138 309 1118.5 c 128,-1,33
 313 1099 313 1099 313 1077 c 0,34,35
 313 1032 313 1032 294.5 990 c 128,-1,36
 276 948 276 948 246.5 912 c 128,-1,37
 217 876 217 876 180 847.5 c 128,-1,38
 143 819 143 819 106 801 c 1,39,-1
 92 819 l 1,20,21
EndSplineSet
EndChar

StartChar: divide
Encoding: 247 247 125
Width: 1093
Flags: W
LayerCount: 2
Fore
SplineSet
624 674 m 1,0,-1
 466 674 l 1,1,-1
 466 855 l 1,2,-1
 624 855 l 1,3,-1
 624 674 l 1,0,-1
933 383 m 1,4,-1
 157 383 l 1,5,-1
 157 489 l 1,6,-1
 933 489 l 1,7,-1
 933 383 l 1,4,-1
624 17 m 1,8,-1
 466 17 l 1,9,-1
 466 198 l 1,10,-1
 624 198 l 1,11,-1
 624 17 l 1,8,-1
EndSplineSet
EndChar

StartChar: lozenge
Encoding: 9674 9674 126
Width: 1118
Flags: W
LayerCount: 2
Fore
SplineSet
1003 699 m 1,0,-1
 560 197 l 1,1,-1
 117 699 l 1,2,-1
 560 1202 l 1,3,-1
 1003 699 l 1,0,-1
848 699 m 1,4,-1
 560 1036 l 1,5,-1
 271 699 l 1,6,-1
 560 364 l 1,7,-1
 848 699 l 1,4,-1
EndSplineSet
EndChar

StartChar: Euro
Encoding: 8364 8364 128
Width: 812
Flags: W
LayerCount: 2
Fore
SplineSet
210 464 m 1,0,1
 252 596 252 596 371.5 697.5 c 128,-1,2
 491 799 491 799 674 799 c 0,3,4
 773 799 773 799 885 769 c 1,5,-1
 845 624 l 1,6,-1
 795 624 l 1,7,8
 801 653 801 653 801 665 c 0,9,10
 801 701 801 701 757 726 c 128,-1,11
 713 751 713 751 649 751 c 0,12,13
 445 751 445 751 349 464 c 1,14,-1
 686 464 l 1,15,-1
 677 420 l 1,16,-1
 337 420 l 2,17,18
 335 418 335 418 332 404 c 2,19,-1
 325 365 l 1,20,-1
 325 360 l 1,21,-1
 665 360 l 1,22,-1
 656 315 l 1,23,-1
 319 315 l 1,24,-1
 319 289 l 2,25,26
 319 178 319 178 370 115.5 c 128,-1,27
 421 53 421 53 512 53 c 0,28,29
 636 53 636 53 765 135 c 1,30,-1
 755 72 l 1,31,32
 604 -18 604 -18 459 -18 c 0,33,34
 324 -18 324 -18 249.5 59 c 128,-1,35
 175 136 175 136 175 274 c 0,36,37
 175 300 175 300 175 315 c 1,38,-1
 111 315 l 1,39,-1
 120 360 l 1,40,-1
 182 360 l 1,41,-1
 182 364 l 1,42,43
 189 401 189 401 194 420 c 1,44,-1
 118 420 l 1,45,-1
 127 464 l 1,46,-1
 210 464 l 1,0,1
EndSplineSet
EndChar

StartChar: guilsinglleft
Encoding: 8249 8249 129
Width: 560
Flags: W
LayerCount: 2
Fore
SplineSet
375 71 m 1,0,1
 304 237 304 237 167 391 c 1,2,3
 358 507 358 507 437 653 c 1,4,-1
 587 711 l 1,5,6
 536 589 536 589 315 441 c 1,7,8
 423 310 423 310 499 138 c 1,9,-1
 375 71 l 1,0,1
EndSplineSet
EndChar

StartChar: guilsinglright
Encoding: 8250 8250 130
Width: 560
Flags: W
LayerCount: 2
Fore
SplineSet
339 711 m 1,0,1
 410 545 410 545 546 391 c 1,2,3
 356 275 356 275 276 128 c 1,4,-1
 128 71 l 1,5,6
 178 193 178 193 400 341 c 1,7,8
 293 470 293 470 215 643 c 1,9,-1
 339 711 l 1,0,1
EndSplineSet
EndChar

StartChar: daggerdbl
Encoding: 8225 8225 133
Width: 932
Flags: W
LayerCount: 2
Fore
SplineSet
349 -231 m 1,0,-1
 481 185 l 1,1,-1
 161 154 l 1,2,-1
 211 261 l 1,3,-1
 490 229 l 1,4,-1
 567 616 l 1,5,-1
 247 586 l 1,6,-1
 297 693 l 1,7,-1
 575 661 l 1,8,-1
 608 1066 l 1,9,-1
 758 1093 l 1,10,-1
 620 661 l 1,11,-1
 940 693 l 1,12,-1
 889 586 l 1,13,-1
 611 616 l 1,14,-1
 535 229 l 1,15,-1
 855 261 l 1,16,-1
 804 154 l 1,17,-1
 525 185 l 1,18,-1
 499 -213 l 1,19,-1
 349 -231 l 1,0,-1
EndSplineSet
EndChar

StartChar: middot.001
Encoding: 8729 8729 134
Width: 620
Flags: W
LayerCount: 2
Fore
SplineSet
429 516 m 1,0,-1
 190 516 l 1,1,-1
 190 789 l 1,2,-1
 429 789 l 1,3,-1
 429 516 l 1,0,-1
EndSplineSet
EndChar

StartChar: quotesinglbase
Encoding: 8218 8218 135
Width: 418
Flags: W
LayerCount: 2
Fore
SplineSet
103 128 m 1,0,-1
 247 231 l 1,1,-1
 353 90 l 1,2,3
 345 -56 345 -56 262.5 -134.5 c 128,-1,4
 180 -213 180 -213 36 -213 c 1,5,-1
 76 -168 l 1,6,7
 189 -158 189 -158 211 -18 c 1,8,-1
 103 128 l 1,0,-1
EndSplineSet
EndChar

StartChar: quotedblbase
Encoding: 8222 8222 136
Width: 684
Flags: W
LayerCount: 2
Fore
SplineSet
91 92 m 1,0,-1
 204 178 l 1,1,-1
 292 64 l 1,2,3
 270 -213 270 -213 31 -213 c 1,4,-1
 60 -168 l 1,5,6
 166 -148 166 -148 179 -16 c 1,7,-1
 91 92 l 1,0,-1
401 92 m 1,8,-1
 516 178 l 1,9,-1
 602 64 l 1,10,11
 581 -213 581 -213 341 -213 c 1,12,-1
 372 -168 l 1,13,14
 476 -148 476 -148 490 -16 c 1,15,-1
 401 92 l 1,8,-1
EndSplineSet
EndChar

StartChar: perthousand
Encoding: 8240 8240 137
Width: 1571
Flags: W
LayerCount: 2
Fore
SplineSet
385 533 m 0,0,1
 304 533 304 533 254.5 584.5 c 128,-1,2
 205 636 205 636 205 722 c 0,3,4
 205 865 205 865 286.5 965.5 c 128,-1,5
 368 1066 368 1066 483 1066 c 0,6,7
 567 1066 567 1066 617.5 1014.5 c 128,-1,8
 668 963 668 963 668 877 c 0,9,10
 668 733 668 733 585.5 633 c 128,-1,11
 503 533 503 533 385 533 c 0,0,1
311 715 m 0,12,13
 311 578 311 578 398 578 c 0,14,15
 463 578 463 578 517 671.5 c 128,-1,16
 571 765 571 765 571 881 c 0,17,18
 571 1022 571 1022 483 1022 c 0,19,20
 416 1022 416 1022 363.5 928 c 128,-1,21
 311 834 311 834 311 715 c 0,12,13
850 0 m 0,22,23
 769 0 769 0 719.5 51.5 c 128,-1,24
 670 103 670 103 670 189 c 0,25,26
 670 331 670 331 751 432 c 128,-1,27
 832 533 832 533 947 533 c 0,28,29
 1031 533 1031 533 1081.5 481.5 c 128,-1,30
 1132 430 1132 430 1132 344 c 0,31,32
 1132 200 1132 200 1049.5 100 c 128,-1,33
 967 0 967 0 850 0 c 0,22,23
776 182 m 0,34,35
 776 44 776 44 862 44 c 0,36,37
 929 44 929 44 982 138 c 128,-1,38
 1035 232 1035 232 1035 348 c 0,39,40
 1035 490 1035 490 948 490 c 0,41,42
 880 490 880 490 828 395.5 c 128,-1,43
 776 301 776 301 776 182 c 0,34,35
131 -27 m 1,44,-1
 1111 1093 l 1,45,-1
 1206 1093 l 1,46,-1
 225 -27 l 1,47,-1
 131 -27 l 1,44,-1
1376 0 m 0,48,49
 1294 0 1294 0 1244.5 51.5 c 128,-1,50
 1195 103 1195 103 1195 189 c 0,51,52
 1195 331 1195 331 1276.5 432 c 128,-1,53
 1358 533 1358 533 1473 533 c 0,54,55
 1557 533 1557 533 1607.5 481.5 c 128,-1,56
 1658 430 1658 430 1658 344 c 0,57,58
 1658 200 1658 200 1575.5 100 c 128,-1,59
 1493 0 1493 0 1376 0 c 0,48,49
1301 183 m 0,60,61
 1301 44 1301 44 1389 44 c 0,62,63
 1453 44 1453 44 1507 138 c 128,-1,64
 1561 232 1561 232 1561 347 c 0,65,66
 1561 490 1561 490 1473 490 c 0,67,68
 1406 490 1406 490 1353.5 395.5 c 128,-1,69
 1301 301 1301 301 1301 183 c 0,60,61
EndSplineSet
EndChar

StartChar: circumflex
Encoding: 710 710 139
Width: 862
Flags: W
LayerCount: 2
Fore
SplineSet
870 976 m 1,0,-1
 783 923 l 1,1,2
 729 984 729 984 693 1082 c 1,3,4
 652 1032 652 1032 574 953 c 0,5,6
 571 949 571 949 553 931 c 1,7,-1
 452 923 l 1,8,9
 607 1037 607 1037 674 1120 c 1,10,-1
 772 1182 l 1,11,12
 805 1069 805 1069 870 976 c 1,0,-1
EndSplineSet
EndChar

StartChar: cedilla
Encoding: 184 184 140
Width: 862
Flags: W
LayerCount: 2
Fore
SplineSet
456 0 m 1,0,-1
 414 -64 l 1,1,2
 485 -86 485 -86 485 -147 c 0,3,4
 485 -198 485 -198 428.5 -241 c 128,-1,5
 372 -284 372 -284 303 -284 c 0,6,7
 272 -284 272 -284 237 -277 c 1,8,-1
 292 -201 l 1,9,10
 326 -223 326 -223 352 -223 c 0,11,12
 416 -223 416 -223 416 -171 c 0,13,14
 416 -112 416 -112 318 -112 c 1,15,-1
 394 0 l 1,16,-1
 456 0 l 1,0,-1
EndSplineSet
EndChar

StartChar: brokenbar
Encoding: 166 166 141
Width: 355
Flags: W
LayerCount: 2
Fore
SplineSet
86 -213 m 1,0,-1
 203 373 l 1,1,-1
 301 373 l 1,2,-1
 184 -213 l 1,3,-1
 86 -213 l 1,0,-1
238 551 m 1,4,-1
 355 1137 l 1,5,-1
 453 1137 l 1,6,-1
 337 551 l 1,7,-1
 238 551 l 1,4,-1
EndSplineSet
EndChar

StartChar: minus
Encoding: 8722 8722 142
Width: 1490
Flags: W
LayerCount: 2
Fore
SplineSet
1308 572 m 1,0,-1
 182 572 l 1,1,-1
 182 732 l 1,2,-1
 1308 732 l 1,3,-1
 1308 572 l 1,0,-1
EndSplineSet
EndChar

StartChar: multiply
Encoding: 215 215 143
Width: 815
Flags: W
LayerCount: 2
Fore
SplineSet
404 334 m 1,0,-1
 220 150 l 1,1,-1
 126 244 l 1,2,-1
 310 428 l 1,3,-1
 123 615 l 1,4,-1
 217 709 l 1,5,-1
 404 522 l 1,6,-1
 597 715 l 1,7,-1
 691 621 l 1,8,-1
 498 428 l 1,9,-1
 684 242 l 1,10,-1
 590 148 l 1,11,-1
 404 334 l 1,0,-1
EndSplineSet
EndChar

StartChar: onesuperior
Encoding: 185 185 144
Width: 596
Flags: W
LayerCount: 2
Fore
SplineSet
573 1093 m 1,0,-1
 487 657 l 2,1,2
 476 607 476 607 476 589 c 0,3,4
 476 570 476 570 532 563 c 1,5,-1
 591 560 l 1,6,-1
 582 516 l 1,7,-1
 210 516 l 1,8,-1
 218 560 l 1,9,-1
 279 563 l 2,10,11
 328 567 328 567 337.5 578 c 128,-1,12
 347 589 347 589 362 657 c 2,13,-1
 418 938 l 2,14,15
 423 960 423 960 423 978 c 0,16,17
 423 1004 423 1004 355 1013 c 2,18,-1
 310 1021 l 1,19,-1
 319 1066 l 1,20,-1
 573 1093 l 1,0,-1
EndSplineSet
EndChar

StartChar: twosuperior
Encoding: 178 178 145
Width: 596
Flags: W
LayerCount: 2
Fore
SplineSet
187 516 m 1,0,-1
 207 617 l 1,1,2
 362 712 362 712 454.5 803.5 c 128,-1,3
 547 895 547 895 547 952 c 0,4,5
 547 1046 547 1046 463 1046 c 0,6,7
 352 1046 352 1046 331 928 c 1,8,-1
 278 928 l 1,9,-1
 304 1059 l 1,10,11
 400 1093 400 1093 484 1093 c 0,12,13
 674 1093 674 1093 674 959 c 0,14,15
 674 887 674 887 624.5 842 c 128,-1,16
 575 797 575 797 297 617 c 1,17,-1
 607 617 l 1,18,-1
 587 516 l 1,19,-1
 187 516 l 1,0,-1
EndSplineSet
EndChar

StartChar: threesuperior
Encoding: 179 179 146
Width: 596
Flags: W
LayerCount: 2
Fore
SplineSet
185 545 m 1,0,-1
 257 620 l 1,1,2
 337 556 337 556 418 556 c 0,3,4
 460 556 460 556 490.5 587 c 128,-1,5
 521 618 521 618 521 661 c 0,6,7
 521 776 521 776 345 776 c 0,8,9
 323 776 323 776 301 773 c 1,10,-1
 331 859 l 1,11,12
 350 860 350 860 365 860 c 0,13,14
 412 860 412 860 466 849 c 1,15,16
 547 886 547 886 547 961 c 0,17,18
 547 1046 547 1046 454 1046 c 0,19,20
 365 1046 365 1046 342 941 c 1,21,-1
 289 941 l 1,22,-1
 311 1057 l 1,23,24
 398 1093 398 1093 484 1093 c 0,25,26
 662 1093 662 1093 662 984 c 0,27,28
 662 893 662 893 520 829 c 1,29,30
 625 790 625 790 625 693 c 0,31,32
 625 616 625 616 554.5 563 c 128,-1,33
 484 510 484 510 378 510 c 0,34,35
 289 510 289 510 185 545 c 1,0,-1
EndSplineSet
EndChar

StartChar: onehalf
Encoding: 189 189 147
Width: 1262
Flags: W
LayerCount: 2
Fore
SplineSet
528 1093 m 1,0,-1
 442 657 l 2,1,2
 432 606 432 606 432 589 c 0,3,4
 432 570 432 570 488 563 c 1,5,-1
 547 560 l 1,6,-1
 538 516 l 1,7,-1
 165 516 l 1,8,-1
 174 560 l 1,9,-1
 235 563 l 2,10,11
 283 567 283 567 293 578 c 128,-1,12
 303 589 303 589 318 657 c 2,13,-1
 373 938 l 2,14,15
 378 960 378 960 378 978 c 0,16,17
 378 1004 378 1004 310 1013 c 2,18,-1
 265 1021 l 1,19,-1
 274 1066 l 1,20,-1
 528 1093 l 1,0,-1
160 -27 m 1,21,-1
 1180 1093 l 1,22,-1
 1280 1093 l 1,23,-1
 257 -27 l 1,24,-1
 160 -27 l 1,21,-1
778 0 m 1,25,-1
 797 103 l 1,26,27
 952 197 952 197 1045 288 c 128,-1,28
 1138 379 1138 379 1138 436 c 0,29,30
 1138 530 1138 530 1053 530 c 0,31,32
 942 530 942 530 922 413 c 1,33,-1
 868 413 l 1,34,-1
 895 544 l 1,35,36
 989 578 989 578 1075 578 c 0,37,38
 1264 578 1264 578 1264 445 c 0,39,40
 1264 373 1264 373 1214.5 328 c 128,-1,41
 1165 283 1165 283 887 103 c 1,42,-1
 1197 103 l 1,43,-1
 1177 0 l 1,44,-1
 778 0 l 1,25,-1
EndSplineSet
EndChar

StartChar: onequarter
Encoding: 188 188 148
Width: 1262
Flags: W
LayerCount: 2
Fore
SplineSet
546 1093 m 1,0,-1
 460 657 l 2,1,2
 450 606 450 606 450 589 c 0,3,4
 450 570 450 570 506 563 c 1,5,-1
 565 560 l 1,6,-1
 556 516 l 1,7,-1
 183 516 l 1,8,-1
 192 560 l 1,9,-1
 253 563 l 2,10,11
 301 567 301 567 311 578 c 128,-1,12
 321 589 321 589 336 657 c 2,13,-1
 391 938 l 2,14,15
 396 960 396 960 396 978 c 0,16,17
 396 1004 396 1004 328 1013 c 2,18,-1
 283 1021 l 1,19,-1
 292 1066 l 1,20,-1
 546 1093 l 1,0,-1
178 -27 m 1,21,-1
 1198 1093 l 1,22,-1
 1298 1093 l 1,23,-1
 275 -27 l 1,24,-1
 178 -27 l 1,21,-1
981 164 m 1,25,-1
 732 182 l 1,26,-1
 747 261 l 1,27,-1
 1102 578 l 1,28,-1
 1170 578 l 1,29,-1
 1102 236 l 1,30,-1
 1212 229 l 1,31,-1
 1168 149 l 1,32,-1
 1086 157 l 1,33,34
 1076 102 1076 102 1076 74 c 0,35,36
 1076 52 1076 52 1129 49 c 2,37,-1
 1189 45 l 1,38,-1
 1180 0 l 1,39,-1
 820 0 l 1,40,-1
 829 45 l 1,41,-1
 886 49 l 2,42,43
 937 52 937 52 952 64 c 128,-1,44
 967 76 967 76 973 117 c 0,45,46
 976 134 976 134 981 164 c 1,25,-1
997 244 m 1,47,-1
 1038 446 l 1,48,-1
 823 255 l 1,49,-1
 997 244 l 1,47,-1
EndSplineSet
EndChar

StartChar: threequarters
Encoding: 190 190 149
Width: 1262
Flags: W
LayerCount: 2
Fore
SplineSet
174 545 m 1,0,-1
 247 620 l 1,1,2
 326 556 326 556 407 556 c 0,3,4
 448 556 448 556 478.5 587 c 128,-1,5
 509 618 509 618 509 661 c 0,6,7
 509 776 509 776 333 776 c 0,8,9
 311 776 311 776 289 773 c 1,10,-1
 319 859 l 1,11,12
 338 860 338 860 355 860 c 0,13,14
 401 860 401 860 455 849 c 1,15,16
 535 886 535 886 535 961 c 0,17,18
 535 1046 535 1046 442 1046 c 0,19,20
 354 1046 354 1046 330 941 c 1,21,-1
 277 941 l 1,22,-1
 301 1057 l 1,23,24
 387 1093 387 1093 472 1093 c 0,25,26
 651 1093 651 1093 651 984 c 0,27,28
 651 893 651 893 508 829 c 1,29,30
 614 790 614 790 614 693 c 0,31,32
 614 616 614 616 543 563 c 128,-1,33
 472 510 472 510 366 510 c 0,34,35
 277 510 277 510 174 545 c 1,0,-1
178 -27 m 1,36,-1
 1198 1093 l 1,37,-1
 1298 1093 l 1,38,-1
 275 -27 l 1,39,-1
 178 -27 l 1,36,-1
981 164 m 1,40,-1
 732 182 l 1,41,-1
 747 261 l 1,42,-1
 1102 578 l 1,43,-1
 1170 578 l 1,44,-1
 1102 236 l 1,45,-1
 1212 229 l 1,46,-1
 1168 149 l 1,47,-1
 1086 157 l 1,48,49
 1076 102 1076 102 1076 74 c 0,50,51
 1076 52 1076 52 1129 49 c 2,52,-1
 1189 45 l 1,53,-1
 1180 0 l 1,54,-1
 820 0 l 1,55,-1
 829 45 l 1,56,-1
 886 49 l 2,57,58
 938 52 938 52 952.5 64 c 128,-1,59
 967 76 967 76 973 117 c 0,60,61
 976 134 976 134 981 164 c 1,40,-1
997 244 m 1,62,-1
 1038 446 l 1,63,-1
 823 255 l 1,64,-1
 997 244 l 1,62,-1
EndSplineSet
EndChar

StartChar: macron
Encoding: 175 175 150
Width: 1118
Flags: W
LayerCount: 2
Fore
SplineSet
1134 1659 m 1,0,-1
 -16 1659 l 1,1,-1
 -16 1789 l 1,2,-1
 1134 1789 l 1,3,-1
 1134 1659 l 1,0,-1
EndSplineSet
EndChar

StartChar: periodcentered
Encoding: 183 183 151
Width: 724
Flags: W
LayerCount: 2
Fore
SplineSet
482 832 m 1,0,-1
 243 832 l 1,1,-1
 243 1117 l 1,2,-1
 482 1117 l 1,3,-1
 482 832 l 1,0,-1
EndSplineSet
EndChar

StartChar: H22073
Encoding: 9633 9633 152
Width: 1237
Flags: W
LayerCount: 2
Fore
SplineSet
146 944 m 1,0,-1
 1090 944 l 1,1,-1
 1090 0 l 1,2,-1
 146 0 l 1,3,-1
 146 944 l 1,0,-1
222 868 m 1,4,-1
 222 76 l 1,5,-1
 1014 76 l 1,6,-1
 1014 868 l 1,7,-1
 222 868 l 1,4,-1
EndSplineSet
EndChar

StartChar: H18543
Encoding: 9642 9642 153
Width: 1089
Flags: W
LayerCount: 2
Fore
SplineSet
886 994 m 1,0,-1
 886 300 l 1,1,-1
 192 300 l 1,2,-1
 192 994 l 1,3,-1
 886 994 l 1,0,-1
EndSplineSet
EndChar

StartChar: H18551
Encoding: 9643 9643 154
Width: 1089
Flags: W
LayerCount: 2
Fore
SplineSet
888 996 m 1,0,-1
 888 301 l 1,1,-1
 193 301 l 1,2,-1
 193 996 l 1,3,-1
 888 996 l 1,0,-1
774 882 m 1,4,-1
 307 882 l 1,5,-1
 307 415 l 1,6,-1
 774 415 l 1,7,-1
 774 882 l 1,4,-1
EndSplineSet
EndChar

StartChar: H18533
Encoding: 9679 9679 155
Width: 1339
Flags: W
LayerCount: 2
Fore
SplineSet
204 719 m 0,0,1
 204 920 204 920 345 1061 c 128,-1,2
 486 1202 486 1202 685 1202 c 0,3,4
 885 1202 885 1202 1026 1061 c 128,-1,5
 1167 920 1167 920 1167 719 c 0,6,7
 1167 521 1167 521 1026 380 c 128,-1,8
 885 239 885 239 685 239 c 0,9,10
 486 239 486 239 345 380 c 128,-1,11
 204 521 204 521 204 719 c 0,0,1
EndSplineSet
EndChar

StartChar: openbullet
Encoding: 9702 9702 156
Width: 1089
Flags: W
LayerCount: 2
Fore
SplineSet
544 1171 m 0,0,1
 700 1171 700 1171 810.5 1060.5 c 128,-1,2
 921 950 921 950 921 794 c 256,3,4
 921 638 921 638 810.5 528 c 128,-1,5
 700 418 700 418 544 418 c 256,6,7
 388 418 388 418 278 528 c 128,-1,8
 168 638 168 638 168 794 c 256,9,10
 168 950 168 950 277.5 1060.5 c 128,-1,11
 387 1171 387 1171 544 1171 c 0,0,1
544 1057 m 0,12,13
 435 1057 435 1057 358.5 979.5 c 128,-1,14
 282 902 282 902 282 794 c 0,15,16
 282 685 282 685 359 608.5 c 128,-1,17
 436 532 436 532 544 532 c 256,18,19
 652 532 652 532 729.5 608.5 c 128,-1,20
 807 685 807 685 807 794 c 0,21,22
 807 902 807 902 730.5 979.5 c 128,-1,23
 654 1057 654 1057 544 1057 c 0,12,13
EndSplineSet
EndChar

StartChar: currency
Encoding: 164 164 157
Width: 932
Flags: W
LayerCount: 2
Fore
SplineSet
769 322 m 1,0,-1
 879 184 l 1,1,-1
 841 153 l 1,2,-1
 732 292 l 1,3,4
 616 214 616 214 504 214 c 0,5,6
 394 214 394 214 310 292 c 1,7,-1
 145 153 l 1,8,-1
 120 184 l 1,9,-1
 286 322 l 1,10,11
 243 397 243 397 243 470 c 0,12,13
 243 613 243 613 369 743 c 1,14,-1
 259 882 l 1,15,-1
 297 913 l 1,16,-1
 407 775 l 1,17,18
 521 852 521 852 634 852 c 0,19,20
 744 852 744 852 828 775 c 1,21,-1
 994 913 l 1,22,-1
 1019 882 l 1,23,-1
 852 743 l 1,24,25
 895 668 895 668 895 596 c 0,26,27
 895 455 895 455 769 322 c 1,0,-1
818 579 m 0,28,29
 818 666 818 666 762 721.5 c 128,-1,30
 706 777 706 777 620 777 c 0,31,32
 502 777 502 777 411 688 c 128,-1,33
 320 599 320 599 320 485 c 0,34,35
 320 400 320 400 376.5 344.5 c 128,-1,36
 433 289 433 289 519 289 c 0,37,38
 635 289 635 289 726.5 377.5 c 128,-1,39
 818 466 818 466 818 579 c 0,28,29
EndSplineSet
EndChar

StartChar: uniFFFC
Encoding: 65532 65532 158
Width: 2048
Flags: W
LayerCount: 2
Fore
SplineSet
2048 1150 m 1,0,-1
 1948 1150 l 1,1,-1
 1948 1373 l 1,2,-1
 1725 1373 l 1,3,-1
 1725 1473 l 1,4,-1
 2048 1473 l 1,5,-1
 2048 1150 l 1,0,-1
1473 1373 m 1,6,-1
 1150 1373 l 1,7,-1
 1150 1473 l 1,8,-1
 1473 1473 l 1,9,-1
 1473 1373 l 1,6,-1
2048 575 m 1,10,-1
 1948 575 l 1,11,-1
 1948 898 l 1,12,-1
 2048 898 l 1,13,-1
 2048 575 l 1,10,-1
1782 611 m 2,14,15
 1782 370 1782 370 1571 370 c 0,16,17
 1485 370 1485 370 1433 415 c 1,18,-1
 1506 494 l 1,19,20
 1531 468 1531 468 1571 468 c 0,21,22
 1666 468 1666 468 1666 606 c 2,23,-1
 1666 1090 l 1,24,-1
 1782 1090 l 1,25,-1
 1782 611 l 2,14,15
898 1373 m 1,26,-1
 575 1373 l 1,27,-1
 575 1473 l 1,28,-1
 898 1473 l 1,29,-1
 898 1373 l 1,26,-1
2048 0 m 1,30,-1
 1725 0 l 1,31,-1
 1725 100 l 1,32,-1
 1948 100 l 1,33,-1
 1948 323 l 1,34,-1
 2048 323 l 1,35,-1
 2048 0 l 1,30,-1
1423 591 m 0,36,37
 1423 382 1423 382 1149 382 c 2,38,-1
 909 382 l 1,39,-1
 909 1090 l 1,40,-1
 1144 1090 l 2,41,42
 1393 1090 1393 1090 1393 904 c 0,43,44
 1393 813 1393 813 1304 759 c 1,45,46
 1423 713 1423 713 1423 591 c 0,36,37
323 1373 m 1,47,-1
 100 1373 l 1,48,-1
 100 1150 l 1,49,-1
 0 1150 l 1,50,-1
 0 1473 l 1,51,-1
 323 1473 l 1,52,-1
 323 1373 l 1,47,-1
1473 0 m 1,53,-1
 1150 0 l 1,54,-1
 1150 100 l 1,55,-1
 1473 100 l 1,56,-1
 1473 0 l 1,53,-1
854 735 m 0,57,58
 854 562 854 562 772 466 c 128,-1,59
 690 370 690 370 537 370 c 256,60,61
 384 370 384 370 303.5 466 c 128,-1,62
 223 562 223 562 223 735 c 0,63,64
 223 910 223 910 303.5 1006 c 128,-1,65
 384 1102 384 1102 537 1102 c 256,66,67
 690 1102 690 1102 772 1006 c 128,-1,68
 854 910 854 910 854 735 c 0,57,58
100 575 m 1,69,-1
 0 575 l 1,70,-1
 0 898 l 1,71,-1
 100 898 l 1,72,-1
 100 575 l 1,69,-1
898 0 m 1,73,-1
 575 0 l 1,74,-1
 575 100 l 1,75,-1
 898 100 l 1,76,-1
 898 0 l 1,73,-1
323 0 m 1,77,-1
 0 0 l 1,78,-1
 0 323 l 1,79,-1
 100 323 l 1,80,-1
 100 100 l 1,81,-1
 323 100 l 1,82,-1
 323 0 l 1,77,-1
1277 893 m 0,83,84
 1277 992 1277 992 1114 992 c 2,85,-1
 1025 992 l 1,86,-1
 1025 798 l 1,87,-1
 1126 798 l 2,88,89
 1277 798 1277 798 1277 893 c 0,83,84
1307 591 m 0,90,91
 1307 700 1307 700 1136 700 c 2,92,-1
 1025 700 l 1,93,-1
 1025 480 l 1,94,-1
 1149 480 l 2,95,96
 1307 480 1307 480 1307 591 c 0,90,91
738 735 m 0,97,98
 738 1004 738 1004 537 1004 c 0,99,100
 339 1004 339 1004 339 735 c 0,101,102
 339 468 339 468 537 468 c 0,103,104
 738 468 738 468 738 735 c 0,97,98
EndSplineSet
EndChar

StartChar: dotbelowcomb
Encoding: 65538 -1 160
Width: 0
Flags: W
LayerCount: 2
Fore
SplineSet
666 -382 m 1,0,-1
 452 -382 l 1,1,-1
 452 -187 l 1,2,-1
 666 -187 l 1,3,-1
 666 -382 l 1,0,-1
EndSplineSet
EndChar

StartChar: zerowidthnonjoiner
Encoding: 8204 8204 175
Width: 0
GlyphClass: 2
Flags: W
LayerCount: 2
Fore
SplineSet
36 1289 m 1,0,-1
 36 -275 l 1,1,-1
 -36 -275 l 1,2,-1
 -36 1289 l 1,3,-1
 36 1289 l 1,0,-1
EndSplineSet
EndChar

StartChar: zerowidthjoiner
Encoding: 8205 8205 176
Width: 0
GlyphClass: 2
Flags: W
LayerCount: 2
Fore
SplineSet
36 -275 m 1,0,-1
 -36 -275 l 1,1,-1
 -36 1114 l 1,2,-1
 -170 978 l 1,3,-1
 -219 1027 l 1,4,-1
 -48 1196 l 1,5,-1
 -219 1364 l 1,6,-1
 -170 1413 l 1,7,-1
 0 1242 l 1,8,-1
 170 1413 l 1,9,-1
 219 1364 l 1,10,-1
 48 1196 l 1,11,-1
 219 1027 l 1,12,-1
 170 978 l 1,13,-1
 36 1114 l 1,14,-1
 36 -275 l 1,0,-1
EndSplineSet
EndChar

StartChar: lefttorightmark
Encoding: 8206 8206 177
Width: 0
GlyphClass: 2
Flags: W
LayerCount: 2
Fore
SplineSet
430 1198 m 1,0,-1
 213 984 l 1,1,-1
 164 1033 l 1,2,-1
 301 1163 l 1,3,-1
 35 1163 l 1,4,-1
 35 -275 l 1,5,-1
 -36 -275 l 1,6,-1
 -36 1234 l 1,7,-1
 301 1234 l 1,8,-1
 164 1364 l 1,9,-1
 213 1413 l 1,10,-1
 430 1198 l 1,0,-1
EndSplineSet
EndChar

StartChar: righttoleftmark
Encoding: 8207 8207 178
Width: 0
GlyphClass: 2
Flags: W
LayerCount: 2
Fore
SplineSet
35 -275 m 1,0,-1
 -36 -275 l 1,1,-1
 -36 1163 l 1,2,-1
 -302 1163 l 1,3,-1
 -165 1033 l 1,4,-1
 -214 984 l 1,5,-1
 -431 1198 l 1,6,-1
 -214 1413 l 1,7,-1
 -165 1364 l 1,8,-1
 -302 1234 l 1,9,-1
 35 1234 l 1,10,-1
 35 -275 l 1,0,-1
EndSplineSet
EndChar

StartChar: afii57388.001
Encoding: 1644 1644 179
Width: 353
GlyphClass: 2
Flags: W
LayerCount: 2
Fore
SplineSet
210 654 m 0,0,1
 200 627 200 627 185 603 c 0,2,3
 180 597 180 597 173.5 593.5 c 128,-1,4
 167 590 167 590 162 590 c 128,-1,5
 157 590 157 590 154.5 593 c 128,-1,6
 152 596 152 596 155 603 c 0,7,8
 187 660 187 660 202.5 713.5 c 128,-1,9
 218 767 218 767 218 800 c 1,10,11
 194 806 194 806 179 816 c 128,-1,12
 164 826 164 826 155 837.5 c 128,-1,13
 146 849 146 849 143 859 c 128,-1,14
 140 869 140 869 140 874 c 0,15,16
 140 890 140 890 145.5 907 c 128,-1,17
 151 924 151 924 160.5 937.5 c 128,-1,18
 170 951 170 951 183.5 959.5 c 128,-1,19
 197 968 197 968 213 968 c 0,20,21
 272 968 272 968 272 874 c 0,22,23
 272 859 272 859 268 835 c 128,-1,24
 264 811 264 811 256 781.5 c 128,-1,25
 248 752 248 752 236.5 719.5 c 128,-1,26
 225 687 225 687 210 654 c 0,0,1
EndSplineSet
EndChar

StartChar: afii57409
Encoding: 1569 1569 180
Width: 779
GlyphClass: 2
Flags: W
AnchorPoint: "Anchor-3" 450 -360 basechar 0
AnchorPoint: "Anchor-2" 450 645 basechar 0
LayerCount: 2
Fore
SplineSet
716 188 m 1,0,-1
 643 59 l 1,1,2
 417 59 417 59 293 -20 c 0,3,4
 241 -53 241 -53 235 -53 c 0,5,6
 223 -53 223 -53 223 -35 c 0,7,8
 223 -18 223 -18 251.5 26 c 128,-1,9
 280 70 280 70 299 84 c 1,10,11
 202 143 202 143 202 178 c 0,12,13
 202 195 202 195 228 235 c 0,14,15
 259 282 259 282 301 319 c 0,16,17
 462 463 462 463 530 463 c 0,18,19
 567 463 567 463 603 425 c 0,20,21
 635 392 635 392 635 373 c 0,22,23
 635 351 635 351 584.5 309.5 c 128,-1,24
 534 268 534 268 516 268 c 0,25,26
 508 268 508 268 499.5 299 c 128,-1,27
 491 330 491 330 458 330 c 0,28,29
 417 330 417 330 376.5 306 c 128,-1,30
 336 282 336 282 336 262 c 0,31,32
 336 241 336 241 369 214 c 128,-1,33
 402 187 402 187 446 178 c 1,34,35
 508 188 508 188 716 188 c 1,0,-1
EndSplineSet
EndChar

StartChar: afii57440
Encoding: 1600 1600 181
Width: 518
GlyphClass: 2
Flags: W
LayerCount: 2
Fore
SplineSet
0 0 m 2,0,1
 -47 0 -47 0 -47 43 c 2,2,-1
 -47 166 l 2,3,4
 -47 213 -47 213 0 213 c 2,5,-1
 518 213 l 1,6,-1
 518 0 l 1,7,-1
 0 0 l 2,0,1
EndSplineSet
EndChar

StartChar: afii57453
Encoding: 1613 1613 182
Width: 0
GlyphClass: 4
Flags: W
AnchorPoint: "Anchor-3" 0 0 mark 0
AnchorPoint: "Anchor-1" 0 0 mark 0
LayerCount: 2
Fore
SplineSet
177 -26 m 1,0,-1
 -210 -142 l 1,1,-1
 -174 -58 l 1,2,-1
 213 58 l 1,3,-1
 177 -26 l 1,0,-1
177 118 m 1,4,-1
 -210 1 l 1,5,-1
 -174 85 l 1,6,-1
 213 202 l 1,7,-1
 177 118 l 1,4,-1
EndSplineSet
EndChar

StartChar: afii57455.001
Encoding: 65539 -1 183
Width: 496
GlyphClass: 4
Flags: W
LayerCount: 2
Fore
SplineSet
435 1739 m 1,0,-1
 427 1636 l 1,1,-1
 343 1692 l 1,2,3
 217 1540 217 1540 136 1540 c 0,4,5
 116 1540 116 1540 74 1552 c 1,6,7
 181 1612 181 1612 297 1715 c 1,8,9
 234 1764 234 1764 234 1810 c 0,10,11
 234 1873 234 1873 281 1941 c 0,12,13
 313 1986 313 1986 355 1986 c 0,14,15
 427 1986 427 1986 427 1894 c 0,16,17
 427 1844 427 1844 394 1771 c 1,18,19
 409 1761 409 1761 435 1739 c 1,0,-1
362 1832 m 0,20,21
 362 1855 362 1855 346 1875.5 c 128,-1,22
 330 1896 330 1896 306 1896 c 0,23,24
 287 1896 287 1896 287 1875 c 0,25,26
 287 1843 287 1843 355 1797 c 1,27,28
 362 1818 362 1818 362 1832 c 0,20,21
EndSplineSet
EndChar

StartChar: afii57458.001
Encoding: 65540 -1 184
Width: 0
GlyphClass: 4
Flags: W
LayerCount: 2
Fore
SplineSet
336 1442 m 0,0,1
 336 1362 336 1362 295 1303 c 0,2,3
 248 1235 248 1235 174 1235 c 0,4,5
 123 1235 123 1235 92 1266.5 c 128,-1,6
 61 1298 61 1298 61 1346 c 0,7,8
 61 1419 61 1419 111 1493 c 0,9,10
 163 1577 163 1577 236 1577 c 0,11,12
 283 1577 283 1577 309 1532 c 0,13,14
 323 1512 323 1512 329.5 1489.5 c 128,-1,15
 336 1467 336 1467 336 1442 c 0,0,1
272 1409 m 0,16,17
 272 1440 272 1440 253.5 1458.5 c 128,-1,18
 235 1477 235 1477 215 1477 c 0,19,20
 184 1477 184 1477 158 1450 c 0,21,22
 129 1423 129 1423 129 1380 c 0,23,24
 129 1370 129 1370 135 1360 c 128,-1,25
 141 1350 141 1350 149.5 1341.5 c 128,-1,26
 158 1333 158 1333 168.5 1328 c 128,-1,27
 179 1323 179 1323 188 1323 c 0,28,29
 203 1323 203 1323 218 1330 c 128,-1,30
 233 1337 233 1337 245 1348.5 c 128,-1,31
 257 1360 257 1360 264.5 1375.5 c 128,-1,32
 272 1391 272 1391 272 1409 c 0,16,17
EndSplineSet
EndChar

StartChar: afii57381
Encoding: 1642 1642 185
Width: 1024
GlyphClass: 2
Flags: W
LayerCount: 2
Fore
SplineSet
220 -132 m 1,0,-1
 781 1335 l 1,1,-1
 867 1301 l 1,2,-1
 307 -166 l 1,3,-1
 220 -132 l 1,0,-1
939 52 m 0,4,5
 939 11 939 11 909.5 -18.5 c 128,-1,6
 880 -48 880 -48 839 -48 c 0,7,8
 797 -48 797 -48 767.5 -18.5 c 128,-1,9
 738 11 738 11 738 53 c 0,10,11
 738 94 738 94 767.5 123.5 c 128,-1,12
 797 153 797 153 838 153 c 0,13,14
 881 153 881 153 910 123.5 c 128,-1,15
 939 94 939 94 939 52 c 0,4,5
321 1135 m 0,16,17
 321 1095 321 1095 291.5 1065.5 c 128,-1,18
 262 1036 262 1036 221 1036 c 0,19,20
 179 1036 179 1036 149.5 1065.5 c 128,-1,21
 120 1095 120 1095 120 1137 c 0,22,23
 120 1178 120 1178 149.5 1207.5 c 128,-1,24
 179 1237 179 1237 220 1237 c 0,25,26
 263 1237 263 1237 292 1207.5 c 128,-1,27
 321 1178 321 1178 321 1135 c 0,16,17
EndSplineSet
EndChar

StartChar: afii57461
Encoding: 1643 1643 186
Width: 985
GlyphClass: 2
Flags: W
LayerCount: 2
Fore
SplineSet
118 -521 m 1,0,-1
 771 502 l 1,1,-1
 885 502 l 1,2,-1
 232 -521 l 1,3,-1
 118 -521 l 1,0,-1
EndSplineSet
EndChar

StartChar: afii63167
Encoding: 1645 1645 187
Width: 1118
GlyphClass: 2
Flags: W
LayerCount: 2
Fore
SplineSet
694 729 m 1,0,-1
 1057 733 l 1,1,-1
 1057 610 l 1,2,-1
 702 612 l 1,3,-1
 971 352 l 1,4,-1
 883 264 l 1,5,-1
 616 539 l 1,6,-1
 623 168 l 1,7,-1
 498 168 l 1,8,-1
 502 539 l 1,9,-1
 236 264 l 1,10,-1
 147 352 l 1,11,-1
 422 614 l 1,12,-1
 63 610 l 1,13,-1
 63 733 l 1,14,-1
 420 729 l 1,15,-1
 170 975 l 1,16,-1
 258 1065 l 1,17,-1
 502 817 l 1,18,-1
 498 1176 l 1,19,-1
 623 1176 l 1,20,-1
 616 813 l 1,21,-1
 860 1065 l 1,22,-1
 948 975 l 1,23,-1
 694 729 l 1,0,-1
EndSplineSet
EndChar

StartChar: afii57459
Encoding: 65541 -1 188
Width: 573
GlyphClass: 2
Flags: W
LayerCount: 2
Fore
SplineSet
524 367 m 0,0,1
 524 329 524 329 519.5 292 c 128,-1,2
 515 255 515 255 504 217 c 0,3,4
 478 134 478 134 444 100 c 0,5,6
 338 0 338 0 6 0 c 0,7,8
 -70 0 -70 0 -70 106 c 0,9,10
 -70 213 -70 213 6 213 c 0,11,12
 208 213 208 213 322 230 c 128,-1,13
 436 247 436 247 467 281 c 1,14,15
 461 300 461 300 456 313.5 c 128,-1,16
 451 327 451 327 446 337 c 128,-1,17
 441 347 441 347 436.5 354.5 c 128,-1,18
 432 362 432 362 428 369 c 1,19,20
 416 343 416 343 379 318 c 0,21,22
 335 289 335 289 293 289 c 0,23,24
 221 289 221 289 184 339.5 c 128,-1,25
 147 390 147 390 147 475 c 0,26,27
 147 507 147 507 158 551.5 c 128,-1,28
 169 596 169 596 189.5 636.5 c 128,-1,29
 210 677 210 677 239.5 705 c 128,-1,30
 269 733 269 733 307 733 c 0,31,32
 339 733 339 733 373.5 707.5 c 128,-1,33
 408 682 408 682 446 621 c 0,34,35
 524 492 524 492 524 367 c 0,0,1
388 477 m 1,36,37
 376 505 376 505 364 521 c 128,-1,38
 352 537 352 537 340 544 c 128,-1,39
 328 551 328 551 315 552.5 c 128,-1,40
 302 554 302 554 289 554 c 0,41,42
 257 554 257 554 236 535.5 c 128,-1,43
 215 517 215 517 215 485 c 0,44,45
 215 459 215 459 234.5 447 c 128,-1,46
 254 435 254 435 282 435 c 128,-1,47
 310 435 310 435 339 445.5 c 128,-1,48
 368 456 368 456 388 477 c 1,36,37
EndSplineSet
EndChar

StartChar: afii57543
Encoding: 65542 -1 189
Width: 606
Flags: W
LayerCount: 2
Fore
SplineSet
541 0 m 2,0,1
 357 0 357 0 299 137 c 1,2,3
 223 0 223 0 74 0 c 2,4,-1
 6 0 l 2,5,6
 -70 0 -70 0 -70 106 c 0,7,8
 -70 213 -70 213 6 213 c 2,9,-1
 145 213 l 2,10,11
 183 213 183 213 210 219 c 128,-1,12
 237 225 237 225 257 239 c 128,-1,13
 277 253 277 253 291 277.5 c 128,-1,14
 305 302 305 302 317 340 c 0,15,16
 330 377 330 377 356 377 c 0,17,18
 375 377 375 377 375 356 c 0,19,20
 375 350 375 350 373 337 c 128,-1,21
 371 324 371 324 371 313 c 0,22,23
 371 283 371 283 377.5 263.5 c 128,-1,24
 384 244 384 244 401 233 c 128,-1,25
 418 222 418 222 447.5 217.5 c 128,-1,26
 477 213 477 213 524 213 c 2,27,-1
 606 213 l 1,28,-1
 606 0 l 1,29,-1
 541 0 l 2,0,1
EndSplineSet
EndChar

StartChar: afii57534
Encoding: 1749 1749 190
Width: 586
GlyphClass: 2
Flags: W
LayerCount: 2
Fore
SplineSet
531 305 m 0,0,1
 531 172 531 172 467 78 c 0,2,3
 399 -25 399 -25 299 -25 c 0,4,5
 143 -25 143 -25 143 141 c 0,6,7
 143 247 143 247 232 424 c 1,8,9
 215 433 215 433 215 471 c 0,10,11
 215 487 215 487 220 508.5 c 128,-1,12
 225 530 225 530 236 559 c 0,13,14
 256 616 256 616 272 616 c 0,15,16
 284 616 284 616 311 586 c 0,17,18
 325 572 325 572 343.5 558 c 128,-1,19
 362 544 362 544 387 530 c 0,20,21
 426 509 426 509 453.5 487 c 128,-1,22
 481 465 481 465 498.5 438 c 128,-1,23
 516 411 516 411 523.5 378.5 c 128,-1,24
 531 346 531 346 531 305 c 0,0,1
463 252 m 0,25,26
 463 299 463 299 285 393 c 1,27,28
 274 385 274 385 264.5 368.5 c 128,-1,29
 255 352 255 352 244 328 c 0,30,31
 233 303 233 303 228 284.5 c 128,-1,32
 223 266 223 266 223 252 c 0,33,34
 223 184 223 184 299 184 c 0,35,36
 319 184 319 184 345 190 c 128,-1,37
 371 196 371 196 401 207 c 0,38,39
 463 231 463 231 463 252 c 0,25,26
EndSplineSet
EndChar

StartChar: afii64240
Encoding: 65543 -1 191
Width: 382
Flags: W
LayerCount: 2
Fore
SplineSet
197 1 m 1,0,-1
 70 127 l 1,1,-1
 197 255 l 1,2,-1
 323 127 l 1,3,-1
 197 1 l 1,0,-1
EndSplineSet
EndChar

StartChar: afii64241
Encoding: 65544 -1 192
Width: 495
Flags: W
LayerCount: 2
Fore
SplineSet
349 12 m 1,0,-1
 239 125 l 1,1,-1
 124 12 l 1,2,-1
 11 127 l 1,3,-1
 134 248 l 1,4,-1
 245 135 l 1,5,-1
 361 248 l 1,6,-1
 472 133 l 1,7,-1
 349 12 l 1,0,-1
EndSplineSet
EndChar

StartChar: afii63954
Encoding: 65545 -1 193
Width: 510
Flags: W
LayerCount: 2
Fore
SplineSet
368 14 m 1,0,-1
 253 123 l 1,1,-1
 143 6 l 1,2,-1
 25 116 l 1,3,-1
 144 242 l 1,4,-1
 259 133 l 1,5,-1
 371 251 l 1,6,-1
 486 140 l 1,7,-1
 368 14 l 1,0,-1
257 223 m 1,8,-1
 140 334 l 1,9,-1
 258 459 l 1,10,-1
 376 349 l 1,11,-1
 257 223 l 1,8,-1
EndSplineSet
EndChar

StartChar: afii57382
Encoding: 65546 -1 194
Width: 517
Flags: W
LayerCount: 2
Fore
SplineSet
256 -115 m 1,0,-1
 366 0 l 1,1,-1
 489 -123 l 1,2,-1
 378 -236 l 1,3,-1
 262 -125 l 1,4,-1
 151 -236 l 1,5,-1
 28 -117 l 1,6,-1
 141 0 l 1,7,-1
 256 -115 l 1,0,-1
264 -213 m 1,8,-1
 387 -336 l 1,9,-1
 274 -449 l 1,10,-1
 151 -330 l 1,11,-1
 264 -213 l 1,8,-1
EndSplineSet
EndChar

StartChar: afii64242
Encoding: 65547 -1 195
Width: 389
Flags: W
LayerCount: 2
Fore
SplineSet
352 330 m 0,0,1
 352 248 352 248 329 181 c 128,-1,2
 306 114 306 114 258 61 c 0,3,4
 203 0 203 0 74 0 c 2,5,-1
 6 0 l 2,6,7
 -70 0 -70 0 -70 106 c 0,8,9
 -70 213 -70 213 6 213 c 2,10,-1
 88 213 l 2,11,12
 227 213 227 213 272 231 c 1,13,14
 272 302 272 302 219 373 c 1,15,16
 284 543 284 543 295 543 c 256,17,18
 306 543 306 543 328 485 c 0,19,20
 352 417 352 417 352 330 c 0,0,1
EndSplineSet
EndChar

StartChar: afii62881
Encoding: 59416 59416 196
Width: 0
GlyphClass: 4
Flags: W
AnchorPoint: "Anchor-2" 0 0 mark 0
AnchorPoint: "Anchor-0" 0 0 mark 0
LayerCount: 2
Fore
SplineSet
181 207 m 0,0,1
 181 187 181 187 171 162.5 c 128,-1,2
 161 138 161 138 138 109 c 0,3,4
 118 83 118 83 99 69 c 128,-1,5
 80 55 80 55 60 55 c 0,6,7
 42 55 42 55 26.5 58.5 c 128,-1,8
 11 62 11 62 -1 70 c 1,9,10
 -38 38 -38 38 -67.5 20 c 128,-1,11
 -97 2 -97 2 -128 2 c 0,12,13
 -145 2 -145 2 -159 9 c 128,-1,14
 -173 16 -173 16 -183 28 c 128,-1,15
 -193 40 -193 40 -198.5 55 c 128,-1,16
 -204 70 -204 70 -204 86 c 0,17,18
 -204 103 -204 103 -200 127 c 128,-1,19
 -196 151 -196 151 -179 182 c 0,20,21
 -149 246 -149 246 -128 246 c 0,22,23
 -114 246 -114 246 -114 219 c 0,24,25
 -114 217 -114 217 -116.5 208 c 128,-1,26
 -119 199 -119 199 -124 182 c 0,27,28
 -130 165 -130 165 -133 152 c 128,-1,29
 -136 139 -136 139 -136 131 c 0,30,31
 -136 98 -136 98 -106 98 c 0,32,33
 -86 98 -86 98 -72.5 109.5 c 128,-1,34
 -59 121 -59 121 -48 139 c 1,35,36
 -45 190 -45 190 -30 234 c 0,37,38
 -9 283 -9 283 15 283 c 0,39,40
 42 283 42 283 42 268 c 0,41,42
 42 263 42 263 39.5 254 c 128,-1,43
 37 245 37 245 33.5 235 c 128,-1,44
 30 225 30 225 27.5 215.5 c 128,-1,45
 25 206 25 206 25 201 c 0,46,47
 25 152 25 152 70 152 c 0,48,49
 95 152 95 152 104 158.5 c 128,-1,50
 113 165 113 165 113 182 c 2,51,-1
 113 275 l 1,52,53
 147 326 147 326 163 326 c 0,54,55
 181 326 181 326 181 207 c 0,0,1
163 416 m 1,56,-1
 -224 297 l 1,57,-1
 -188 381 l 1,58,-1
 199 500 l 1,59,-1
 163 416 l 1,56,-1
163 557 m 1,60,-1
 -224 440 l 1,61,-1
 -188 524 l 1,62,-1
 199 641 l 1,63,-1
 163 557 l 1,60,-1
EndSplineSet
Ligature2: "'ccmp' Glyph Composition/Decomposition in Arabic lookup 4 subtable" afii57457 afii57451
EndChar

StartChar: afii57373
Encoding: 65548 -1 200
Width: 434
Flags: W
LayerCount: 2
Fore
SplineSet
353 470 m 1,0,1
 344 452 344 452 329 452 c 0,2,3
 188 452 188 452 110 392 c 0,4,5
 75 368 75 368 67 368 c 0,6,7
 52 368 52 368 52 386 c 0,8,9
 52 413 52 413 106 464 c 1,10,11
 38 516 38 516 38 548 c 0,12,13
 38 588 38 588 73 620 c 0,14,15
 192 720 192 720 247 720 c 0,16,17
 308 720 308 720 308 663 c 0,18,19
 308 642 308 642 284 624 c 0,20,21
 273 616 273 616 265.5 611.5 c 128,-1,22
 258 607 258 607 253 607 c 0,23,24
 246 607 246 607 239 611.5 c 128,-1,25
 232 616 232 616 225 621.5 c 128,-1,26
 218 627 218 627 211 631.5 c 128,-1,27
 204 636 204 636 198 636 c 0,28,29
 187 636 187 636 177.5 633.5 c 128,-1,30
 168 631 168 631 157 626 c 0,31,32
 134 614 134 614 134 595 c 0,33,34
 134 587 134 587 142 575.5 c 128,-1,35
 150 564 150 564 161 554 c 128,-1,36
 172 544 172 544 185 537 c 128,-1,37
 198 530 198 530 208 530 c 0,38,39
 219 530 219 530 236 530 c 128,-1,40
 253 530 253 530 278 532 c 0,41,42
 302 534 302 534 318.5 534 c 128,-1,43
 335 534 335 534 343 534 c 0,44,45
 367 534 367 534 364 513 c 2,46,-1
 353 470 l 1,0,1
EndSplineSet
EndChar

StartChar: afii57374
Encoding: 65549 -1 201
Width: 606
GlyphClass: 2
Flags: W
LayerCount: 2
Fore
SplineSet
606 0 m 1,0,1
 512 0 512 0 432.5 25.5 c 128,-1,2
 353 51 353 51 285 102 c 1,3,4
 210 51 210 51 141 25.5 c 128,-1,5
 72 0 72 0 6 0 c 0,6,7
 -70 0 -70 0 -70 106 c 0,8,9
 -70 213 -70 213 6 213 c 0,10,11
 54 213 54 213 96.5 216 c 128,-1,12
 139 219 139 219 174 227 c 1,13,14
 163 250 163 250 157.5 279.5 c 128,-1,15
 152 309 152 309 152 346 c 0,16,17
 152 428 152 428 225 559 c 0,18,19
 312 709 312 709 406 709 c 0,20,21
 450 709 450 709 483 641 c 0,22,23
 500 609 500 609 508 576.5 c 128,-1,24
 516 544 516 544 516 510 c 0,25,26
 516 346 516 346 424 231 c 1,27,28
 479 213 479 213 606 213 c 1,29,-1
 606 0 l 1,0,1
430 387 m 0,30,31
 430 406 430 406 423 425 c 128,-1,32
 416 444 416 444 403.5 459 c 128,-1,33
 391 474 391 474 374.5 483 c 128,-1,34
 358 492 358 492 340 492 c 0,35,36
 317 492 317 492 264 442 c 0,37,38
 213 398 213 398 213 369 c 0,39,40
 213 323 213 323 307 274 c 1,41,42
 430 335 430 335 430 387 c 0,30,31
EndSplineSet
EndChar

StartChar: afii57375
Encoding: 1619 1619 202
Width: 655
GlyphClass: 2
Flags: W
LayerCount: 2
Fore
SplineSet
625 1176 m 0,0,1
 625 1137 625 1137 551 1077 c 0,2,3
 461 1004 461 1004 352 1004 c 0,4,5
 232 1004 232 1004 164 1060 c 1,6,7
 105 956 105 956 78 956 c 0,8,9
 59 956 59 956 59 977 c 0,10,11
 59 993 59 993 170 1176 c 1,12,13
 280 1122 280 1122 377 1122 c 0,14,15
 455 1122 455 1122 524 1155.5 c 128,-1,16
 593 1189 593 1189 604 1196 c 1,17,18
 625 1196 625 1196 625 1176 c 0,0,1
EndSplineSet
EndChar

StartChar: afii57471
Encoding: 65550 -1 203
Width: 1391
Flags: W
LayerCount: 2
Fore
SplineSet
1391 0 m 1,0,1
 1359 0 1359 0 1330 9.5 c 128,-1,2
 1301 19 1301 19 1278 39 c 0,3,4
 1222 85 1222 85 1212 174 c 1,5,6
 910 -25 910 -25 573 -25 c 0,7,8
 354 -25 354 -25 223 70 c 0,9,10
 100 158 100 158 100 289 c 0,11,12
 100 373 100 373 143 473 c 0,13,14
 186 567 186 567 213 567 c 0,15,16
 233 567 233 567 233 549 c 0,17,18
 233 544 233 544 228.5 526 c 128,-1,19
 224 508 224 508 213 479 c 0,20,21
 195 420 195 420 195 381 c 0,22,23
 195 306 195 306 283 252 c 0,24,25
 396 178 396 178 625 178 c 0,26,27
 730 178 730 178 823 192 c 128,-1,28
 916 206 916 206 1001 233 c 0,29,30
 1074 256 1074 256 1127.5 286.5 c 128,-1,31
 1181 317 1181 317 1217 352 c 0,32,33
 1250 387 1250 387 1264 387 c 256,34,35
 1278 387 1278 387 1278 362 c 0,36,37
 1278 359 1278 359 1276.5 350.5 c 128,-1,38
 1275 342 1275 342 1273.5 331.5 c 128,-1,39
 1272 321 1272 321 1271 310 c 128,-1,40
 1270 299 1270 299 1270 291 c 0,41,42
 1270 268 1270 268 1300 244 c 0,43,44
 1337 213 1337 213 1391 213 c 1,45,-1
 1391 0 l 1,46,-1
 1391 0 l 1,0,1
EndSplineSet
EndChar

StartChar: afii52258
Encoding: 65551 -1 204
Width: 1542
GlyphClass: 2
Flags: W
LayerCount: 2
Fore
SplineSet
1542 0 m 1,0,1
 1368 0 1368 0 1223 104 c 1,2,3
 906 -43 906 -43 578 -43 c 0,4,5
 348 -43 348 -43 217 57 c 0,6,7
 100 147 100 147 100 285 c 0,8,9
 100 368 100 368 143 469 c 0,10,11
 186 563 186 563 213 563 c 0,12,13
 233 563 233 563 233 545 c 0,14,15
 233 540 233 540 228.5 522 c 128,-1,16
 224 504 224 504 213 473 c 0,17,18
 195 414 195 414 195 377 c 0,19,20
 195 301 195 301 301 238 c 0,21,22
 427 160 427 160 614 160 c 0,23,24
 752 160 752 160 877.5 175.5 c 128,-1,25
 1003 191 1003 191 1118 223 c 1,26,27
 1096 284 1096 284 1096 346 c 0,28,29
 1096 428 1096 428 1169 559 c 0,30,31
 1256 709 1256 709 1350 709 c 0,32,33
 1394 709 1394 709 1427 641 c 0,34,35
 1444 609 1444 609 1452 576.5 c 128,-1,36
 1460 544 1460 544 1460 510 c 0,37,38
 1460 356 1460 356 1374 231 c 1,39,40
 1420 213 1420 213 1542 213 c 1,41,-1
 1542 0 l 1,0,1
1374 387 m 0,42,43
 1374 406 1374 406 1367 425 c 128,-1,44
 1360 444 1360 444 1347.5 459 c 128,-1,45
 1335 474 1335 474 1318.5 483 c 128,-1,46
 1302 492 1302 492 1284 492 c 0,47,48
 1261 492 1261 492 1208 442 c 0,49,50
 1157 397 1157 397 1157 369 c 0,51,52
 1157 323 1157 323 1251 274 c 1,53,54
 1374 335 1374 335 1374 387 c 0,42,43
EndSplineSet
EndChar

StartChar: afii62889
Encoding: 65552 -1 210
Width: 1126
Flags: W
LayerCount: 2
Fore
SplineSet
1008 0 m 1,0,1
 1008 -140 1008 -140 909 -242 c 0,2,3
 874 -279 874 -279 828.5 -310 c 128,-1,4
 783 -341 783 -341 729 -367 c 0,5,6
 590 -432 590 -432 444 -432 c 0,7,8
 262 -432 262 -432 170 -328 c 0,9,10
 90 -237 90 -237 90 -100 c 0,11,12
 90 -35 90 -35 103 26 c 128,-1,13
 116 87 116 87 141 145 c 0,14,15
 187 246 187 246 213 246 c 0,16,17
 240 246 240 246 240 227 c 0,18,19
 240 225 240 225 232.5 204 c 128,-1,20
 225 183 225 183 211 141 c 0,21,22
 184 58 184 58 184 2 c 0,23,24
 184 -94 184 -94 256 -160 c 0,25,26
 337 -229 337 -229 492 -229 c 0,27,28
 558 -229 558 -229 625 -217 c 128,-1,29
 692 -205 692 -205 758 -180 c 0,30,31
 884 -135 884 -135 950 -66 c 1,32,-1
 940 -3 l 1,33,34
 925 -8 925 -8 902 -11 c 128,-1,35
 879 -14 879 -14 842 -14 c 0,36,37
 795 -14 795 -14 757 -3.5 c 128,-1,38
 719 7 719 7 693 31 c 128,-1,39
 667 55 667 55 654 94 c 128,-1,40
 641 133 641 133 644 189 c 0,41,42
 647 240 647 240 660 289 c 128,-1,43
 673 338 673 338 699 382 c 0,44,45
 750 470 750 470 815 470 c 0,46,47
 843 470 843 470 871 448.5 c 128,-1,48
 899 427 899 427 923 391 c 128,-1,49
 947 355 947 355 965.5 308.5 c 128,-1,50
 984 262 984 262 993 213 c 1,51,-1
 1126 213 l 1,52,-1
 1126 0 l 1,53,-1
 1008 0 l 1,0,1
899 209 m 1,54,55
 876 266 876 266 852.5 287 c 128,-1,56
 829 308 829 308 800 308 c 0,57,58
 785 308 785 308 771 302 c 128,-1,59
 757 296 757 296 745.5 285.5 c 128,-1,60
 734 275 734 275 727 262 c 128,-1,61
 720 249 720 249 720 234 c 0,62,63
 720 209 720 209 743 199.5 c 128,-1,64
 766 190 766 190 796.5 189.5 c 128,-1,65
 827 189 827 189 856.5 195.5 c 128,-1,66
 886 202 886 202 899 209 c 1,54,55
EndSplineSet
EndChar

StartChar: afii62887
Encoding: 65553 -1 211
Width: 1455
Flags: W
LayerCount: 2
Fore
SplineSet
1415 387 m 0,0,1
 1415 302 1415 302 1372 217 c 0,2,3
 1355 183 1355 183 1335.5 157 c 128,-1,4
 1316 131 1316 131 1296 113 c 0,5,6
 1243 65 1243 65 1024 12 c 0,7,8
 792 -43 792 -43 596 -43 c 0,9,10
 100 -43 100 -43 100 279 c 0,11,12
 100 330 100 330 115.5 378.5 c 128,-1,13
 131 427 131 427 160 473 c 0,14,15
 210 553 210 553 242 553 c 0,16,17
 256 553 256 553 256 535 c 0,18,19
 256 531 256 531 250 517 c 128,-1,20
 244 503 244 503 233 477 c 0,21,22
 213 427 213 427 213 369 c 0,23,24
 213 272 213 272 336 217 c 0,25,26
 401 188 401 188 494 174 c 128,-1,27
 587 160 587 160 711 160 c 0,28,29
 873 160 873 160 1023.5 187 c 128,-1,30
 1174 214 1174 214 1317 268 c 1,31,32
 1317 344 1317 344 1233 440 c 1,33,34
 1297 657 1297 657 1311 657 c 256,35,36
 1325 657 1325 657 1368 563 c 0,37,38
 1415 458 1415 458 1415 387 c 0,0,1
EndSplineSet
EndChar

StartChar: afii62888
Encoding: 1697 1697 212
Width: 1432
GlyphClass: 2
Flags: W
LayerCount: 2
Fore
SplineSet
1371 426 m 0,0,1
 1371 213 1371 213 1260 113 c 0,2,3
 1207 65 1207 65 988 12 c 0,4,5
 753 -43 753 -43 560 -43 c 0,6,7
 64 -43 64 -43 64 279 c 0,8,9
 64 330 64 330 79.5 378.5 c 128,-1,10
 95 427 95 427 124 473 c 0,11,12
 174 553 174 553 206 553 c 0,13,14
 220 553 220 553 220 535 c 0,15,16
 220 531 220 531 214 517 c 128,-1,17
 208 503 208 503 197 477 c 0,18,19
 177 427 177 427 177 369 c 0,20,21
 177 272 177 272 300 217 c 0,22,23
 365 188 365 188 458 174 c 128,-1,24
 551 160 551 160 675 160 c 0,25,26
 771 160 771 160 869 171 c 128,-1,27
 967 182 967 182 1070 205 c 0,28,29
 1221 238 1221 238 1271 264 c 0,30,31
 1301 279 1301 279 1301 322 c 0,32,33
 1301 336 1301 336 1298 355.5 c 128,-1,34
 1295 375 1295 375 1287 401 c 1,35,36
 1247 319 1247 319 1148 319 c 0,37,38
 1021 319 1021 319 1021 459 c 0,39,40
 1021 540 1021 540 1090 643 c 0,41,42
 1161 750 1161 750 1213 750 c 0,43,44
 1281 750 1281 750 1328 653 c 0,45,46
 1371 560 1371 560 1371 426 c 0,0,1
1260 496 m 1,47,48
 1227 588 1227 588 1170 588 c 0,49,50
 1158 588 1158 588 1145.5 581.5 c 128,-1,51
 1133 575 1133 575 1122.5 563.5 c 128,-1,52
 1112 552 1112 552 1105.5 537.5 c 128,-1,53
 1099 523 1099 523 1099 508 c 0,54,55
 1099 446 1099 446 1166 446 c 0,56,57
 1230 446 1230 446 1260 496 c 1,47,48
EndSplineSet
Substitution2: "'fina' Terminal Forms in Arabic lookup 3 subtable" afii52258
Substitution2: "'medi' Medial Forms in Arabic lookup 2 subtable" afii57374
Substitution2: "'init' Initial Forms in Arabic lookup 0 subtable" afii57459
EndChar

StartChar: afii57567
Encoding: 1705 1705 219
Width: 1694
GlyphClass: 2
Flags: W
AnchorPoint: "Anchor-3" 720 -420 basechar 0
AnchorPoint: "Anchor-2" 675 990 basechar 0
LayerCount: 2
Fore
SplineSet
1694 1116 m 1,0,1
 1549 1051 1549 1051 1434 993 c 128,-1,2
 1319 935 1319 935 1235.5 888 c 128,-1,3
 1152 841 1152 841 1102.5 806.5 c 128,-1,4
 1053 772 1053 772 1038 754 c 1,5,6
 1143 696 1143 696 1212.5 648 c 128,-1,7
 1282 600 1282 600 1324 553.5 c 128,-1,8
 1366 507 1366 507 1383.5 458.5 c 128,-1,9
 1401 410 1401 410 1401 352 c 0,10,11
 1401 331 1401 331 1395 304.5 c 128,-1,12
 1389 278 1389 278 1377.5 250 c 128,-1,13
 1366 222 1366 222 1350.5 194 c 128,-1,14
 1335 166 1335 166 1317 141 c 0,15,16
 1300 119 1300 119 1261.5 96.5 c 128,-1,17
 1223 74 1223 74 1167.5 53.5 c 128,-1,18
 1112 33 1112 33 1043.5 15.5 c 128,-1,19
 975 -2 975 -2 898 -15 c 128,-1,20
 821 -28 821 -28 738.5 -35.5 c 128,-1,21
 656 -43 656 -43 575 -43 c 0,22,23
 461 -43 461 -43 373 -19.5 c 128,-1,24
 285 4 285 4 224 46 c 128,-1,25
 163 88 163 88 131.5 146 c 128,-1,26
 100 204 100 204 100 274 c 0,27,28
 100 325 100 325 113.5 374.5 c 128,-1,29
 127 424 127 424 145 462.5 c 128,-1,30
 163 501 163 501 182 525 c 128,-1,31
 201 549 201 549 213 549 c 0,32,33
 224 549 224 549 227.5 542 c 128,-1,34
 231 535 231 535 231 524 c 0,35,36
 231 520 231 520 225.5 505.5 c 128,-1,37
 220 491 220 491 213 471 c 128,-1,38
 206 451 206 451 200.5 427 c 128,-1,39
 195 403 195 403 195 381 c 0,40,41
 195 328 195 328 233 287 c 128,-1,42
 271 246 271 246 334 217.5 c 128,-1,43
 397 189 397 189 478 174.5 c 128,-1,44
 559 160 559 160 645 160 c 0,45,46
 784 160 784 160 907 175.5 c 128,-1,47
 1030 191 1030 191 1122 213.5 c 128,-1,48
 1214 236 1214 236 1267.5 262.5 c 128,-1,49
 1321 289 1321 289 1321 311 c 0,50,51
 1321 329 1321 329 1312.5 348 c 128,-1,52
 1304 367 1304 367 1282 388.5 c 128,-1,53
 1260 410 1260 410 1221.5 436.5 c 128,-1,54
 1183 463 1183 463 1122 498 c 0,55,56
 1074 524 1074 524 1043.5 546 c 128,-1,57
 1013 568 1013 568 996 591 c 128,-1,58
 979 614 979 614 973 641.5 c 128,-1,59
 967 669 967 669 967 705 c 0,60,61
 967 745 967 745 970.5 781.5 c 128,-1,62
 974 818 974 818 992 852.5 c 128,-1,63
 1010 887 1010 887 1047 922 c 128,-1,64
 1084 957 1084 957 1151 995 c 0,65,66
 1180 1012 1180 1012 1228.5 1038.5 c 128,-1,67
 1277 1065 1277 1065 1335 1095.5 c 128,-1,68
 1393 1126 1393 1126 1454.5 1158 c 128,-1,69
 1516 1190 1516 1190 1570 1217 c 128,-1,70
 1624 1244 1624 1244 1665.5 1263 c 128,-1,71
 1707 1282 1707 1282 1724 1288 c 1,72,-1
 1694 1116 l 1,73,-1
 1694 1116 l 1,0,1
EndSplineSet
Substitution2: "'fina' Terminal Forms in Arabic lookup 3 subtable" afii62964
Substitution2: "'medi' Medial Forms in Arabic lookup 2 subtable" afii52306
Substitution2: "'init' Initial Forms in Arabic lookup 0 subtable" afii52305
EndChar

StartChar: afii62964
Encoding: 64399 64399 220
Width: 1970
GlyphClass: 2
Flags: W
AnchorPoint: "Anchor-3" 750 -435 basechar 0
AnchorPoint: "Anchor-2" 645 960 basechar 0
LayerCount: 2
Fore
SplineSet
1970 0 m 1,0,1
 1932 0 1932 0 1896.5 5.5 c 128,-1,2
 1861 11 1861 11 1825 26 c 128,-1,3
 1789 41 1789 41 1751 68 c 128,-1,4
 1713 95 1713 95 1671 139 c 0,5,6
 1646 165 1646 165 1616.5 196 c 128,-1,7
 1587 227 1587 227 1556 258 c 128,-1,8
 1525 289 1525 289 1495 318 c 128,-1,9
 1465 347 1465 347 1440 370.5 c 128,-1,10
 1415 394 1415 394 1398 408.5 c 128,-1,11
 1381 423 1381 423 1376 426 c 1,12,13
 1381 412 1381 412 1385 398.5 c 128,-1,14
 1389 385 1389 385 1389 365 c 0,15,16
 1389 291 1389 291 1338.5 218 c 128,-1,17
 1288 145 1288 145 1187 87 c 128,-1,18
 1086 29 1086 29 933 -7 c 128,-1,19
 780 -43 780 -43 575 -43 c 0,20,21
 461 -43 461 -43 373 -19.5 c 128,-1,22
 285 4 285 4 224 46 c 128,-1,23
 163 88 163 88 131.5 146 c 128,-1,24
 100 204 100 204 100 274 c 0,25,26
 100 325 100 325 113.5 374.5 c 128,-1,27
 127 424 127 424 145 462.5 c 128,-1,28
 163 501 163 501 182 525 c 128,-1,29
 201 549 201 549 213 549 c 0,30,31
 224 549 224 549 227.5 542 c 128,-1,32
 231 535 231 535 231 524 c 0,33,34
 231 520 231 520 225.5 505.5 c 128,-1,35
 220 491 220 491 213 471 c 128,-1,36
 206 451 206 451 200.5 427 c 128,-1,37
 195 403 195 403 195 381 c 0,38,39
 195 328 195 328 233 287 c 128,-1,40
 271 246 271 246 334 217.5 c 128,-1,41
 397 189 397 189 478 174.5 c 128,-1,42
 559 160 559 160 645 160 c 0,43,44
 730 160 730 160 812 168.5 c 128,-1,45
 894 177 894 177 968 191.5 c 128,-1,46
 1042 206 1042 206 1104.5 225.5 c 128,-1,47
 1167 245 1167 245 1212.5 267.5 c 128,-1,48
 1258 290 1258 290 1283.5 314 c 128,-1,49
 1309 338 1309 338 1309 362 c 0,50,51
 1309 383 1309 383 1293.5 404.5 c 128,-1,52
 1278 426 1278 426 1252 448 c 128,-1,53
 1226 470 1226 470 1192 493 c 128,-1,54
 1158 516 1158 516 1120 539 c 0,55,56
 1072 567 1072 567 1038.5 594 c 128,-1,57
 1005 621 1005 621 984 648.5 c 128,-1,58
 963 676 963 676 953.5 704.5 c 128,-1,59
 944 733 944 733 944 764 c 0,60,61
 944 839 944 839 993 903.5 c 128,-1,62
 1042 968 1042 968 1128 1018 c 0,63,64
 1159 1036 1159 1036 1208.5 1063.5 c 128,-1,65
 1258 1091 1258 1091 1316.5 1121.5 c 128,-1,66
 1375 1152 1375 1152 1438.5 1184 c 128,-1,67
 1502 1216 1502 1216 1560.5 1244 c 128,-1,68
 1619 1272 1619 1272 1668 1293.5 c 128,-1,69
 1717 1315 1717 1315 1747 1325 c 1,70,-1
 1714 1137 l 1,71,72
 1633 1104 1633 1104 1549.5 1066 c 128,-1,73
 1466 1028 1466 1028 1388.5 990 c 128,-1,74
 1311 952 1311 952 1242 916 c 128,-1,75
 1173 880 1173 880 1121 850.5 c 128,-1,76
 1069 821 1069 821 1037 800.5 c 128,-1,77
 1005 780 1005 780 1001 774 c 1,78,79
 1135 717 1135 717 1298.5 609.5 c 128,-1,80
 1462 502 1462 502 1665 342 c 0,81,82
 1721 299 1721 299 1763 273.5 c 128,-1,83
 1805 248 1805 248 1840 234.5 c 128,-1,84
 1875 221 1875 221 1905.5 217 c 128,-1,85
 1936 213 1936 213 1970 213 c 1,86,-1
 1970 0 l 1,87,-1
 1970 0 l 1,0,1
EndSplineSet
EndChar

StartChar: afii52305
Encoding: 64400 64400 221
Width: 808
GlyphClass: 2
Flags: W
AnchorPoint: "Anchor-3" 195 -450 basechar 0
AnchorPoint: "Anchor-2" 165 1230 basechar 0
LayerCount: 2
Fore
SplineSet
805 1116 m 1,0,1
 659 1050 659 1050 544 992 c 128,-1,2
 429 934 429 934 346 887.5 c 128,-1,3
 263 841 263 841 213.5 806.5 c 128,-1,4
 164 772 164 772 150 754 c 1,5,6
 254 696 254 696 323.5 648 c 128,-1,7
 393 600 393 600 435 553.5 c 128,-1,8
 477 507 477 507 494.5 458.5 c 128,-1,9
 512 410 512 410 512 352 c 0,10,11
 512 281 512 281 491 217.5 c 128,-1,12
 470 154 470 154 422 105.5 c 128,-1,13
 374 57 374 57 296 28.5 c 128,-1,14
 218 0 218 0 104 0 c 2,15,-1
 6 0 l 2,16,17
 -70 0 -70 0 -70 106 c 0,18,19
 -70 213 -70 213 6 213 c 2,20,-1
 94 213 l 2,21,22
 167 213 167 213 229 224 c 128,-1,23
 291 235 291 235 336 250 c 128,-1,24
 381 265 381 265 406.5 282 c 128,-1,25
 432 299 432 299 432 311 c 0,26,27
 432 329 432 329 423.5 348 c 128,-1,28
 415 367 415 367 393 388.5 c 128,-1,29
 371 410 371 410 332.5 436.5 c 128,-1,30
 294 463 294 463 233 498 c 0,31,32
 185 524 185 524 154.5 546 c 128,-1,33
 124 568 124 568 107 591 c 128,-1,34
 90 614 90 614 84 641.5 c 128,-1,35
 78 669 78 669 78 705 c 0,36,37
 78 745 78 745 81.5 781.5 c 128,-1,38
 85 818 85 818 103 852.5 c 128,-1,39
 121 887 121 887 158 922 c 128,-1,40
 195 957 195 957 262 995 c 0,41,42
 290 1012 290 1012 339 1038 c 128,-1,43
 388 1064 388 1064 446 1095 c 128,-1,44
 504 1126 504 1126 566 1157.5 c 128,-1,45
 628 1189 628 1189 682 1216 c 128,-1,46
 736 1243 736 1243 777.5 1262.5 c 128,-1,47
 819 1282 819 1282 836 1288 c 1,48,-1
 805 1116 l 1,49,-1
 805 1116 l 1,0,1
EndSplineSet
EndChar

StartChar: afii52306
Encoding: 64401 64401 222
Width: 1063
GlyphClass: 2
Flags: W
AnchorPoint: "Anchor-3" 480 -435 basechar 0
AnchorPoint: "Anchor-2" 240 1215 basechar 0
LayerCount: 2
Fore
SplineSet
-47 160 m 1,0,1
 -47 189 -47 189 -29.5 201 c 128,-1,2
 -12 213 -12 213 6 213 c 2,3,-1
 86 213 l 2,4,5
 150 213 150 213 208.5 222 c 128,-1,6
 267 231 267 231 311.5 248.5 c 128,-1,7
 356 266 356 266 382 290.5 c 128,-1,8
 408 315 408 315 408 346 c 0,9,10
 408 364 408 364 399 384.5 c 128,-1,11
 390 405 390 405 367.5 428.5 c 128,-1,12
 345 452 345 452 307.5 479.5 c 128,-1,13
 270 507 270 507 213 539 c 0,14,15
 165 568 165 568 131.5 595 c 128,-1,16
 98 622 98 622 77 649 c 128,-1,17
 56 676 56 676 46.5 704 c 128,-1,18
 37 732 37 732 37 764 c 0,19,20
 37 839 37 839 85.5 903.5 c 128,-1,21
 134 968 134 968 221 1018 c 0,22,23
 252 1036 252 1036 301.5 1063.5 c 128,-1,24
 351 1091 351 1091 410 1121.5 c 128,-1,25
 469 1152 469 1152 532.5 1184 c 128,-1,26
 596 1216 596 1216 654.5 1244 c 128,-1,27
 713 1272 713 1272 762 1293.5 c 128,-1,28
 811 1315 811 1315 840 1325 c 1,29,-1
 807 1137 l 1,30,31
 725 1104 725 1104 642 1066 c 128,-1,32
 559 1028 559 1028 481 990 c 128,-1,33
 403 952 403 952 334.5 916 c 128,-1,34
 266 880 266 880 214 850.5 c 128,-1,35
 162 821 162 821 130 800.5 c 128,-1,36
 98 780 98 780 94 774 c 1,37,38
 227 717 227 717 391 609.5 c 128,-1,39
 555 502 555 502 758 342 c 0,40,41
 812 297 812 297 854.5 271.5 c 128,-1,42
 897 246 897 246 932.5 233 c 128,-1,43
 968 220 968 220 999.5 216.5 c 128,-1,44
 1031 213 1031 213 1063 213 c 1,45,-1
 1063 0 l 1,46,47
 1025 0 1025 0 988.5 5 c 128,-1,48
 952 10 952 10 915.5 25 c 128,-1,49
 879 40 879 40 841.5 67 c 128,-1,50
 804 94 804 94 764 139 c 0,51,52
 735 170 735 170 694 211.5 c 128,-1,53
 653 253 653 253 612.5 293.5 c 128,-1,54
 572 334 572 334 536.5 367 c 128,-1,55
 501 400 501 400 483 412 c 1,56,57
 485 401 485 401 486 381 c 128,-1,58
 487 361 487 361 487 332 c 0,59,60
 487 254 487 254 459 192 c 128,-1,61
 431 130 431 130 377 87.5 c 128,-1,62
 323 45 323 45 244.5 22.5 c 128,-1,63
 166 0 166 0 66 0 c 2,64,-1
 6 0 l 2,65,66
 -23 0 -23 0 -35 15.5 c 128,-1,67
 -47 31 -47 31 -47 51 c 2,68,-1
 -47 160 l 1,69,-1
 -47 160 l 1,0,1
EndSplineSet
EndChar

StartChar: afii57509
Encoding: 1711 1711 223
Width: 1691
GlyphClass: 2
Flags: W
AnchorPoint: "Anchor-3" 720 -465 basechar 0
AnchorPoint: "Anchor-2" 600 975 basechar 0
LayerCount: 2
Fore
SplineSet
1767 1526 m 1,0,-1
 1737 1399 l 1,1,-1
 1008 1034 l 1,2,-1
 1038 1161 l 1,3,-1
 1767 1526 l 1,0,-1
1694 1116 m 1,4,5
 1549 1051 1549 1051 1434 993 c 128,-1,6
 1319 935 1319 935 1235.5 888 c 128,-1,7
 1152 841 1152 841 1102.5 806.5 c 128,-1,8
 1053 772 1053 772 1038 754 c 1,9,10
 1143 696 1143 696 1212.5 648 c 128,-1,11
 1282 600 1282 600 1324 553.5 c 128,-1,12
 1366 507 1366 507 1383.5 458.5 c 128,-1,13
 1401 410 1401 410 1401 352 c 0,14,15
 1401 331 1401 331 1395 304.5 c 128,-1,16
 1389 278 1389 278 1377.5 250 c 128,-1,17
 1366 222 1366 222 1350.5 194 c 128,-1,18
 1335 166 1335 166 1317 141 c 0,19,20
 1300 119 1300 119 1261.5 96.5 c 128,-1,21
 1223 74 1223 74 1167.5 53.5 c 128,-1,22
 1112 33 1112 33 1043.5 15.5 c 128,-1,23
 975 -2 975 -2 898 -15 c 128,-1,24
 821 -28 821 -28 738.5 -35.5 c 128,-1,25
 656 -43 656 -43 575 -43 c 0,26,27
 461 -43 461 -43 373 -19.5 c 128,-1,28
 285 4 285 4 224 46 c 128,-1,29
 163 88 163 88 131.5 146 c 128,-1,30
 100 204 100 204 100 274 c 0,31,32
 100 325 100 325 113.5 374.5 c 128,-1,33
 127 424 127 424 145 462.5 c 128,-1,34
 163 501 163 501 182 525 c 128,-1,35
 201 549 201 549 213 549 c 0,36,37
 224 549 224 549 227.5 542 c 128,-1,38
 231 535 231 535 231 524 c 0,39,40
 231 520 231 520 225.5 505.5 c 128,-1,41
 220 491 220 491 213 471 c 128,-1,42
 206 451 206 451 200.5 427 c 128,-1,43
 195 403 195 403 195 381 c 0,44,45
 195 328 195 328 233 287 c 128,-1,46
 271 246 271 246 334 217.5 c 128,-1,47
 397 189 397 189 478 174.5 c 128,-1,48
 559 160 559 160 645 160 c 0,49,50
 784 160 784 160 907 175.5 c 128,-1,51
 1030 191 1030 191 1122 213.5 c 128,-1,52
 1214 236 1214 236 1267.5 262.5 c 128,-1,53
 1321 289 1321 289 1321 311 c 0,54,55
 1321 329 1321 329 1312.5 348 c 128,-1,56
 1304 367 1304 367 1282 388.5 c 128,-1,57
 1260 410 1260 410 1221.5 436.5 c 128,-1,58
 1183 463 1183 463 1122 498 c 0,59,60
 1074 524 1074 524 1043.5 546 c 128,-1,61
 1013 568 1013 568 996 591 c 128,-1,62
 979 614 979 614 973 641.5 c 128,-1,63
 967 669 967 669 967 705 c 0,64,65
 967 745 967 745 970.5 781.5 c 128,-1,66
 974 818 974 818 992 852.5 c 128,-1,67
 1010 887 1010 887 1047 922 c 128,-1,68
 1084 957 1084 957 1151 995 c 0,69,70
 1180 1012 1180 1012 1228.5 1038.5 c 128,-1,71
 1277 1065 1277 1065 1335 1095.5 c 128,-1,72
 1393 1126 1393 1126 1454.5 1158 c 128,-1,73
 1516 1190 1516 1190 1570 1217 c 128,-1,74
 1624 1244 1624 1244 1665.5 1263 c 128,-1,75
 1707 1282 1707 1282 1724 1288 c 1,76,-1
 1694 1116 l 1,4,5
EndSplineSet
Substitution2: "'fina' Terminal Forms in Arabic lookup 3 subtable" afii62967
Substitution2: "'medi' Medial Forms in Arabic lookup 2 subtable" afii62966
Substitution2: "'init' Initial Forms in Arabic lookup 0 subtable" afii62965
EndChar

StartChar: afii62967
Encoding: 64403 64403 224
Width: 1970
GlyphClass: 2
Flags: W
AnchorPoint: "Anchor-3" 780 -450 basechar 0
AnchorPoint: "Anchor-2" 615 1005 basechar 0
LayerCount: 2
Fore
SplineSet
1792 1571 m 1,0,-1
 1761 1444 l 1,1,-1
 1004 1067 l 1,2,-1
 1034 1194 l 1,3,-1
 1792 1571 l 1,0,-1
1970 0 m 1,4,5
 1932 0 1932 0 1896.5 5.5 c 128,-1,6
 1861 11 1861 11 1825 26 c 128,-1,7
 1789 41 1789 41 1751 68 c 128,-1,8
 1713 95 1713 95 1671 139 c 0,9,10
 1646 165 1646 165 1616.5 196 c 128,-1,11
 1587 227 1587 227 1556 258 c 128,-1,12
 1525 289 1525 289 1495 318 c 128,-1,13
 1465 347 1465 347 1440 370.5 c 128,-1,14
 1415 394 1415 394 1398 408.5 c 128,-1,15
 1381 423 1381 423 1376 426 c 1,16,17
 1381 412 1381 412 1385 398.5 c 128,-1,18
 1389 385 1389 385 1389 365 c 0,19,20
 1389 291 1389 291 1338.5 218 c 128,-1,21
 1288 145 1288 145 1187 87 c 128,-1,22
 1086 29 1086 29 933 -7 c 128,-1,23
 780 -43 780 -43 575 -43 c 0,24,25
 461 -43 461 -43 373 -19.5 c 128,-1,26
 285 4 285 4 224 46 c 128,-1,27
 163 88 163 88 131.5 146 c 128,-1,28
 100 204 100 204 100 274 c 0,29,30
 100 325 100 325 113.5 374.5 c 128,-1,31
 127 424 127 424 145 462.5 c 128,-1,32
 163 501 163 501 182 525 c 128,-1,33
 201 549 201 549 213 549 c 0,34,35
 224 549 224 549 227.5 542 c 128,-1,36
 231 535 231 535 231 524 c 0,37,38
 231 520 231 520 225.5 505.5 c 128,-1,39
 220 491 220 491 213 471 c 128,-1,40
 206 451 206 451 200.5 427 c 128,-1,41
 195 403 195 403 195 381 c 0,42,43
 195 328 195 328 233 287 c 128,-1,44
 271 246 271 246 334 217.5 c 128,-1,45
 397 189 397 189 478 174.5 c 128,-1,46
 559 160 559 160 645 160 c 0,47,48
 730 160 730 160 812 168.5 c 128,-1,49
 894 177 894 177 968 191.5 c 128,-1,50
 1042 206 1042 206 1104.5 225.5 c 128,-1,51
 1167 245 1167 245 1212.5 267.5 c 128,-1,52
 1258 290 1258 290 1283.5 314 c 128,-1,53
 1309 338 1309 338 1309 362 c 0,54,55
 1309 383 1309 383 1293.5 404.5 c 128,-1,56
 1278 426 1278 426 1252 448 c 128,-1,57
 1226 470 1226 470 1192 493 c 128,-1,58
 1158 516 1158 516 1120 539 c 0,59,60
 1072 567 1072 567 1038.5 594 c 128,-1,61
 1005 621 1005 621 984 648.5 c 128,-1,62
 963 676 963 676 953.5 704.5 c 128,-1,63
 944 733 944 733 944 764 c 0,64,65
 944 839 944 839 993 903.5 c 128,-1,66
 1042 968 1042 968 1128 1018 c 0,67,68
 1159 1036 1159 1036 1208.5 1063.5 c 128,-1,69
 1258 1091 1258 1091 1316.5 1121.5 c 128,-1,70
 1375 1152 1375 1152 1438.5 1184 c 128,-1,71
 1502 1216 1502 1216 1560.5 1244 c 128,-1,72
 1619 1272 1619 1272 1668 1293.5 c 128,-1,73
 1717 1315 1717 1315 1747 1325 c 1,74,-1
 1714 1137 l 1,75,76
 1633 1104 1633 1104 1549.5 1066 c 128,-1,77
 1466 1028 1466 1028 1388.5 990 c 128,-1,78
 1311 952 1311 952 1242 916 c 128,-1,79
 1173 880 1173 880 1121 850.5 c 128,-1,80
 1069 821 1069 821 1037 800.5 c 128,-1,81
 1005 780 1005 780 1001 774 c 1,82,83
 1135 717 1135 717 1298.5 609.5 c 128,-1,84
 1462 502 1462 502 1665 342 c 0,85,86
 1721 299 1721 299 1763 273.5 c 128,-1,87
 1805 248 1805 248 1840 234.5 c 128,-1,88
 1875 221 1875 221 1905.5 217 c 128,-1,89
 1936 213 1936 213 1970 213 c 1,90,-1
 1970 0 l 1,4,5
EndSplineSet
EndChar

StartChar: afii62965
Encoding: 64404 64404 225
Width: 801
GlyphClass: 2
Flags: W
AnchorPoint: "Anchor-3" 195 -465 basechar 0
AnchorPoint: "Anchor-2" 165 1380 basechar 0
LayerCount: 2
Fore
SplineSet
879 1526 m 1,0,-1
 848 1399 l 1,1,-1
 119 1034 l 1,2,-1
 150 1161 l 1,3,-1
 879 1526 l 1,0,-1
805 1116 m 1,4,5
 659 1050 659 1050 544 992 c 128,-1,6
 429 934 429 934 346 887.5 c 128,-1,7
 263 841 263 841 213.5 806.5 c 128,-1,8
 164 772 164 772 150 754 c 1,9,10
 254 696 254 696 323.5 648 c 128,-1,11
 393 600 393 600 435 553.5 c 128,-1,12
 477 507 477 507 494.5 458.5 c 128,-1,13
 512 410 512 410 512 352 c 0,14,15
 512 281 512 281 491 217.5 c 128,-1,16
 470 154 470 154 422 105.5 c 128,-1,17
 374 57 374 57 296 28.5 c 128,-1,18
 218 0 218 0 104 0 c 2,19,-1
 6 0 l 2,20,21
 -70 0 -70 0 -70 106 c 0,22,23
 -70 213 -70 213 6 213 c 2,24,-1
 94 213 l 2,25,26
 167 213 167 213 229 224 c 128,-1,27
 291 235 291 235 336 250 c 128,-1,28
 381 265 381 265 406.5 282 c 128,-1,29
 432 299 432 299 432 311 c 0,30,31
 432 329 432 329 423.5 348 c 128,-1,32
 415 367 415 367 393 388.5 c 128,-1,33
 371 410 371 410 332.5 436.5 c 128,-1,34
 294 463 294 463 233 498 c 0,35,36
 185 524 185 524 154.5 546 c 128,-1,37
 124 568 124 568 107 591 c 128,-1,38
 90 614 90 614 84 641.5 c 128,-1,39
 78 669 78 669 78 705 c 0,40,41
 78 745 78 745 81.5 781.5 c 128,-1,42
 85 818 85 818 103 852.5 c 128,-1,43
 121 887 121 887 158 922 c 128,-1,44
 195 957 195 957 262 995 c 0,45,46
 290 1012 290 1012 339 1038 c 128,-1,47
 388 1064 388 1064 446 1095 c 128,-1,48
 504 1126 504 1126 566 1157.5 c 128,-1,49
 628 1189 628 1189 682 1216 c 128,-1,50
 736 1243 736 1243 777.5 1262.5 c 128,-1,51
 819 1282 819 1282 836 1288 c 1,52,-1
 805 1116 l 1,4,5
EndSplineSet
EndChar

StartChar: afii62966
Encoding: 64405 64405 226
Width: 1063
GlyphClass: 2
Flags: W
AnchorPoint: "Anchor-3" 570 -420 basechar 0
AnchorPoint: "Anchor-2" 255 1440 basechar 0
LayerCount: 2
Fore
SplineSet
885 1571 m 1,0,-1
 854 1444 l 1,1,-1
 96 1067 l 1,2,-1
 127 1194 l 1,3,-1
 885 1571 l 1,0,-1
-47 160 m 2,4,5
 -47 189 -47 189 -29.5 201 c 128,-1,6
 -12 213 -12 213 6 213 c 2,7,-1
 86 213 l 2,8,9
 150 213 150 213 208.5 222 c 128,-1,10
 267 231 267 231 311.5 248.5 c 128,-1,11
 356 266 356 266 382 290.5 c 128,-1,12
 408 315 408 315 408 346 c 0,13,14
 408 364 408 364 399 384.5 c 128,-1,15
 390 405 390 405 367.5 428.5 c 128,-1,16
 345 452 345 452 307.5 479.5 c 128,-1,17
 270 507 270 507 213 539 c 0,18,19
 165 568 165 568 131.5 595 c 128,-1,20
 98 622 98 622 77 649 c 128,-1,21
 56 676 56 676 46.5 704 c 128,-1,22
 37 732 37 732 37 764 c 0,23,24
 37 839 37 839 85.5 903.5 c 128,-1,25
 134 968 134 968 221 1018 c 0,26,27
 252 1036 252 1036 301.5 1063.5 c 128,-1,28
 351 1091 351 1091 410 1121.5 c 128,-1,29
 469 1152 469 1152 532.5 1184 c 128,-1,30
 596 1216 596 1216 654.5 1244 c 128,-1,31
 713 1272 713 1272 762 1293.5 c 128,-1,32
 811 1315 811 1315 840 1325 c 1,33,-1
 807 1137 l 1,34,35
 725 1104 725 1104 642 1066 c 128,-1,36
 559 1028 559 1028 481 990 c 128,-1,37
 403 952 403 952 334.5 916 c 128,-1,38
 266 880 266 880 214 850.5 c 128,-1,39
 162 821 162 821 130 800.5 c 128,-1,40
 98 780 98 780 94 774 c 1,41,42
 227 717 227 717 391 609.5 c 128,-1,43
 555 502 555 502 758 342 c 0,44,45
 812 297 812 297 854.5 271.5 c 128,-1,46
 897 246 897 246 932.5 233 c 128,-1,47
 968 220 968 220 999.5 216.5 c 128,-1,48
 1031 213 1031 213 1063 213 c 1,49,-1
 1063 0 l 1,50,51
 1025 0 1025 0 988.5 5 c 128,-1,52
 952 10 952 10 915.5 25 c 128,-1,53
 879 40 879 40 841.5 67 c 128,-1,54
 804 94 804 94 764 139 c 0,55,56
 735 170 735 170 694 211.5 c 128,-1,57
 653 253 653 253 612.5 293.5 c 128,-1,58
 572 334 572 334 536.5 367 c 128,-1,59
 501 400 501 400 483 412 c 1,60,61
 485 401 485 401 486 381 c 128,-1,62
 487 361 487 361 487 332 c 0,63,64
 487 254 487 254 459 192 c 128,-1,65
 431 130 431 130 377 87.5 c 128,-1,66
 323 45 323 45 244.5 22.5 c 128,-1,67
 166 0 166 0 66 0 c 2,68,-1
 6 0 l 2,69,70
 -23 0 -23 0 -35 15.5 c 128,-1,71
 -47 31 -47 31 -47 51 c 2,72,-1
 -47 160 l 2,4,5
EndSplineSet
EndChar

StartChar: afii57555
Encoding: 1740 1740 227
Width: 1222
GlyphClass: 2
Flags: W
AnchorPoint: "Anchor-3" 510 -735 basechar 0
AnchorPoint: "Anchor-2" 510 795 basechar 0
LayerCount: 2
Fore
SplineSet
1174 621 m 0,0,1
 1174 595 1174 595 1141 516 c 0,2,3
 1124 478 1124 478 1113 458 c 128,-1,4
 1102 438 1102 438 1094 438 c 0,5,6
 1085 438 1085 438 1069 467 c 0,7,8
 1056 496 1056 496 1036 496 c 0,9,10
 1001 496 1001 496 956 473.5 c 128,-1,11
 911 451 911 451 854 406 c 0,12,13
 741 317 741 317 741 262 c 0,14,15
 741 201 741 201 954 184 c 0,16,17
 1116 175 1116 175 1116 49 c 0,18,19
 1116 7 1116 7 1105 -29.5 c 128,-1,20
 1094 -66 1094 -66 1071 -98 c 0,21,22
 1054 -121 1054 -121 1025 -150 c 128,-1,23
 996 -179 996 -179 954 -211 c 0,24,25
 906 -248 906 -248 848 -279 c 128,-1,26
 790 -310 790 -310 721 -336 c 0,27,28
 576 -389 576 -389 449 -389 c 0,29,30
 90 -389 90 -389 90 -31 c 0,31,32
 90 98 90 98 147 227 c 0,33,34
 199 340 199 340 227 340 c 0,35,36
 246 340 246 340 246 315 c 1,37,38
 246 318 246 318 237 297 c 128,-1,39
 228 276 228 276 211 229 c 0,40,41
 176 139 176 139 176 70 c 0,42,43
 176 -39 176 -39 256 -104 c 0,44,45
 341 -176 341 -176 504 -176 c 0,46,47
 587 -176 587 -176 675.5 -156.5 c 128,-1,48
 764 -137 764 -137 860 -96 c 0,49,50
 1030 -28 1030 -28 1030 0 c 0,51,52
 1030 18 1030 18 977 18 c 0,53,54
 905 18 905 18 854.5 22.5 c 128,-1,55
 804 27 804 27 776 35 c 0,56,57
 666 68 666 68 666 174 c 0,58,59
 666 336 666 336 827 516 c 0,60,61
 980 690 980 690 1087 690 c 0,62,63
 1113 690 1113 690 1143 674 c 0,64,65
 1158 663 1158 663 1166 650.5 c 128,-1,66
 1174 638 1174 638 1174 621 c 0,0,1
EndSplineSet
Substitution2: "'fina' Terminal Forms in Arabic lookup 3 subtable" afii52364
Substitution2: "'medi' Medial Forms in Arabic lookup 2 subtable" afii62832
Substitution2: "'init' Initial Forms in Arabic lookup 0 subtable" uniFBFE
EndChar

StartChar: afii52364
Encoding: 64509 64509 228
Width: 1217
GlyphClass: 2
Flags: W
AnchorPoint: "Anchor-3" 585 -930 basechar 0
AnchorPoint: "Anchor-2" 585 525 basechar 0
LayerCount: 2
Fore
SplineSet
991 0 m 2,0,1
 834 0 834 0 834 -47 c 0,2,3
 834 -73 834 -73 911 -82 c 0,4,5
 971 -87 971 -87 1008 -92 c 128,-1,6
 1045 -97 1045 -97 1061 -102 c 0,7,8
 1141 -131 1141 -131 1141 -197 c 256,9,10
 1141 -263 1141 -263 1083 -329.5 c 128,-1,11
 1025 -396 1025 -396 907 -453 c 0,12,13
 796 -507 796 -507 689 -529.5 c 128,-1,14
 582 -552 582 -552 477 -552 c 0,15,16
 383 -552 383 -552 309.5 -527.5 c 128,-1,17
 236 -503 236 -503 182 -457 c 0,18,19
 86 -372 86 -372 86 -242 c 0,20,21
 86 -182 86 -182 107.5 -115.5 c 128,-1,22
 129 -49 129 -49 172 27 c 0,23,24
 249 160 249 160 285 160 c 0,25,26
 296 160 296 160 303.5 153 c 128,-1,27
 311 146 311 146 305 131 c 0,28,29
 303 126 303 126 290.5 107 c 128,-1,30
 278 88 278 88 252 39 c 0,31,32
 199 -61 199 -61 199 -152 c 0,33,34
 199 -212 199 -212 228 -252 c 128,-1,35
 257 -292 257 -292 303.5 -316 c 128,-1,36
 350 -340 350 -340 407.5 -350 c 128,-1,37
 465 -360 465 -360 522 -361 c 0,38,39
 540 -362 540 -362 583 -358.5 c 128,-1,40
 626 -355 626 -355 679.5 -348 c 128,-1,41
 733 -341 733 -341 791 -330.5 c 128,-1,42
 849 -320 849 -320 898 -306.5 c 128,-1,43
 947 -293 947 -293 980 -277.5 c 128,-1,44
 1013 -262 1013 -262 1018 -244 c 1,45,46
 1018 -226 1018 -226 940 -217 c 0,47,48
 837 -208 837 -208 801 -193 c 0,49,50
 725 -165 725 -165 725 -102 c 0,51,52
 725 15 725 15 852 115 c 0,53,54
 982 213 982 213 1145 213 c 2,55,-1
 1217 213 l 1,56,-1
 1217 0 l 1,57,-1
 991 0 l 2,0,1
EndSplineSet
EndChar

StartChar: afii62882
Encoding: 64606 64606 229
Width: 0
GlyphClass: 4
Flags: W
AnchorPoint: "Anchor-2" 0 0 mark 0
AnchorPoint: "Anchor-0" 0 0 mark 0
LayerCount: 2
Fore
SplineSet
208 628 m 0,0,1
 208 538 208 538 140 470 c 1,2,3
 177 449 177 449 177 433 c 0,4,5
 177 428 177 428 155 403 c 0,6,7
 131 376 131 376 116 376 c 0,8,9
 97 376 97 376 64 403 c 1,10,11
 21 370 21 370 -67 341 c 0,12,13
 -144 317 -144 317 -190 317 c 0,14,15
 -249 317 -249 317 -249 343 c 0,16,17
 -249 346 -249 346 -243 356.5 c 128,-1,18
 -237 367 -237 367 -229.5 381.5 c 128,-1,19
 -222 396 -222 396 -216 412.5 c 128,-1,20
 -210 429 -210 429 -210 444 c 0,21,22
 -210 501 -210 501 -269 501 c 0,23,24
 -281 501 -281 501 -293.5 496.5 c 128,-1,25
 -306 492 -306 492 -316.5 486.5 c 128,-1,26
 -327 481 -327 481 -335.5 476.5 c 128,-1,27
 -344 472 -344 472 -349 472 c 0,28,29
 -368 472 -368 472 -368 493 c 0,30,31
 -368 519 -368 519 -335 546 c 0,32,33
 -296 579 -296 579 -241 579 c 0,34,35
 -219 579 -219 579 -200.5 572 c 128,-1,36
 -182 565 -182 565 -168.5 553 c 128,-1,37
 -155 541 -155 541 -147.5 524.5 c 128,-1,38
 -140 508 -140 508 -140 489 c 0,39,40
 -140 481 -140 481 -145 458 c 128,-1,41
 -150 435 -150 435 -159 394 c 1,42,43
 -126 394 -126 394 -60 415 c 0,44,45
 4 436 4 436 13 448 c 1,46,47
 -71 520 -71 520 -71 560 c 0,48,49
 -71 622 -71 622 3 669 c 0,50,51
 68 710 68 710 136 710 c 0,52,53
 208 710 208 710 208 628 c 0,0,1
132 587 m 0,54,55
 132 632 132 632 89 632 c 0,56,57
 74 632 74 632 60.5 627.5 c 128,-1,58
 47 623 47 623 36.5 615.5 c 128,-1,59
 26 608 26 608 19.5 598.5 c 128,-1,60
 13 589 13 589 13 579 c 0,61,62
 13 570 13 570 20 557.5 c 128,-1,63
 27 545 27 545 38 533.5 c 128,-1,64
 49 522 49 522 62 512.5 c 128,-1,65
 75 503 75 503 87 499 c 1,66,67
 132 544 132 544 132 587 c 0,54,55
175 202 m 0,68,69
 175 182 175 182 165 157.5 c 128,-1,70
 155 133 155 133 132 104 c 0,71,72
 112 78 112 78 93 64 c 128,-1,73
 74 50 74 50 54 50 c 0,74,75
 36 50 36 50 20.5 53.5 c 128,-1,76
 5 57 5 57 -7 65 c 1,77,78
 -44 33 -44 33 -73.5 15 c 128,-1,79
 -103 -3 -103 -3 -134 -3 c 0,80,81
 -151 -3 -151 -3 -165 4 c 128,-1,82
 -179 11 -179 11 -189 23 c 128,-1,83
 -199 35 -199 35 -204.5 50 c 128,-1,84
 -210 65 -210 65 -210 81 c 0,85,86
 -210 98 -210 98 -206 122 c 128,-1,87
 -202 146 -202 146 -185 177 c 0,88,89
 -155 241 -155 241 -134 241 c 0,90,91
 -120 241 -120 241 -120 214 c 0,92,93
 -120 212 -120 212 -122.5 203 c 128,-1,94
 -125 194 -125 194 -130 177 c 0,95,96
 -136 160 -136 160 -139 147 c 128,-1,97
 -142 134 -142 134 -142 126 c 0,98,99
 -142 93 -142 93 -112 93 c 0,100,101
 -92 93 -92 93 -78.5 104.5 c 128,-1,102
 -65 116 -65 116 -54 134 c 1,103,104
 -51 185 -51 185 -36 229 c 0,105,106
 -15 278 -15 278 9 278 c 0,107,108
 36 278 36 278 36 263 c 0,109,110
 36 258 36 258 33.5 249 c 128,-1,111
 31 240 31 240 27.5 230 c 128,-1,112
 24 220 24 220 21.5 210.5 c 128,-1,113
 19 201 19 201 19 196 c 0,114,115
 19 147 19 147 64 147 c 0,116,117
 89 147 89 147 98 153.5 c 128,-1,118
 107 160 107 160 107 177 c 2,119,-1
 107 270 l 1,120,121
 141 321 141 321 157 321 c 0,122,123
 175 321 175 321 175 202 c 0,68,69
EndSplineSet
Ligature2: "'ccmp' Glyph Composition/Decomposition in Arabic lookup 4 subtable" afii57457 afii57452
EndChar

StartChar: afii62883
Encoding: 64607 64607 230
Width: 0
GlyphClass: 4
Flags: W
AnchorPoint: "Anchor-2" 0 0 mark 0
AnchorPoint: "Anchor-0" 0 0 mark 0
LayerCount: 2
Fore
SplineSet
187 544 m 0,0,1
 187 526 187 526 176.5 500 c 128,-1,2
 166 474 166 474 146 448 c 0,3,4
 123 419 123 419 104.5 407 c 128,-1,5
 86 395 86 395 66 395 c 0,6,7
 27 395 27 395 5 409 c 1,8,9
 -33 374 -33 374 -62.5 356.5 c 128,-1,10
 -92 339 -92 339 -122 339 c 0,11,12
 -139 339 -139 339 -153 346.5 c 128,-1,13
 -167 354 -167 354 -177 366 c 128,-1,14
 -187 378 -187 378 -192.5 393 c 128,-1,15
 -198 408 -198 408 -198 423 c 0,16,17
 -198 442 -198 442 -194.5 466.5 c 128,-1,18
 -191 491 -191 491 -174 522 c 0,19,20
 -143 583 -143 583 -122 583 c 0,21,22
 -106 583 -106 583 -106 556 c 0,23,24
 -106 555 -106 555 -118 522 c 0,25,26
 -131 486 -131 486 -131 468 c 0,27,28
 -131 438 -131 438 -100 438 c 0,29,30
 -80 438 -80 438 -67 448.5 c 128,-1,31
 -54 459 -54 459 -43 479 c 1,32,33
 -40 526 -40 526 -22 573 c 0,34,35
 -4 622 -4 622 21 622 c 0,36,37
 48 622 48 622 48 608 c 0,38,39
 48 602 48 602 45.5 592.5 c 128,-1,40
 43 583 43 583 39.5 573 c 128,-1,41
 36 563 36 563 33.5 553.5 c 128,-1,42
 31 544 31 544 31 540 c 0,43,44
 31 491 31 491 76 491 c 0,45,46
 101 491 101 491 110 498 c 128,-1,47
 119 505 119 505 119 522 c 2,48,-1
 119 614 l 1,49,50
 153 665 153 665 168 665 c 0,51,52
 187 665 187 665 187 544 c 0,0,1
179 126 m 1,53,-1
 -208 10 l 1,54,-1
 -172 94 l 1,55,-1
 215 210 l 1,56,-1
 179 126 l 1,53,-1
179 270 m 1,57,-1
 -208 153 l 1,58,-1
 -172 237 l 1,59,-1
 215 354 l 1,60,-1
 179 270 l 1,57,-1
EndSplineSet
Ligature2: "'ccmp' Glyph Composition/Decomposition in Arabic lookup 4 subtable" afii57457 afii57453
EndChar

StartChar: afii62884
Encoding: 64608 64608 231
Width: 0
GlyphClass: 4
Flags: W
AnchorPoint: "Anchor-2" 0 0 mark 0
AnchorPoint: "Anchor-0" 0 0 mark 0
LayerCount: 2
Fore
SplineSet
196 206 m 0,0,1
 196 186 196 186 186 161.5 c 128,-1,2
 176 137 176 137 153 108 c 0,3,4
 133 82 133 82 114 68 c 128,-1,5
 95 54 95 54 75 54 c 0,6,7
 57 54 57 54 41.5 57.5 c 128,-1,8
 26 61 26 61 14 69 c 1,9,10
 -23 37 -23 37 -52.5 19 c 128,-1,11
 -82 1 -82 1 -113 1 c 0,12,13
 -130 1 -130 1 -144 8 c 128,-1,14
 -158 15 -158 15 -168 27 c 128,-1,15
 -178 39 -178 39 -183.5 54 c 128,-1,16
 -189 69 -189 69 -189 85 c 0,17,18
 -189 102 -189 102 -185 126 c 128,-1,19
 -181 150 -181 150 -164 181 c 0,20,21
 -134 245 -134 245 -113 245 c 0,22,23
 -99 245 -99 245 -99 218 c 0,24,25
 -99 216 -99 216 -101.5 207 c 128,-1,26
 -104 198 -104 198 -109 181 c 0,27,28
 -115 164 -115 164 -118 151 c 128,-1,29
 -121 138 -121 138 -121 130 c 0,30,31
 -121 97 -121 97 -91 97 c 0,32,33
 -71 97 -71 97 -57.5 108.5 c 128,-1,34
 -44 120 -44 120 -33 138 c 1,35,36
 -30 189 -30 189 -15 233 c 0,37,38
 6 282 6 282 30 282 c 0,39,40
 57 282 57 282 57 267 c 0,41,42
 57 262 57 262 54.5 253 c 128,-1,43
 52 244 52 244 48.5 234 c 128,-1,44
 45 224 45 224 42.5 214.5 c 128,-1,45
 40 205 40 205 40 200 c 0,46,47
 40 151 40 151 85 151 c 0,48,49
 110 151 110 151 119 157.5 c 128,-1,50
 128 164 128 164 128 181 c 2,51,-1
 128 274 l 1,52,53
 162 325 162 325 178 325 c 0,54,55
 196 325 196 325 196 206 c 0,0,1
187 432 m 1,56,-1
 -200 316 l 1,57,-1
 -164 400 l 1,58,-1
 223 516 l 1,59,-1
 187 432 l 1,56,-1
EndSplineSet
Ligature2: "'ccmp' Glyph Composition/Decomposition in Arabic lookup 4 subtable" afii57457 afii57454
EndChar

StartChar: afii62885
Encoding: 64609 64609 232
Width: 0
GlyphClass: 4
Flags: W
AnchorPoint: "Anchor-2" 0 0 mark 0
AnchorPoint: "Anchor-0" 0 0 mark 0
LayerCount: 2
Fore
SplineSet
200 651 m 0,0,1
 200 572 200 572 136 495 c 1,2,3
 179 468 179 468 179 456 c 0,4,5
 179 448 179 448 152 422 c 0,6,7
 129 395 129 395 114 395 c 0,8,9
 93 395 93 395 58 424 c 1,10,11
 -26 358 -26 358 -136 358 c 0,12,13
 -259 358 -259 358 -259 397 c 0,14,15
 -259 409 -259 409 -239 409 c 0,16,17
 -210 409 -210 409 -174.5 414 c 128,-1,18
 -139 419 -139 419 -95 430 c 0,19,20
 -8 451 -8 451 3 469 c 1,21,22
 -79 539 -79 539 -79 577 c 0,23,24
 -79 645 -79 645 -3 694 c 0,25,26
 31 717 31 717 64.5 728 c 128,-1,27
 98 739 98 739 132 739 c 0,28,29
 145 739 145 739 157.5 732 c 128,-1,30
 170 725 170 725 179.5 713 c 128,-1,31
 189 701 189 701 194.5 685 c 128,-1,32
 200 669 200 669 200 651 c 0,0,1
124 608 m 0,33,34
 124 661 124 661 81 661 c 0,35,36
 52 661 52 661 29.5 648 c 128,-1,37
 7 635 7 635 7 618 c 0,38,39
 7 597 7 597 38 567 c 0,40,41
 52 552 52 552 64.5 541 c 128,-1,42
 77 530 77 530 91 524 c 1,43,44
 124 544 124 544 124 608 c 0,33,34
175 223 m 0,45,46
 175 203 175 203 165 178.5 c 128,-1,47
 155 154 155 154 132 125 c 0,48,49
 112 99 112 99 93 85 c 128,-1,50
 74 71 74 71 54 71 c 0,51,52
 36 71 36 71 20.5 74.5 c 128,-1,53
 5 78 5 78 -7 86 c 1,54,55
 -44 54 -44 54 -73.5 36 c 128,-1,56
 -103 18 -103 18 -134 18 c 0,57,58
 -151 18 -151 18 -165 25 c 128,-1,59
 -179 32 -179 32 -189 44 c 128,-1,60
 -199 56 -199 56 -204.5 71 c 128,-1,61
 -210 86 -210 86 -210 102 c 0,62,63
 -210 119 -210 119 -206 143 c 128,-1,64
 -202 167 -202 167 -185 198 c 0,65,66
 -155 262 -155 262 -134 262 c 0,67,68
 -120 262 -120 262 -120 235 c 0,69,70
 -120 233 -120 233 -122.5 224 c 128,-1,71
 -125 215 -125 215 -130 198 c 0,72,73
 -136 181 -136 181 -139 168 c 128,-1,74
 -142 155 -142 155 -142 147 c 0,75,76
 -142 114 -142 114 -112 114 c 0,77,78
 -92 114 -92 114 -78.5 125.5 c 128,-1,79
 -65 137 -65 137 -54 155 c 1,80,81
 -51 206 -51 206 -36 250 c 0,82,83
 -15 299 -15 299 9 299 c 0,84,85
 36 299 36 299 36 284 c 0,86,87
 36 279 36 279 33.5 270 c 128,-1,88
 31 261 31 261 27.5 251 c 128,-1,89
 24 241 24 241 21.5 231.5 c 128,-1,90
 19 222 19 222 19 217 c 0,91,92
 19 168 19 168 64 168 c 0,93,94
 89 168 89 168 98 174.5 c 128,-1,95
 107 181 107 181 107 198 c 2,96,-1
 107 291 l 1,97,98
 141 342 141 342 157 342 c 0,99,100
 175 342 175 342 175 223 c 0,45,46
EndSplineSet
Ligature2: "'ccmp' Glyph Composition/Decomposition in Arabic lookup 4 subtable" afii57457 afii57455
EndChar

StartChar: afii62886
Encoding: 64610 64610 233
Width: 0
GlyphClass: 4
Flags: W
AnchorPoint: "Anchor-2" 0 0 mark 0
AnchorPoint: "Anchor-0" 0 0 mark 0
LayerCount: 2
Fore
SplineSet
148 424 m 0,0,1
 148 404 148 404 137.5 379.5 c 128,-1,2
 127 355 127 355 107 326 c 0,3,4
 84 297 84 297 65.5 285 c 128,-1,5
 47 273 47 273 27 273 c 0,6,7
 -12 273 -12 273 -34 287 c 1,8,9
 -72 252 -72 252 -101.5 236 c 128,-1,10
 -131 220 -131 220 -161 220 c 0,11,12
 -178 220 -178 220 -192 227 c 128,-1,13
 -206 234 -206 234 -216 246 c 128,-1,14
 -226 258 -226 258 -231.5 273 c 128,-1,15
 -237 288 -237 288 -237 304 c 0,16,17
 -237 321 -237 321 -233.5 345 c 128,-1,18
 -230 369 -230 369 -213 400 c 0,19,20
 -182 463 -182 463 -161 463 c 0,21,22
 -145 463 -145 463 -145 437 c 0,23,24
 -145 433 -145 433 -157 400 c 0,25,26
 -164 383 -164 383 -167 370 c 128,-1,27
 -170 357 -170 357 -170 349 c 0,28,29
 -170 316 -170 316 -139 316 c 0,30,31
 -119 316 -119 316 -106 326.5 c 128,-1,32
 -93 337 -93 337 -82 357 c 1,33,34
 -79 404 -79 404 -61 451 c 0,35,36
 -43 500 -43 500 -18 500 c 0,37,38
 9 500 9 500 9 486 c 0,39,40
 9 482 9 482 6.5 473 c 128,-1,41
 4 464 4 464 0.5 453.5 c 128,-1,42
 -3 443 -3 443 -5.5 433 c 128,-1,43
 -8 423 -8 423 -8 418 c 0,44,45
 -8 369 -8 369 37 369 c 0,46,47
 62 369 62 369 71 376 c 128,-1,48
 80 383 80 383 80 400 c 2,49,-1
 80 492 l 1,50,51
 114 543 114 543 129 543 c 0,52,53
 148 543 148 543 148 424 c 0,0,1
140 121 m 1,54,-1
 -247 5 l 1,55,-1
 -211 89 l 1,56,-1
 176 205 l 1,57,-1
 140 121 l 1,54,-1
EndSplineSet
Ligature2: "'ccmp' Glyph Composition/Decomposition in Arabic lookup 4 subtable" afii57457 afii57456
EndChar

StartChar: afii62945
Encoding: 65554 -1 234
Width: 1340
GlyphClass: 3
Flags: W
AnchorPoint: "Anchor-1" 1185 -300 baselig 0
AnchorPoint: "Anchor-0" 1155 960 baselig 0
AnchorPoint: "Anchor-1" 780 -390 baselig 1
AnchorPoint: "Anchor-0" 825 900 baselig 1
AnchorPoint: "Anchor-1" 255 -330 baselig 2
AnchorPoint: "Anchor-0" 315 780 baselig 2
LayerCount: 2
Fore
SplineSet
1278 287 m 0,0,1
 1278 -20 1278 -20 1091 -20 c 0,2,3
 1054 -20 1054 -20 1019.5 -10.5 c 128,-1,4
 985 -1 985 -1 955.5 18.5 c 128,-1,5
 926 38 926 38 902.5 67 c 128,-1,6
 879 96 879 96 864 135 c 1,7,8
 830 39 830 39 792 -2 c 0,9,10
 769 -22 769 -22 736 -32.5 c 128,-1,11
 703 -43 703 -43 649 -43 c 0,12,13
 601 -43 601 -43 560.5 -25 c 128,-1,14
 520 -7 520 -7 491 31.5 c 128,-1,15
 462 70 462 70 447 129.5 c 128,-1,16
 432 189 432 189 434 272 c 1,17,18
 357 180 357 180 235 180 c 0,19,20
 82 180 82 180 82 233 c 0,21,22
 82 292 82 292 153 399 c 0,23,24
 235 523 235 523 448 608 c 1,25,26
 448 629 448 629 479 690 c 0,27,28
 525 788 525 788 534 788 c 0,29,30
 551 788 551 788 551 741 c 0,31,32
 551 712 551 712 548.5 674.5 c 128,-1,33
 546 637 546 637 544 588 c 0,34,35
 538 495 538 495 538 446 c 0,36,37
 538 416 538 416 538.5 385 c 128,-1,38
 539 354 539 354 540 328 c 128,-1,39
 541 302 541 302 542.5 283.5 c 128,-1,40
 544 265 544 265 546 258 c 0,41,42
 552 237 552 237 566 222 c 128,-1,43
 580 207 580 207 599 196.5 c 128,-1,44
 618 186 618 186 639.5 181 c 128,-1,45
 661 176 661 176 684 176 c 0,46,47
 750 176 750 176 783.5 201.5 c 128,-1,48
 817 227 817 227 817 283 c 0,49,50
 817 295 817 295 816 320.5 c 128,-1,51
 815 346 815 346 812.5 380.5 c 128,-1,52
 810 415 810 415 807 456.5 c 128,-1,53
 804 498 804 498 800 541 c 2,54,-1
 784 711 l 2,55,56
 784 733 784 733 819 795 c 0,57,58
 854 858 854 858 868 858 c 0,59,60
 883 858 883 858 886 797 c 0,61,62
 890 733 890 733 893.5 673.5 c 128,-1,63
 897 614 897 614 900.5 564 c 128,-1,64
 904 514 904 514 908.5 475.5 c 128,-1,65
 913 437 913 437 919 416 c 0,66,67
 942 300 942 300 992.5 246.5 c 128,-1,68
 1043 193 1043 193 1106 193 c 0,69,70
 1141 193 1141 193 1162 205.5 c 128,-1,71
 1183 218 1183 218 1183 244 c 1,72,-1
 1130 457 l 2,73,74
 1107 555 1107 555 1093 627.5 c 128,-1,75
 1079 700 1079 700 1079 729 c 0,76,77
 1079 749 1079 749 1088.5 776.5 c 128,-1,78
 1098 804 1098 804 1118 838 c 0,79,80
 1154 897 1154 897 1165 897 c 0,81,82
 1181 897 1181 897 1181 874 c 0,83,84
 1181 779 1181 779 1226 592 c 0,85,86
 1251 495 1251 495 1264.5 415.5 c 128,-1,87
 1278 336 1278 336 1278 287 c 0,0,1
440 508 m 1,88,89
 243 419 243 419 243 385 c 0,90,91
 243 378 243 378 284 365 c 0,92,93
 304 358 304 358 322.5 355 c 128,-1,94
 341 352 341 352 356 352 c 0,95,96
 400 352 400 352 438 381 c 1,97,98
 438 424 438 424 439 454.5 c 128,-1,99
 440 485 440 485 440 508 c 1,88,89
EndSplineSet
EndChar

StartChar: afii64184
Encoding: 65010 65010 235
Width: 1365
GlyphClass: 3
Flags: W
AnchorPoint: "Anchor-1" 1215 -315 baselig 0
AnchorPoint: "Anchor-0" 1200 1050 baselig 0
AnchorPoint: "Anchor-1" 855 -375 baselig 1
AnchorPoint: "Anchor-0" 840 930 baselig 1
AnchorPoint: "Anchor-1" 450 -435 baselig 2
AnchorPoint: "Anchor-0" 285 795 baselig 2
LayerCount: 2
Fore
SplineSet
1293 287 m 0,0,1
 1293 -20 1293 -20 1106 -20 c 0,2,3
 1069 -20 1069 -20 1034.5 -10.5 c 128,-1,4
 1000 -1 1000 -1 970.5 18.5 c 128,-1,5
 941 38 941 38 917.5 67 c 128,-1,6
 894 96 894 96 879 135 c 1,7,8
 845 39 845 39 807 -2 c 0,9,10
 784 -22 784 -22 751 -32.5 c 128,-1,11
 718 -43 718 -43 664 -43 c 0,12,13
 616 -43 616 -43 575.5 -25 c 128,-1,14
 535 -7 535 -7 506 31.5 c 128,-1,15
 477 70 477 70 462 129.5 c 128,-1,16
 447 189 447 189 449 272 c 1,17,18
 372 180 372 180 250 180 c 0,19,20
 97 180 97 180 97 233 c 0,21,22
 97 292 97 292 168 399 c 0,23,24
 250 523 250 523 463 608 c 1,25,26
 463 629 463 629 494 690 c 0,27,28
 540 788 540 788 549 788 c 0,29,30
 566 788 566 788 566 741 c 0,31,32
 566 712 566 712 563.5 674.5 c 128,-1,33
 561 637 561 637 559 588 c 0,34,35
 553 495 553 495 553 446 c 0,36,37
 553 416 553 416 553.5 385 c 128,-1,38
 554 354 554 354 555 328 c 128,-1,39
 556 302 556 302 557.5 283.5 c 128,-1,40
 559 265 559 265 561 258 c 0,41,42
 567 237 567 237 581 222 c 128,-1,43
 595 207 595 207 614 196.5 c 128,-1,44
 633 186 633 186 654.5 181 c 128,-1,45
 676 176 676 176 699 176 c 0,46,47
 765 176 765 176 798.5 201.5 c 128,-1,48
 832 227 832 227 832 283 c 0,49,50
 832 295 832 295 831 320.5 c 128,-1,51
 830 346 830 346 827.5 380.5 c 128,-1,52
 825 415 825 415 822 456.5 c 128,-1,53
 819 498 819 498 815 541 c 2,54,-1
 799 711 l 2,55,56
 799 733 799 733 834 795 c 0,57,58
 869 858 869 858 883 858 c 0,59,60
 898 858 898 858 901 797 c 0,61,62
 905 733 905 733 908.5 673.5 c 128,-1,63
 912 614 912 614 915.5 564 c 128,-1,64
 919 514 919 514 923.5 475.5 c 128,-1,65
 928 437 928 437 934 416 c 0,66,67
 957 300 957 300 1007.5 246.5 c 128,-1,68
 1058 193 1058 193 1121 193 c 0,69,70
 1156 193 1156 193 1177 205.5 c 128,-1,71
 1198 218 1198 218 1198 244 c 1,72,-1
 1145 457 l 2,73,74
 1122 555 1122 555 1108 627.5 c 128,-1,75
 1094 700 1094 700 1094 729 c 0,76,77
 1094 749 1094 749 1103.5 776.5 c 128,-1,78
 1113 804 1113 804 1133 838 c 0,79,80
 1169 897 1169 897 1180 897 c 0,81,82
 1196 897 1196 897 1196 874 c 0,83,84
 1196 779 1196 779 1241 592 c 0,85,86
 1266 495 1266 495 1279.5 415.5 c 128,-1,87
 1293 336 1293 336 1293 287 c 0,0,1
455 508 m 1,88,89
 258 419 258 419 258 385 c 0,90,91
 258 378 258 378 299 365 c 0,92,93
 319 358 319 358 337.5 355 c 128,-1,94
 356 352 356 352 371 352 c 0,95,96
 415 352 415 352 453 381 c 1,97,98
 453 424 453 424 454 454.5 c 128,-1,99
 455 485 455 485 455 508 c 1,88,89
1034 1120 m 0,100,101
 1034 1102 1034 1102 1025 1076.5 c 128,-1,102
 1016 1051 1016 1051 1003 1034 c 0,103,104
 983 1010 983 1010 963 990.5 c 128,-1,105
 943 971 943 971 920 971 c 0,106,107
 901 971 901 971 887 974 c 128,-1,108
 873 977 873 977 856 983 c 1,109,110
 821 948 821 948 791 934 c 128,-1,111
 761 920 761 920 735 920 c 0,112,113
 703 920 703 920 681 942.5 c 128,-1,114
 659 965 659 965 659 1002 c 0,115,116
 659 1027 659 1027 667 1054.5 c 128,-1,117
 675 1082 675 1082 687 1104.5 c 128,-1,118
 699 1127 699 1127 711.5 1142 c 128,-1,119
 724 1157 724 1157 733 1157 c 0,120,121
 741 1157 741 1157 744 1150.5 c 128,-1,122
 747 1144 747 1144 747 1133 c 0,123,124
 747 1125 747 1125 743.5 1114.5 c 128,-1,125
 740 1104 740 1104 736 1092.5 c 128,-1,126
 732 1081 732 1081 728.5 1069 c 128,-1,127
 725 1057 725 1057 725 1047 c 0,128,129
 725 1033 725 1033 731 1023.5 c 128,-1,130
 737 1014 737 1014 754 1014 c 0,131,132
 772 1014 772 1014 784.5 1022 c 128,-1,133
 797 1030 797 1030 811 1053 c 1,134,135
 813 1070 813 1070 817.5 1094 c 128,-1,136
 822 1118 822 1118 829.5 1140.5 c 128,-1,137
 837 1163 837 1163 848.5 1178.5 c 128,-1,138
 860 1194 860 1194 876 1194 c 0,139,140
 884 1194 884 1194 891.5 1191 c 128,-1,141
 899 1188 899 1188 899 1180 c 0,142,143
 899 1178 899 1178 896 1169 c 128,-1,144
 893 1160 893 1160 890 1148.5 c 128,-1,145
 887 1137 887 1137 884 1125.5 c 128,-1,146
 881 1114 881 1114 881 1106 c 0,147,148
 881 1088 881 1088 893 1075.5 c 128,-1,149
 905 1063 905 1063 928 1063 c 0,150,151
 945 1063 945 1063 957 1070 c 128,-1,152
 969 1077 969 1077 969 1090 c 2,153,-1
 969 1184 l 2,154,155
 969 1186 969 1186 975 1194.5 c 128,-1,156
 981 1203 981 1203 989.5 1212 c 128,-1,157
 998 1221 998 1221 1005.5 1228 c 128,-1,158
 1013 1235 1013 1235 1016 1235 c 0,159,160
 1021 1235 1021 1235 1024.5 1223.5 c 128,-1,161
 1028 1212 1028 1212 1030 1194.5 c 128,-1,162
 1032 1177 1032 1177 1033 1157 c 128,-1,163
 1034 1137 1034 1137 1034 1120 c 0,100,101
891 1419 m 0,164,165
 891 1385 891 1385 885 1360.5 c 128,-1,166
 879 1336 879 1336 867 1303 c 0,167,168
 856 1273 856 1273 848.5 1262.5 c 128,-1,169
 841 1252 841 1252 833 1252 c 0,170,171
 817 1252 817 1252 817 1277 c 0,172,173
 817 1284 817 1284 821.5 1310.5 c 128,-1,174
 826 1337 826 1337 826 1370 c 0,175,176
 826 1400 826 1400 814 1436 c 128,-1,177
 802 1472 802 1472 780 1514 c 1,178,179
 790 1538 790 1538 793.5 1556 c 128,-1,180
 797 1574 797 1574 798.5 1586 c 128,-1,181
 800 1598 800 1598 801.5 1603.5 c 128,-1,182
 803 1609 803 1609 808 1609 c 0,183,184
 816 1609 816 1609 834 1598 c 128,-1,185
 852 1587 852 1587 865 1554 c 0,186,187
 878 1519 878 1519 884.5 1487 c 128,-1,188
 891 1455 891 1455 891 1419 c 0,164,165
EndSplineSet
Ligature2: "'rlig' Required Ligatures in Arabic lookup 5 subtable" afii62817 afii62818 uniFC63 afii62828
Ligature2: "'rlig' Required Ligatures in Arabic lookup 5 subtable" afii62817 afii62818 afii57457 uni0670 afii62828
EndChar

StartChar: afii57415.001
Encoding: 1575 1575 249
Width: 385
GlyphClass: 2
Flags: W
AnchorPoint: "Anchor-3" 270 -375 basechar 0
AnchorPoint: "Anchor-2" 195 1395 basechar 0
LayerCount: 2
Fore
SplineSet
309 297 m 0,0,1
 309 171 309 171 262 66 c 0,2,3
 223 -25 223 -25 195 -25 c 0,4,5
 174 -25 174 -25 174 -6 c 1,6,-1
 177 6 l 2,7,8
 179 12 179 12 180.5 20.5 c 128,-1,9
 182 29 182 29 184 41 c 0,10,11
 197 92 197 92 197 203 c 0,12,13
 197 218 197 218 195 256.5 c 128,-1,14
 193 295 193 295 188 370 c 128,-1,15
 183 445 183 445 175 562.5 c 128,-1,16
 167 680 167 680 154 852 c 0,17,18
 147 918 147 918 144 972 c 128,-1,19
 141 1026 141 1026 141 1071 c 1,20,21
 240 1249 240 1249 256 1249 c 0,22,23
 270 1249 270 1249 270 1104 c 0,24,25
 270 1044 270 1044 274.5 950.5 c 128,-1,26
 279 857 279 857 289 729 c 0,27,28
 300 601 300 601 304.5 494 c 128,-1,29
 309 387 309 387 309 297 c 0,0,1
EndSplineSet
Substitution2: "'fina' Terminal Forms in Arabic lookup 3 subtable" afii62760
EndChar

StartChar: afii62760.001
Encoding: 65555 -1 250
Width: 481
GlyphClass: 2
Flags: W
LayerCount: 2
Fore
SplineSet
481 0 m 1,0,1
 271 0 271 0 201 166 c 0,2,3
 175 226 175 226 162.5 367.5 c 128,-1,4
 150 509 150 509 150 733 c 0,5,6
 150 784 150 784 147 843.5 c 128,-1,7
 144 903 144 903 139 971 c 256,8,9
 134 1039 134 1039 131.5 1071.5 c 128,-1,10
 129 1104 129 1104 129 1102 c 1,11,12
 217 1225 217 1225 231 1225 c 0,13,14
 243 1225 243 1225 246 1151 c 0,15,16
 248 1119 248 1119 248 1019 c 128,-1,17
 248 919 248 919 248 748 c 0,18,19
 248 409 248 409 303 299 c 0,20,21
 350 213 350 213 481 213 c 1,22,-1
 481 0 l 1,23,-1
 481 0 l 1,0,1
EndSplineSet
EndChar

StartChar: afii57421
Encoding: 1581 1581 269
Width: 1063
GlyphClass: 2
Flags: W
AnchorPoint: "Anchor-3" 540 -1125 basechar 0
AnchorPoint: "Anchor-2" 540 855 basechar 0
LayerCount: 2
Fore
SplineSet
1174 -612 m 256,0,1
 1174 -636 1174 -636 1116 -657 c 0,2,3
 1054 -682 1054 -682 1007 -703 c 128,-1,4
 960 -724 960 -724 928 -741 c 0,5,6
 914 -749 914 -749 886.5 -755.5 c 128,-1,7
 859 -762 859 -762 819 -770 c 256,8,9
 779 -778 779 -778 746.5 -782 c 128,-1,10
 714 -786 714 -786 688 -786 c 0,11,12
 86 -786 86 -786 86 -291 c 0,13,14
 86 74 86 74 412 373 c 1,15,16
 337 391 337 391 301 391 c 0,17,18
 241 391 241 391 203 365 c 0,19,20
 178 349 178 349 156 313 c 1,21,22
 134 287 134 287 127 287 c 0,23,24
 113 287 113 287 113 315 c 0,25,26
 113 350 113 350 127 389 c 128,-1,27
 141 428 141 428 170 471 c 0,28,29
 247 586 247 586 373 586 c 0,30,31
 387 586 387 586 432.5 581.5 c 128,-1,32
 478 577 478 577 553 567 c 0,33,34
 625 559 625 559 692 555 c 128,-1,35
 759 551 759 551 821 553 c 2,36,-1
 989 557 l 1,37,-1
 881 340 l 1,38,-1
 791 340 l 2,39,40
 535 340 535 340 354 168 c 0,41,42
 182 4 182 4 182 -195 c 0,43,44
 182 -408 182 -408 338 -500 c 0,45,46
 505 -598 505 -598 907 -598 c 0,47,48
 945 -598 945 -598 985 -597 c 128,-1,49
 1025 -596 1025 -596 1063 -594 c 2,50,-1
 1139 -588 l 2,51,52
 1174 -588 1174 -588 1174 -612 c 256,0,1
EndSplineSet
Substitution2: "'fina' Terminal Forms in Arabic lookup 3 subtable" afii62776
Substitution2: "'medi' Medial Forms in Arabic lookup 2 subtable" afii62775
Substitution2: "'init' Initial Forms in Arabic lookup 0 subtable" afii62774
EndChar

StartChar: afii62776
Encoding: 65186 65186 270
Width: 1063
GlyphClass: 2
Flags: W
AnchorPoint: "Anchor-3" 555 -1140 basechar 0
AnchorPoint: "Anchor-2" 540 960 basechar 0
LayerCount: 2
Fore
SplineSet
1174 -604 m 0,0,1
 1174 -626 1174 -626 1098 -659 c 2,2,-1
 969 -717 l 1,3,4
 907 -752 907 -752 824.5 -769 c 128,-1,5
 742 -786 742 -786 639 -786 c 0,6,7
 492 -786 492 -786 387.5 -758.5 c 128,-1,8
 283 -731 283 -731 217 -674 c 0,9,10
 86 -561 86 -561 86 -299 c 0,11,12
 86 -196 86 -196 106 -104 c 128,-1,13
 126 -12 126 -12 164 70 c 0,14,15
 201 145 201 145 262 223 c 128,-1,16
 323 301 323 301 408 383 c 1,17,18
 372 391 372 391 346 395 c 128,-1,19
 320 399 320 399 301 399 c 0,20,21
 214 399 214 399 156 313 c 0,22,23
 139 289 139 289 127 289 c 0,24,25
 109 289 109 289 109 311 c 0,26,27
 109 334 109 334 127 387 c 0,28,29
 138 419 138 419 151 445.5 c 128,-1,30
 164 472 164 472 178 492 c 0,31,32
 248 586 248 586 385 586 c 0,33,34
 402 586 402 586 436 581.5 c 128,-1,35
 470 577 470 577 524 569 c 256,36,37
 578 561 578 561 618.5 557 c 128,-1,38
 659 553 659 553 688 553 c 0,39,40
 708 553 708 553 740.5 554.5 c 128,-1,41
 773 556 773 556 819 561 c 0,42,43
 867 566 867 566 894.5 568.5 c 128,-1,44
 922 571 922 571 930 571 c 1,45,-1
 836 365 l 1,46,-1
 715 352 l 1,47,48
 705 335 705 335 705 303 c 0,49,50
 705 279 705 279 715.5 261.5 c 128,-1,51
 726 244 726 244 749.5 233.5 c 128,-1,52
 773 223 773 223 811 218 c 128,-1,53
 849 213 849 213 903 213 c 2,54,-1
 1063 213 l 1,55,-1
 1063 0 l 1,56,-1
 930 0 l 2,57,58
 645 0 645 0 645 215 c 0,59,60
 645 306 645 306 662 342 c 1,61,62
 555 320 555 320 470.5 271.5 c 128,-1,63
 386 223 386 223 319 145 c 0,64,65
 182 -13 182 -13 182 -229 c 0,66,67
 182 -412 182 -412 307 -498 c 0,68,69
 458 -598 458 -598 821 -598 c 0,70,71
 843 -598 843 -598 885.5 -595.5 c 128,-1,72
 928 -593 928 -593 991 -588 c 0,73,74
 1056 -583 1056 -583 1094 -580.5 c 128,-1,75
 1132 -578 1132 -578 1143 -578 c 0,76,77
 1174 -578 1174 -578 1174 -604 c 0,0,1
EndSplineSet
EndChar

StartChar: afii62774
Encoding: 65187 65187 271
Width: 938
GlyphClass: 2
Flags: W
AnchorPoint: "Anchor-3" 390 -405 basechar 0
AnchorPoint: "Anchor-2" 435 885 basechar 0
LayerCount: 2
Fore
SplineSet
780 188 m 1,0,-1
 657 201 l 1,1,2
 579 201 579 201 494 168 c 0,3,4
 474 160 474 160 431 141 c 128,-1,5
 388 122 388 122 322 90 c 0,6,7
 228 45 228 45 148.5 22.5 c 128,-1,8
 69 0 69 0 6 0 c 0,9,10
 -70 0 -70 0 -70 106 c 0,11,12
 -70 213 -70 213 6 213 c 2,13,-1
 61 213 l 2,14,15
 140 213 140 213 233 234 c 128,-1,16
 326 255 326 255 434 297 c 1,17,18
 275 414 275 414 193 414 c 0,19,20
 174 414 174 414 154 406.5 c 128,-1,21
 134 399 134 399 113 385 c 0,22,23
 69 358 69 358 63 358 c 0,24,25
 47 358 47 358 47 387 c 0,26,27
 47 413 47 413 58 443 c 128,-1,28
 69 473 69 473 92 508 c 0,29,30
 150 596 150 596 242 596 c 0,31,32
 316 596 316 596 473 504 c 0,33,34
 626 414 626 414 776 414 c 2,35,-1
 862 414 l 1,36,-1
 780 188 l 1,0,-1
EndSplineSet
EndChar

StartChar: afii62775
Encoding: 65188 65188 272
Width: 1063
GlyphClass: 2
Flags: W
AnchorPoint: "Anchor-3" 495 -435 basechar 0
AnchorPoint: "Anchor-2" 525 870 basechar 0
LayerCount: 2
Fore
SplineSet
1016 0 m 2,0,1
 879 0 879 0 801 66 c 0,2,3
 729 124 729 124 729 221 c 2,4,-1
 729 283 l 1,5,6
 632 260 632 260 552.5 229 c 128,-1,7
 473 198 473 198 408 156 c 0,8,9
 167 0 167 0 6 0 c 0,10,11
 -70 0 -70 0 -70 106 c 0,12,13
 -70 213 -70 213 6 213 c 0,14,15
 46 213 46 213 93.5 219.5 c 128,-1,16
 141 226 141 226 197 240 c 0,17,18
 277 260 277 260 341 288 c 128,-1,19
 405 316 405 316 453 354 c 1,20,21
 393 386 393 386 340 403 c 128,-1,22
 287 420 287 420 242 420 c 0,23,24
 191 420 191 420 139 389 c 0,25,26
 85 358 85 358 84 358 c 0,27,28
 66 358 66 358 66 377 c 0,29,30
 66 403 66 403 80 436.5 c 128,-1,31
 94 470 94 470 123 512 c 0,32,33
 193 614 193 614 283 614 c 0,34,35
 312 614 312 614 363 598.5 c 128,-1,36
 414 583 414 583 489 551 c 0,37,38
 639 487 639 487 715 487 c 0,39,40
 741 487 741 487 773.5 490 c 128,-1,41
 806 493 806 493 846 498 c 0,42,43
 928 510 928 510 940 510 c 1,44,-1
 897 313 l 1,45,-1
 776 293 l 1,46,47
 791 213 791 213 991 213 c 2,48,-1
 1063 213 l 1,49,-1
 1063 0 l 1,50,-1
 1016 0 l 2,0,1
EndSplineSet
EndChar

